P2 #comment
#comment
#comment
#comment
#comment
3#commentfordays
5 
200

200 2 3 4 18 37 92 71
18 #commments  #comment
17 29 30 19 28 37 



#comment
