P2 3 4 255
9 11 10
2 8 3
4 7 5
4 9 2
