P2 3 3 255
5 7 3 
2 1 4
8 6 9
