P2 2 2 255
2 3
7 6
