P2 2 2 255
7 6 
3 2 
