P2 2 2 255

1 5 
2 6
