P2 64 64 255
23 23 20 23 23 31 23 23 23 23 31 23 23 23 20 20 20 20 20 20 20 20 20 20 20 20 20 20 20 20 9 9 9 9 20 9 4 4 4 4 4 4 4 4 4 4 4 4 4 4 4 4 4 4 4 4 4 4 4 4 4 4 4 4 
23 23 20 23 31 23 31 23 23 23 31 31 23 23 20 20 20 20 20 20 20 20 20 20 20 20 20 9 20 20 9 9 9 9 20 9 4 4 4 4 4 4 4 4 4 4 4 4 4 4 4 4 4 4 4 4 4 4 4 4 4 4 4 4 
20 20 23 31 55 55 55 42 23 23 23 23 23 23 20 20 20 20 20 20 20 20 20 20 20 20 20 20 9 9 9 9 9 9 9 9 4 4 4 4 4 4 4 4 4 4 4 4 4 4 4 4 4 4 4 4 4 4 4 4 4 4 4 4 
20 20 31 83 123 126 123 108 65 23 23 23 23 23 23 23 20 20 20 20 20 20 20 20 20 20 20 9 9 9 9 9 9 9 4 4 4 4 4 4 4 4 4 4 4 4 4 4 4 4 4 4 4 4 4 4 4 4 4 4 4 4 4 4 
9 20 51 126 168 168 168 168 134 75 42 23 23 20 23 23 23 20 20 20 20 20 20 20 20 20 9 9 9 20 9 9 9 9 9 9 4 4 4 4 4 4 4 4 4 4 4 4 4 4 4 4 4 9 20 23 23 23 20 9 4 4 4 4 
9 9 75 143 164 168 174 168 168 110 55 42 20 20 23 23 23 23 20 20 20 20 20 20 20 20 9 9 20 20 9 9 9 9 9 9 9 9 4 4 4 4 4 4 4 4 4 4 4 4 4 4 4 23 42 51 55 51 42 20 4 4 4 4 
9 9 65 134 164 174 174 174 168 134 110 75 23 23 23 23 20 23 20 20 20 20 20 20 20 20 20 9 20 9 9 9 9 9 9 9 9 9 4 4 4 4 4 4 4 4 4 4 4 4 4 9 23 55 83 89 89 89 83 51 20 4 4 4 
4 4 65 134 164 168 174 174 174 174 168 134 101 65 23 20 20 23 20 20 20 20 20 23 20 20 20 20 9 20 9 9 9 20 20 20 9 9 9 9 4 4 4 4 4 4 4 4 4 4 23 51 75 110 134 134 134 134 134 108 55 20 4 4 
4 4 55 134 157 164 168 174 185 174 174 168 164 126 65 23 23 23 20 20 20 20 20 20 20 20 20 20 20 20 20 20 20 20 20 20 9 20 9 9 20 9 4 4 4 4 4 4 4 31 89 108 123 157 157 157 143 143 143 143 110 51 4 4 
4 4 55 126 157 164 174 174 185 185 174 174 174 168 123 65 23 20 23 23 20 20 20 20 20 20 20 20 20 9 20 20 20 20 9 20 20 20 20 20 9 9 9 4 4 4 4 4 31 101 134 143 157 157 143 157 143 143 157 157 134 83 23 20 
9 9 51 123 157 164 168 174 185 185 185 185 185 174 164 89 31 20 23 23 23 20 20 23 23 20 20 20 20 20 20 20 20 9 20 9 20 20 20 20 20 9 20 9 9 9 9 9 55 123 157 157 157 157 157 143 157 143 157 157 143 89 51 20 
9 9 51 123 157 164 174 174 192 185 174 174 174 174 168 126 55 23 23 23 23 20 20 20 20 20 20 20 20 20 20 20 20 20 9 20 20 20 9 20 20 20 9 9 20 9 20 23 83 134 157 157 157 157 143 143 143 157 143 157 157 108 75 31 
4 4 42 123 164 164 164 174 192 192 192 185 185 174 174 164 123 83 51 23 23 20 20 20 20 20 20 20 20 9 20 20 20 20 9 20 20 9 9 20 20 20 20 9 20 23 23 75 126 157 157 157 157 143 157 143 143 143 134 157 157 134 123 65 
9 9 23 110 168 164 157 164 185 192 192 192 192 185 174 168 164 157 110 83 51 20 20 20 20 20 20 20 20 20 20 20 20 20 20 20 20 20 20 20 20 20 9 23 55 101 101 123 143 157 143 164 157 157 143 143 143 143 143 143 157 143 143 83 
9 9 9 89 174 164 157 157 164 185 185 185 192 192 185 174 174 168 164 143 108 31 20 20 20 20 20 20 20 20 20 20 20 20 20 20 23 20 20 20 20 20 9 55 123 143 157 143 157 157 157 157 157 157 143 143 143 143 134 143 157 157 143 83 
9 9 4 89 174 168 164 157 164 174 174 185 185 185 185 185 174 168 168 174 126 55 20 20 9 20 20 20 20 20 20 20 20 20 20 23 23 20 20 20 20 9 20 83 143 143 143 143 157 157 164 164 164 164 164 157 143 134 134 143 157 157 143 83 
9 9 4 83 164 168 174 164 164 185 185 185 192 185 185 174 174 168 168 164 143 83 31 31 23 23 20 20 20 20 20 20 20 20 20 20 20 20 20 20 20 20 42 108 143 157 143 157 157 164 164 157 157 157 143 143 134 134 134 143 164 157 134 75 
9 9 4 65 157 174 185 174 174 192 192 201 192 192 192 174 174 168 164 157 157 126 89 75 75 51 23 20 20 20 20 20 20 20 23 23 23 23 20 23 23 42 89 134 143 143 157 143 164 157 143 143 134 126 126 134 126 126 134 143 164 134 108 55 
9 9 9 55 134 168 168 185 185 185 185 185 185 185 192 185 168 164 164 143 157 157 123 89 89 83 55 51 51 51 51 51 51 51 42 51 42 42 42 42 42 83 126 134 143 157 143 157 157 143 134 126 134 126 134 126 134 126 134 157 164 110 55 42 
9 9 20 23 110 174 168 168 174 174 174 174 174 185 185 174 168 157 157 143 143 157 126 108 101 101 89 89 101 101 101 89 101 89 89 89 83 75 75 101 108 123 126 126 134 134 143 143 157 164 164 157 157 143 134 134 134 134 143 157 164 108 31 23 
20 20 20 20 108 185 174 168 174 185 174 174 185 185 174 185 168 157 157 143 143 143 134 126 123 108 101 101 108 101 108 108 108 110 110 110 101 89 101 123 143 143 126 110 123 126 126 134 157 164 168 168 164 134 126 134 126 134 157 164 168 101 31 23 
20 9 20 9 89 174 185 174 185 185 185 185 174 174 185 174 168 164 143 143 143 126 123 110 108 101 89 101 101 101 101 101 101 108 108 108 108 101 108 123 134 134 126 110 123 123 123 126 143 143 143 143 143 157 143 143 143 143 143 164 164 101 23 23 
9 9 20 9 75 164 174 174 185 174 174 174 168 168 168 168 164 164 157 143 126 110 108 101 101 101 89 101 101 101 101 89 89 101 108 108 108 108 110 123 110 123 123 110 110 123 123 123 126 134 134 134 143 157 143 134 143 157 157 164 157 89 31 31 
9 9 9 9 65 157 174 185 174 164 143 157 164 164 164 157 157 143 143 134 126 110 108 108 108 108 101 101 108 108 108 108 108 101 89 108 108 108 101 108 110 110 123 123 126 126 126 126 134 134 143 143 143 157 143 134 143 157 157 157 157 83 23 23 
9 20 9 9 75 157 168 174 174 157 143 134 134 157 157 157 143 157 134 134 126 123 108 108 108 108 101 101 108 108 108 110 108 89 89 101 108 101 108 108 110 123 123 123 134 134 143 126 134 134 123 110 110 110 134 143 157 164 164 157 126 75 20 20 
20 20 20 9 83 164 174 174 168 157 143 134 126 134 157 143 157 143 134 126 126 110 108 108 108 101 89 101 108 108 108 108 101 89 89 101 108 108 108 110 126 123 123 126 134 157 143 134 143 143 110 101 89 83 110 134 157 168 168 157 123 65 20 20 
9 9 9 20 83 168 185 174 164 143 143 134 134 134 157 157 143 143 143 134 126 126 110 108 108 101 89 101 108 108 108 108 101 101 101 108 108 108 108 123 123 123 123 126 126 134 134 126 134 126 110 101 89 83 108 123 143 168 164 157 123 65 31 23 
9 9 20 20 65 143 185 174 164 143 134 134 143 157 157 164 164 164 143 143 126 134 126 108 108 101 89 101 108 108 108 110 110 108 108 110 123 123 123 126 123 123 123 134 126 126 126 123 110 110 110 101 89 75 101 110 134 164 157 164 123 65 51 31 
9 9 20 20 31 108 143 164 164 143 143 157 164 157 157 168 174 174 157 123 123 134 126 108 108 101 89 108 108 108 110 126 126 108 110 126 157 157 143 126 123 123 123 134 134 134 134 123 110 126 123 108 89 83 108 126 143 168 164 157 110 75 42 31 
9 20 9 9 31 83 110 126 143 164 164 168 168 174 168 185 168 143 123 108 126 143 126 108 108 108 108 108 108 108 123 134 123 108 110 143 185 174 157 126 123 123 126 126 126 134 126 126 126 126 126 123 101 83 123 143 164 168 164 126 108 75 51 42 
9 9 20 9 31 83 110 126 143 157 168 174 185 185 185 192 157 123 108 89 126 164 123 110 110 108 110 110 110 108 123 143 110 101 110 157 185 192 157 123 123 123 134 134 126 126 126 134 134 123 110 134 108 89 123 157 164 168 143 110 101 65 42 31 
9 20 9 20 51 108 126 134 143 168 174 174 174 164 134 164 157 110 110 110 143 157 126 123 123 110 126 123 108 108 126 157 123 101 108 157 185 185 164 134 134 134 143 134 134 126 126 126 134 126 126 126 110 108 126 143 143 143 134 108 89 55 31 31 
20 20 20 42 101 143 164 157 157 164 168 157 126 110 89 101 123 134 143 143 157 143 134 143 134 126 134 126 123 123 126 157 126 108 110 157 168 143 134 126 134 143 164 164 134 126 134 126 134 126 134 143 134 126 134 134 126 123 110 101 83 51 23 20 
20 20 23 89 143 157 143 143 134 143 157 126 123 110 110 89 101 134 157 174 164 134 143 157 143 143 143 134 126 126 134 143 143 126 134 123 101 75 75 75 89 110 134 164 157 134 143 134 134 126 134 134 134 134 126 134 126 123 108 101 83 42 23 20 
20 20 51 110 143 134 123 123 126 164 164 164 143 143 126 83 83 123 157 185 185 157 143 164 157 143 143 126 123 123 126 157 164 123 89 83 65 55 65 75 75 89 108 123 143 143 143 143 134 134 126 110 110 126 143 134 134 134 123 123 101 42 20 20 
23 23 65 123 134 123 108 108 143 168 174 168 157 143 123 55 83 134 168 185 185 164 157 164 164 157 134 123 110 123 134 168 168 89 31 75 101 83 83 83 89 101 89 101 126 157 143 143 143 143 126 108 110 123 126 134 134 143 134 126 110 55 20 20 
23 31 65 123 134 123 110 110 143 185 185 168 157 143 110 65 108 164 168 185 185 164 157 164 157 157 143 123 110 110 143 174 143 83 55 101 101 55 51 83 108 123 123 123 126 123 123 123 126 126 110 108 108 110 123 123 123 123 126 134 108 42 20 20 
31 31 75 110 126 123 123 123 134 174 192 168 143 143 123 108 143 168 185 185 174 168 157 157 157 157 143 134 126 126 164 185 123 83 101 134 108 23 31 83 126 157 157 164 143 110 110 108 108 101 89 83 101 108 108 108 110 110 123 134 110 55 31 23 
51 55 83 110 110 123 123 123 110 157 174 174 164 157 143 157 157 143 143 157 157 164 164 143 164 164 157 143 143 143 168 164 89 89 134 157 110 75 83 110 157 157 168 185 164 134 143 110 89 83 83 83 89 101 108 101 108 110 110 108 123 89 51 31 
83 83 89 108 110 123 134 123 110 123 134 157 157 157 164 174 143 110 110 108 126 164 164 157 157 168 157 126 123 123 123 110 89 89 108 126 157 143 134 143 157 164 174 168 134 123 123 108 101 89 89 89 89 101 108 101 101 89 101 89 110 101 75 42 
89 89 89 108 110 123 143 126 110 110 126 123 123 134 174 192 157 108 101 89 123 164 143 157 157 164 143 110 89 89 89 89 108 89 75 110 164 168 168 157 143 174 185 134 101 89 101 89 89 89 89 83 89 101 108 110 101 101 89 101 110 101 89 51 
89 89 101 108 110 123 143 143 126 110 123 110 123 126 143 164 126 101 101 101 126 164 157 143 164 157 134 108 89 89 83 83 108 126 134 157 168 168 168 164 157 157 143 123 101 89 89 89 101 101 89 89 89 89 108 110 108 101 101 108 110 110 108 75 
89 89 89 110 110 126 157 164 157 126 110 110 108 110 110 123 108 101 101 108 123 143 157 143 157 134 110 101 89 89 83 75 108 143 157 143 134 143 143 134 126 110 101 89 89 89 89 101 108 110 108 101 89 89 101 101 101 89 89 89 108 101 89 75 
89 89 101 123 126 157 168 168 174 157 126 123 108 110 110 126 123 108 101 89 123 134 134 134 123 108 89 83 89 89 89 89 108 110 110 108 108 108 108 108 108 101 89 89 89 89 89 108 123 123 108 101 89 89 89 89 89 83 83 83 101 101 83 75 
108 108 123 134 143 164 164 164 168 164 157 134 134 123 110 143 143 123 108 101 123 134 126 123 108 83 75 89 101 101 108 110 110 110 110 110 101 101 101 108 108 108 108 108 110 110 110 110 123 110 108 101 89 75 83 89 83 75 75 83 108 123 123 110 
110 123 126 143 157 157 157 164 168 164 157 157 157 123 123 157 157 126 110 108 123 134 126 123 108 83 75 101 110 110 123 123 110 110 123 110 101 101 101 108 110 123 123 123 126 134 134 123 110 123 108 108 89 83 83 83 75 65 65 83 108 126 143 134 
123 123 126 143 157 164 168 168 168 168 168 157 143 126 123 164 157 126 123 108 110 126 123 110 108 89 89 110 134 134 143 134 110 101 101 108 108 101 101 110 123 123 123 123 123 123 123 123 123 123 110 110 108 89 83 83 75 75 75 89 101 123 126 123 
123 123 126 143 157 157 157 157 164 174 174 168 168 164 143 168 185 164 126 101 108 110 108 89 89 83 110 164 168 168 164 134 110 89 83 101 108 108 108 108 123 126 126 126 126 126 126 126 134 123 123 110 110 108 83 83 83 89 101 101 108 110 110 108 
143 143 143 164 164 164 164 164 168 185 185 192 185 174 174 192 216 216 174 126 123 108 89 75 101 126 168 185 185 185 164 143 134 110 108 110 123 126 126 126 134 134 134 126 134 134 134 134 126 123 110 108 101 89 89 89 101 101 108 108 110 123 110 110 
157 157 157 157 157 164 168 164 168 185 185 192 192 185 192 216 225 225 216 216 157 101 108 123 164 216 216 201 192 192 168 157 157 143 134 143 157 134 157 143 143 143 126 126 123 123 123 110 110 110 108 101 101 89 108 108 108 108 108 108 110 123 123 110 
157 157 157 143 143 143 143 134 143 168 174 185 201 201 216 216 225 225 225 225 168 101 123 174 192 216 216 192 192 185 174 157 143 164 157 168 164 134 143 157 134 134 126 123 110 108 108 108 108 108 108 108 108 108 108 110 108 101 101 108 108 123 123 123 
126 126 134 143 157 157 157 157 164 174 192 192 216 201 216 216 216 216 216 216 168 110 134 174 192 216 201 201 201 201 192 174 168 168 168 168 164 157 164 157 157 143 134 143 123 110 110 110 108 108 108 101 101 101 101 101 101 101 101 101 108 123 123 110 
101 101 123 134 157 168 174 174 174 174 174 185 192 192 201 216 216 201 201 192 168 110 126 168 174 192 201 192 201 201 192 192 185 174 174 168 164 164 164 164 157 164 168 143 123 108 108 108 108 108 101 101 101 108 101 101 101 101 89 101 108 123 123 110 
89 101 126 157 143 174 174 168 168 174 168 185 185 185 192 192 201 192 174 164 134 101 108 123 143 174 192 185 185 185 185 185 174 168 168 164 164 168 164 157 157 157 134 126 110 108 101 110 126 110 108 108 108 108 110 123 108 108 101 108 108 110 123 108 
108 108 126 164 157 143 157 143 168 174 168 168 168 168 174 185 168 164 143 143 134 126 126 123 134 143 157 164 168 174 174 174 168 164 143 157 164 168 164 164 174 157 126 110 110 108 108 123 126 123 123 126 123 108 108 108 108 108 108 101 110 110 123 108 
110 123 126 143 134 134 143 164 168 168 164 157 157 157 168 174 157 126 143 157 168 168 164 157 143 126 126 157 164 164 168 168 168 164 143 143 164 164 157 174 201 174 143 123 108 108 101 108 110 123 143 157 134 108 101 89 101 108 108 108 108 123 123 108 
123 123 126 134 143 143 134 157 164 157 143 157 157 143 164 168 164 157 164 174 174 174 164 164 164 157 134 134 134 134 157 157 157 157 157 157 157 157 164 164 168 157 143 143 110 108 108 108 110 123 126 126 123 110 110 101 101 101 101 108 108 110 123 108 
108 101 110 123 134 143 134 134 126 126 134 134 134 134 143 157 168 192 192 201 192 185 174 174 174 168 168 157 134 134 134 143 143 143 164 157 157 143 143 143 157 134 143 157 143 143 134 123 108 108 110 110 110 110 108 101 101 101 101 108 110 110 110 108 
101 101 108 110 134 134 134 126 126 123 123 110 123 110 123 126 164 168 185 201 192 185 174 174 185 174 174 168 168 168 164 157 143 143 134 143 134 134 126 123 126 126 126 123 126 157 143 143 126 110 110 110 110 108 101 101 101 108 108 108 110 108 101 89 
89 101 101 110 123 123 110 123 110 110 108 108 110 110 110 110 123 134 157 168 174 185 185 185 185 185 174 168 164 164 157 143 134 123 123 123 123 126 123 110 108 110 126 108 89 89 101 108 123 123 108 108 108 101 101 101 101 108 108 108 101 83 75 65 
83 83 101 110 110 110 108 108 108 108 101 108 110 110 110 108 110 123 126 143 168 174 185 185 185 174 168 164 157 157 143 126 123 108 110 110 123 123 123 123 110 110 126 108 65 65 55 65 108 123 108 108 101 101 89 101 101 101 108 101 83 75 75 51 
89 89 108 110 108 108 101 101 101 101 108 101 101 108 101 101 101 108 110 126 134 164 168 174 168 168 164 143 134 134 134 123 110 108 108 110 110 123 123 108 108 108 110 123 101 75 75 75 89 108 108 101 89 101 101 101 101 108 108 101 83 65 51 31 
108 101 108 101 101 101 101 89 89 101 89 89 83 83 89 101 101 101 108 108 108 110 126 134 134 134 123 123 123 123 110 110 110 110 108 108 110 110 110 108 101 101 108 110 110 108 101 101 89 89 108 101 101 89 101 101 101 101 101 89 75 51 31 23 
108 108 101 89 101 101 101 101 101 89 89 89 89 89 101 101 89 89 89 89 89 101 101 101 101 108 108 108 123 110 123 123 123 110 110 110 123 110 110 123 123 110 110 108 89 101 101 108 110 108 108 108 108 101 101 101 101 101 89 83 65 51 31 9 
