P2 64 64 255
80 80 76 78 78 81 74 78 78 78 84 78 80 80 78 78 78 78 78 78 76 76 78 78 78 78 76 76 78 78 69 69 69 69 78 69 66 66 66 66 66 66 66 66 66 66 66 66 66 66 66 66 66 66 66 66 66 66 66 66 66 66 66 66 
80 80 76 78 84 75 80 78 78 78 84 84 80 80 78 78 78 78 78 78 76 76 78 78 78 78 76 68 78 78 69 69 69 69 78 69 66 66 66 66 66 66 66 66 66 66 66 66 66 66 66 66 66 66 66 66 66 66 66 66 66 66 66 66 
78 78 78 84 98 83 73 73 71 75 78 78 78 80 76 78 76 76 78 78 76 76 76 78 78 78 76 76 69 69 69 69 69 69 69 69 66 66 66 66 66 66 66 66 64 66 66 66 66 66 66 66 66 66 66 66 66 66 66 66 66 66 66 66 
76 76 84 119 129 107 97 94 75 61 75 80 78 78 78 80 76 76 76 76 76 76 78 76 76 78 76 68 69 69 69 69 69 69 66 66 66 66 66 66 66 66 64 66 64 64 66 66 66 66 66 66 66 66 66 66 66 64 66 66 66 66 66 66 
68 76 99 136 139 129 129 131 106 75 73 75 78 76 78 78 78 76 76 76 76 76 78 76 76 76 69 68 69 78 69 69 69 69 69 69 66 66 66 66 66 66 64 66 64 64 66 66 66 66 66 66 66 69 78 80 80 78 76 69 66 66 66 64 
68 68 117 139 126 131 135 131 132 88 56 70 69 78 78 78 78 78 76 78 76 78 78 76 78 76 69 68 78 78 69 69 69 69 69 69 69 68 64 66 66 66 66 66 64 66 66 66 66 66 64 66 66 78 93 101 104 99 93 73 61 60 60 64 
68 68 110 131 126 136 139 139 132 105 87 69 54 74 78 78 76 78 76 76 76 76 76 78 76 78 78 68 78 69 69 69 68 68 69 69 69 68 64 66 66 64 66 66 66 66 66 66 66 66 64 68 78 102 123 128 128 128 113 74 43 29 34 50 
64 64 110 131 126 136 143 141 139 135 131 103 89 89 75 76 76 78 76 76 76 76 76 78 76 76 78 78 69 78 69 69 68 76 76 76 69 68 69 69 66 64 66 64 66 66 66 64 64 64 78 99 117 144 162 159 153 139 123 87 44 20 6 35 
61 61 99 129 122 136 145 143 149 136 135 131 126 110 89 74 78 78 76 76 76 76 76 76 76 76 78 78 76 76 78 78 76 76 76 76 68 76 68 69 78 68 64 64 66 66 64 64 64 84 128 142 153 179 176 160 131 118 112 112 87 43 6 34 
61 61 92 117 124 138 153 150 154 149 136 135 133 129 105 89 75 76 78 78 76 76 76 76 76 76 76 76 76 68 76 76 76 76 68 76 76 76 76 76 68 69 68 64 64 64 64 64 84 137 162 168 179 172 148 134 110 110 120 122 105 68 20 46 
68 68 77 103 128 142 154 157 159 154 148 145 143 133 126 83 65 69 78 78 78 76 76 78 78 76 76 76 76 76 76 76 76 68 76 68 76 78 76 76 76 68 76 68 68 68 68 68 102 153 179 176 168 150 131 110 120 110 122 127 120 76 43 43 
65 68 69 97 131 142 159 163 168 158 143 139 135 133 127 97 56 58 74 78 78 76 76 76 76 76 76 76 76 76 76 76 76 76 68 76 76 76 68 76 76 76 68 68 76 68 76 78 123 162 176 160 138 124 108 110 110 122 116 131 137 94 61 49 
61 61 62 98 136 142 149 167 179 170 167 154 145 133 131 124 93 78 85 75 78 76 76 76 76 76 76 76 76 68 76 76 76 76 68 76 76 68 68 76 76 76 76 68 76 78 75 117 153 175 158 131 119 108 119 110 112 113 111 137 138 116 97 71 
64 64 48 88 139 142 148 164 182 183 170 163 153 143 131 127 124 122 109 113 95 73 76 76 76 73 76 76 76 76 76 76 76 76 76 76 76 76 76 76 76 76 68 78 102 137 134 150 154 148 122 124 119 120 112 110 112 116 123 130 142 122 112 73 
65 65 37 73 146 142 144 160 175 188 179 167 164 154 143 131 131 129 133 131 123 80 72 73 76 76 76 76 76 76 76 76 76 76 76 76 78 76 76 76 76 76 65 102 150 165 172 148 137 122 119 119 119 122 116 116 116 122 121 130 142 133 112 67 
65 68 34 76 146 146 147 154 167 181 181 182 175 163 148 140 131 127 127 135 110 70 47 57 61 69 72 72 69 67 64 59 66 72 72 75 75 76 73 76 76 65 73 120 165 158 139 118 119 119 124 124 126 132 139 137 126 121 121 128 138 128 112 68 
68 68 40 75 138 145 155 154 155 175 177 182 181 163 149 133 131 127 127 124 108 67 28 38 41 48 43 41 43 39 34 34 38 41 47 54 62 72 72 72 67 62 78 125 143 138 113 119 119 124 124 120 124 134 136 144 139 133 125 131 143 128 106 65 
68 68 50 68 131 150 163 161 161 172 179 193 175 159 150 133 131 127 124 119 119 95 68 57 59 41 18 18 18 18 20 21 20 16 22 26 36 53 62 61 48 51 87 120 112 108 119 108 124 119 110 116 116 119 136 150 145 136 129 131 142 109 87 50 
68 68 56 64 111 146 149 169 177 179 182 177 163 148 149 141 127 124 124 108 119 119 93 68 68 63 44 41 41 41 47 51 43 39 32 39 32 40 51 51 37 65 97 103 108 119 108 119 119 108 105 107 121 130 142 144 150 133 129 138 138 88 47 40 
65 65 64 43 102 146 139 150 169 171 169 157 139 143 143 135 127 119 119 108 108 119 95 82 78 78 71 73 82 80 86 80 85 76 73 69 63 57 59 78 84 95 95 95 101 101 108 108 119 126 128 133 142 139 139 141 141 137 136 138 136 90 29 23 
76 73 66 47 101 152 139 145 163 174 157 146 143 143 135 143 127 119 119 108 108 108 101 95 93 84 82 85 90 82 90 87 90 95 91 87 78 71 80 95 108 108 95 83 93 95 95 101 119 128 139 150 149 129 130 133 130 133 146 143 136 82 32 23 
76 68 64 33 83 143 152 153 175 174 159 145 136 136 145 133 127 124 108 108 108 95 93 83 82 78 76 86 85 80 78 78 80 90 90 87 87 82 84 95 101 101 95 83 93 93 93 95 108 110 116 131 136 144 138 139 138 138 133 138 128 82 23 23 
68 68 59 29 65 129 143 153 169 157 151 143 132 132 131 127 126 126 119 108 95 83 82 77 77 77 73 85 82 78 77 68 73 89 87 87 90 86 87 95 83 93 93 83 83 93 93 93 95 103 105 111 128 142 136 131 133 142 138 132 120 73 29 29 
68 68 56 27 53 120 135 152 153 142 122 127 128 126 124 119 120 110 108 101 95 83 82 82 82 82 77 78 84 82 82 84 90 91 76 86 86 86 78 82 83 83 93 93 95 95 95 95 101 103 110 112 118 138 136 123 122 128 134 131 124 71 26 23 
68 76 59 33 61 120 131 141 150 142 122 105 101 119 119 119 108 119 101 101 95 93 82 82 82 82 77 77 82 82 82 87 91 80 76 80 84 78 82 82 83 93 93 93 101 101 108 95 101 101 95 87 93 102 125 126 128 129 136 134 103 67 21 24 
73 73 73 45 71 126 136 143 142 138 123 103 95 101 119 108 119 108 101 95 95 83 82 82 82 77 68 77 82 82 82 84 82 73 71 78 82 82 82 83 95 93 93 95 101 119 108 101 108 108 85 85 82 83 107 123 137 135 132 127 101 58 24 21 
65 65 68 54 71 127 143 139 132 113 112 101 101 101 119 119 108 108 108 101 95 95 83 82 82 77 68 77 82 82 82 84 80 78 77 82 82 82 82 93 93 93 93 95 95 101 101 95 101 95 85 85 86 88 109 121 128 136 126 122 98 58 32 26 
68 68 73 46 50 108 140 131 124 108 101 101 108 119 119 124 124 124 108 108 95 101 95 82 82 77 68 77 82 82 82 83 85 82 82 83 93 93 93 95 93 93 93 101 95 95 95 93 83 83 83 82 89 87 106 103 116 129 120 128 98 55 47 32 
65 65 73 46 24 82 108 124 124 108 108 119 124 119 119 127 131 131 119 93 93 101 95 82 82 77 68 82 84 84 83 95 97 84 83 95 119 119 108 95 93 93 93 101 101 101 101 93 83 95 93 87 86 86 107 110 113 129 128 124 91 62 37 32 
65 73 64 35 26 67 87 100 113 128 126 129 127 131 127 140 127 108 93 82 95 108 95 82 82 82 82 82 82 84 93 101 95 84 83 108 140 131 119 95 93 93 95 95 95 101 95 95 95 95 95 95 86 83 115 122 129 129 128 100 90 65 47 40 
64 65 66 31 29 68 91 105 118 128 131 133 140 140 140 145 119 93 82 68 95 124 93 83 83 82 83 83 83 82 93 108 83 77 83 119 140 145 119 93 93 93 101 101 95 95 95 101 101 95 85 103 86 83 111 127 126 129 113 88 82 58 40 34 
49 59 37 28 44 86 100 106 113 132 135 131 131 124 101 124 119 83 83 83 108 119 95 93 93 83 95 93 82 82 95 119 93 77 82 119 140 140 124 101 101 101 108 101 101 95 95 95 101 97 97 97 85 86 100 110 108 112 106 87 76 47 32 42 
34 34 25 34 78 110 128 124 120 126 127 119 95 83 69 77 93 101 108 108 119 108 101 108 101 95 101 95 93 93 95 119 95 82 83 119 127 108 101 95 101 108 124 124 101 95 101 95 101 97 103 110 105 99 103 101 95 97 88 82 68 47 30 47 
20 20 20 69 108 120 112 113 105 108 119 95 93 85 85 68 77 101 119 131 124 101 108 119 108 108 108 101 95 95 101 108 108 95 101 93 77 57 57 57 68 83 101 124 119 101 108 101 101 97 103 105 106 106 99 103 97 97 87 82 68 40 36 56 
18 18 41 83 108 103 98 97 97 124 124 124 110 110 97 63 63 93 119 140 140 119 108 124 119 108 108 95 93 93 95 119 124 93 68 63 50 42 50 57 57 68 82 93 108 108 108 108 101 103 99 88 88 100 116 105 105 105 98 98 82 42 39 64 
18 18 50 93 101 97 87 87 110 127 131 129 120 110 95 42 63 101 127 140 140 124 119 124 124 119 101 93 83 93 101 127 127 68 24 57 77 63 63 63 68 77 68 77 95 120 110 110 110 112 100 87 88 101 103 106 105 113 109 100 88 56 52 72 
18 24 50 93 101 97 91 91 112 141 140 127 120 110 87 51 82 124 127 140 140 124 119 124 119 119 108 93 83 83 108 131 108 63 42 77 77 42 39 63 82 93 93 93 95 95 97 98 99 99 87 86 86 88 98 97 97 97 100 106 87 52 59 73 
26 26 57 83 95 97 101 103 111 135 147 129 110 110 108 107 123 132 141 140 131 127 119 119 119 119 108 101 95 95 124 140 93 63 77 101 82 18 24 63 95 119 119 124 108 85 87 86 86 78 71 68 82 86 84 84 85 85 98 106 88 65 74 75 
43 46 65 83 83 97 101 103 91 124 136 133 126 120 133 168 154 130 126 131 120 124 124 108 124 124 119 108 108 108 127 124 68 68 101 119 83 57 63 83 119 119 129 143 126 103 110 85 71 68 71 68 73 80 84 77 82 87 87 86 98 95 91 81 
68 68 71 82 83 95 105 101 93 101 106 124 124 124 143 177 148 115 121 120 114 126 124 119 119 127 119 95 93 93 93 83 68 68 82 95 119 108 101 108 120 133 155 157 121 101 98 86 85 80 80 76 73 80 84 77 77 71 82 73 88 102 109 93 
76 76 76 84 83 93 110 103 91 91 99 98 103 111 146 179 158 113 118 124 136 142 110 119 119 124 108 83 68 68 68 68 82 68 57 83 124 127 136 137 128 155 179 155 114 82 85 71 73 76 76 68 71 78 82 83 77 78 73 80 88 100 117 96 
77 77 86 86 85 95 110 112 103 87 95 83 97 103 120 142 125 114 123 133 147 151 122 108 124 119 101 82 68 68 63 63 82 95 101 119 129 142 163 167 156 146 148 146 112 77 71 73 82 78 69 69 68 68 82 83 82 78 82 87 87 105 128 114 
71 71 73 88 87 97 120 129 127 100 83 83 82 85 88 97 94 98 106 120 124 130 131 108 119 101 83 77 68 68 63 57 82 108 119 108 105 136 160 153 136 119 119 105 87 80 73 80 87 87 82 77 68 68 77 77 78 71 71 73 87 96 114 114 
69 69 78 98 100 124 131 132 139 122 97 93 82 83 83 95 93 82 82 83 105 111 109 101 93 82 68 63 68 68 68 68 82 83 83 82 87 100 120 133 128 123 105 83 80 82 76 86 97 97 82 77 68 68 68 68 71 67 68 68 82 98 109 114 
82 82 93 105 113 129 132 129 131 128 120 101 101 93 83 108 108 93 84 80 95 103 95 93 82 63 57 68 77 77 82 83 83 83 83 83 82 82 92 109 107 112 104 91 91 88 87 85 97 85 82 77 68 57 63 68 67 62 62 68 87 118 143 141 
83 93 95 110 122 128 128 129 131 128 119 119 119 93 93 119 119 95 83 82 95 103 97 93 82 63 57 77 83 83 93 93 83 83 93 85 80 82 85 86 85 97 98 98 97 101 103 98 87 95 82 82 68 63 63 67 67 59 55 68 91 125 161 162 
93 93 95 108 120 129 135 135 136 132 127 119 108 95 93 124 119 95 93 82 85 97 93 83 82 68 68 83 101 101 108 101 83 77 77 82 86 86 82 85 95 95 93 93 93 97 98 98 95 93 83 83 82 68 65 68 72 71 65 76 91 129 152 153 
93 93 95 108 119 119 122 127 133 136 135 129 127 124 108 127 140 124 95 77 82 83 82 68 68 63 83 124 127 127 124 101 83 68 63 77 90 90 82 82 93 95 95 97 103 105 100 99 101 93 93 83 83 82 65 73 83 87 89 85 101 126 141 142 
108 108 108 124 124 124 126 126 129 143 145 149 140 131 131 145 165 165 131 97 97 86 69 57 77 95 127 140 140 140 124 108 101 83 82 85 98 99 95 95 101 101 101 97 109 111 105 103 97 97 85 82 77 68 71 80 100 100 96 94 111 145 141 144 
119 119 119 119 119 124 127 124 127 140 141 147 147 140 145 165 175 179 175 172 128 86 87 93 124 163 163 152 145 145 127 119 119 108 101 110 127 111 124 110 108 108 95 97 98 98 95 85 87 87 84 78 77 69 90 96 107 112 100 100 121 149 153 144 
119 119 119 108 108 108 108 101 108 127 131 140 152 155 168 172 182 185 185 182 136 86 98 133 145 163 163 145 145 140 131 119 108 124 119 132 133 116 120 128 111 105 99 101 91 84 84 86 84 86 86 86 84 87 94 98 107 108 104 112 128 149 153 153 
95 95 101 108 119 119 119 119 124 131 145 145 163 153 171 175 175 172 175 172 135 87 103 131 145 163 152 152 152 152 145 131 127 127 131 135 132 131 133 127 128 116 106 113 97 85 85 85 86 87 90 82 85 89 92 95 100 108 114 118 132 150 153 144 
77 77 93 101 119 127 131 131 131 131 133 143 150 149 157 171 168 161 164 154 131 83 95 129 131 145 152 145 152 153 145 145 141 135 136 135 129 132 129 126 120 128 129 108 93 82 84 84 86 90 82 85 85 94 92 100 102 106 110 126 135 153 153 144 
68 77 95 119 108 131 131 127 127 131 129 145 145 143 149 149 157 153 141 133 105 77 82 93 110 136 153 148 148 148 143 140 133 131 131 132 132 136 133 122 120 119 101 95 85 86 80 88 99 88 87 91 91 94 98 115 112 118 123 135 138 144 153 142 
82 82 95 124 119 108 119 108 127 131 127 127 127 129 136 145 132 129 116 116 105 95 97 95 103 116 128 133 136 141 135 133 129 126 108 120 129 135 132 132 135 119 97 87 91 90 87 101 100 97 101 105 107 97 101 101 109 123 135 133 141 141 153 142 
83 93 95 108 101 101 108 124 127 127 124 120 120 122 135 141 124 105 120 124 131 127 126 124 113 103 105 124 128 129 132 132 131 124 108 110 129 133 128 139 155 131 110 98 90 87 82 86 87 101 118 137 121 105 104 97 112 130 138 139 139 150 153 142 
93 93 95 101 108 108 101 119 124 122 110 120 122 110 126 135 133 131 133 136 133 133 126 129 133 128 106 103 103 109 128 127 120 119 119 120 127 131 133 129 132 122 110 112 87 86 86 86 87 101 114 119 118 109 113 114 123 128 133 139 139 141 150 142 
82 77 83 93 101 108 103 106 97 99 103 103 105 105 108 120 135 153 150 157 147 143 133 135 136 132 131 119 105 106 109 112 110 108 124 119 122 116 113 116 127 105 112 122 110 110 105 97 84 87 98 109 119 118 118 118 126 130 133 139 141 141 144 139 
77 77 82 85 103 103 103 99 99 95 95 83 97 87 93 95 126 129 145 155 147 141 135 135 143 135 133 127 131 132 129 120 108 108 101 108 103 106 100 98 100 95 99 98 99 122 108 108 97 87 93 113 132 132 126 128 128 138 139 139 144 142 134 128 
68 77 78 85 95 93 83 93 83 83 84 82 83 85 83 83 93 101 119 127 131 141 141 143 141 143 135 129 128 132 124 112 103 95 93 93 93 97 98 87 84 85 95 84 71 69 78 86 98 101 97 118 133 133 134 134 133 139 139 139 134 123 117 110 
63 63 77 83 83 83 82 82 82 82 77 82 83 83 83 82 83 93 95 108 127 133 141 141 141 133 131 128 122 122 112 99 95 82 83 83 93 95 97 97 83 83 95 82 50 50 44 53 90 108 107 123 130 133 125 134 137 137 139 137 120 117 114 99 
68 68 82 83 82 82 77 77 77 77 82 77 77 82 77 77 77 82 83 95 101 124 129 133 129 129 126 112 105 101 103 97 85 82 82 83 83 93 95 82 82 82 83 93 77 57 57 59 76 100 112 119 124 133 134 134 137 139 142 134 123 110 96 84 
82 77 82 77 77 77 77 68 68 77 68 68 63 63 68 77 77 77 82 82 82 83 95 101 103 103 95 97 97 95 85 85 83 83 82 82 83 83 83 82 77 77 82 83 83 84 78 78 73 83 112 123 130 124 134 134 134 134 134 128 117 96 84 75 
82 82 77 68 77 77 77 77 77 68 68 68 68 68 77 77 68 68 68 69 69 78 77 77 78 84 84 84 97 85 93 93 93 83 83 83 93 83 83 93 93 83 83 82 68 77 78 86 91 101 118 128 133 133 134 134 134 134 125 120 107 99 81 68 
