P2 64 64 255
137 137 132 134 134 132 126 134 134 134 138 134 137 137 135 135 135 135 135 135 132 132 135 135 135 135 132 132 135 135 130 130 130 130 135 130 127 127 127 127 127 127 127 127 127 127 127 127 127 127 127 127 127 127 127 127 127 127 127 127 127 127 127 127 
137 137 132 134 138 128 130 134 134 134 138 138 137 137 135 135 135 135 135 135 132 132 135 135 135 135 132 127 135 135 130 130 130 130 135 130 127 127 127 127 127 127 127 127 127 127 127 127 127 127 127 127 127 127 127 127 127 127 127 127 127 127 127 127 
135 135 134 138 142 111 92 105 120 128 134 134 134 137 132 135 132 132 135 135 132 132 132 135 135 135 132 132 130 130 130 130 130 130 130 130 127 127 127 127 127 127 127 127 124 127 127 127 127 127 127 127 127 127 127 127 127 127 127 127 127 127 127 127 
132 132 138 156 135 89 71 80 85 99 128 137 134 134 134 137 132 132 132 132 132 132 135 132 132 135 132 127 130 130 130 130 130 130 127 127 127 127 127 127 127 127 124 127 124 124 127 127 127 127 127 127 127 127 127 127 127 124 127 127 127 127 127 127 
127 132 148 147 110 89 89 93 79 76 105 128 134 132 134 134 134 132 132 132 132 132 135 132 132 132 130 127 130 135 130 130 130 130 130 130 127 127 127 127 127 127 124 127 124 124 127 127 127 127 127 127 127 130 135 137 137 134 132 130 127 127 127 124 
127 127 160 136 87 93 96 93 96 67 58 98 118 135 134 134 134 134 132 135 132 135 135 132 135 132 130 127 135 135 130 130 130 130 130 130 130 127 124 127 127 127 127 127 124 127 127 127 127 127 124 127 127 134 143 151 153 148 143 126 118 116 116 124 
127 127 155 128 87 99 105 105 96 76 64 63 85 126 134 134 132 134 132 132 132 132 132 135 132 135 135 127 135 130 130 130 127 127 130 130 130 127 124 127 127 124 127 127 127 127 127 127 127 127 124 127 134 150 164 167 167 167 143 96 67 54 63 96 
124 124 155 128 87 105 113 108 105 96 93 72 76 114 128 132 132 134 132 132 132 132 132 134 132 132 135 135 130 135 130 130 127 132 132 132 130 127 130 130 127 124 127 124 127 127 127 124 124 124 134 148 160 177 189 183 172 144 112 66 33 19 7 66 
118 118 144 124 88 108 122 113 113 99 96 93 87 93 114 126 134 134 132 132 132 132 132 132 132 132 135 135 132 132 135 135 132 132 132 132 127 132 127 130 135 127 124 124 127 127 124 124 124 138 167 176 184 201 195 162 120 92 81 81 64 35 7 63 
118 118 129 108 90 112 132 125 123 113 99 96 92 89 87 114 128 132 134 134 132 132 132 132 132 132 132 132 132 127 132 132 132 132 127 132 132 132 132 132 127 130 127 124 124 124 124 124 138 173 189 194 201 187 153 110 77 77 84 88 76 53 17 71 
127 127 103 82 99 120 141 139 133 123 110 104 102 92 87 76 99 118 134 134 134 132 132 134 134 132 132 132 132 132 132 132 132 127 132 127 132 135 132 132 132 127 132 127 127 127 127 127 150 184 201 195 180 143 104 77 84 77 88 96 97 62 35 67 
121 127 87 71 104 120 144 151 144 131 113 105 96 92 86 68 58 93 126 134 134 132 132 132 132 132 132 132 132 132 132 132 132 132 127 132 132 132 127 132 132 132 127 127 132 127 132 134 164 189 195 162 119 90 73 77 77 88 89 104 117 80 47 68 
118 118 82 73 108 120 134 160 167 148 141 123 104 92 89 84 63 73 119 128 134 132 132 132 132 132 132 132 132 127 132 132 132 132 127 132 132 127 127 132 132 132 132 127 132 134 128 160 179 193 160 104 80 73 80 77 81 83 88 117 119 97 71 78 
119 119 73 67 110 120 140 163 180 173 148 134 114 102 89 86 84 88 107 143 140 126 132 132 132 126 132 132 132 132 132 132 132 132 132 132 132 132 132 132 132 132 127 134 150 173 167 178 165 140 102 84 80 84 81 77 81 89 103 117 127 102 81 62 
121 121 66 56 117 120 131 162 187 191 174 149 137 117 102 89 89 89 103 120 138 130 124 126 132 132 132 132 132 132 132 132 132 132 132 132 134 132 132 132 132 132 121 150 178 188 187 153 117 88 80 80 80 88 89 89 89 102 108 117 127 109 81 51 
121 127 63 62 117 125 130 152 169 188 188 180 166 141 110 94 89 86 86 96 95 84 74 94 113 118 124 124 118 115 108 97 111 124 124 128 128 132 126 132 132 121 126 158 188 173 136 92 80 80 84 84 87 100 114 117 110 108 108 112 119 99 81 53 
127 127 75 67 112 122 135 143 146 166 170 180 169 141 113 92 89 86 86 84 73 51 25 46 60 73 67 62 67 58 48 48 55 62 74 87 104 124 124 124 115 104 115 141 142 119 83 80 80 84 84 84 90 110 128 145 144 131 115 120 123 99 79 55 
127 127 96 71 104 125 141 148 148 153 167 184 157 126 108 92 89 86 84 80 80 65 46 39 43 31 13 15 15 15 19 22 19 12 21 29 50 82 104 99 73 59 85 105 81 73 80 73 84 80 77 89 97 111 147 165 164 147 124 120 120 85 66 45 
127 127 103 73 88 125 129 154 170 174 180 170 141 110 105 98 86 84 84 73 80 80 63 46 46 43 33 31 31 31 43 51 35 27 23 27 23 39 59 59 33 47 68 72 73 80 73 80 80 73 76 89 108 134 151 161 165 140 124 119 112 67 39 39 
121 121 108 64 93 119 110 132 164 168 164 139 105 102 102 96 86 80 80 73 73 80 65 56 56 56 54 56 62 60 71 70 68 62 56 50 43 39 43 56 59 67 65 65 69 69 73 73 80 87 91 109 127 136 144 148 148 140 128 119 108 72 27 23 
132 126 111 74 95 118 105 122 151 163 139 117 102 102 96 102 86 80 80 73 73 73 69 65 63 59 62 68 72 62 72 66 72 81 73 64 56 54 60 67 73 73 65 57 63 65 65 69 80 91 110 132 134 124 134 131 134 131 135 123 105 62 33 23 
132 127 108 57 76 113 118 132 166 163 133 104 99 99 104 92 86 84 73 73 73 65 63 57 56 56 62 71 68 60 56 56 60 72 72 66 66 62 59 67 69 69 65 57 63 63 63 65 73 77 89 120 128 131 133 136 133 133 124 112 91 62 23 23 
127 127 97 50 55 94 113 132 154 139 128 113 96 96 93 86 87 87 80 73 65 57 56 52 52 52 56 68 62 56 52 46 56 76 66 66 72 63 64 67 57 63 63 57 57 63 63 63 65 72 76 88 112 127 128 128 124 127 119 100 84 56 27 27 
127 127 103 45 42 84 96 118 132 120 102 96 91 87 84 80 84 77 73 69 65 57 56 56 56 56 52 56 59 56 56 59 72 81 62 63 63 63 56 56 57 57 63 63 65 65 65 65 69 72 77 81 92 119 128 112 102 99 110 104 90 59 29 23 
127 132 109 57 47 84 93 108 125 127 102 76 69 80 80 80 73 80 69 69 65 63 56 56 56 56 52 52 56 56 56 64 75 70 62 60 59 56 56 56 57 63 63 63 69 69 73 65 69 69 67 64 76 93 115 110 99 94 108 110 81 58 22 28 
126 126 126 82 59 87 99 113 116 119 103 72 65 69 80 73 80 73 69 65 65 57 56 56 56 52 46 52 56 56 56 59 62 56 54 56 56 56 56 57 65 63 63 65 69 80 73 69 73 73 60 68 75 82 103 112 117 102 96 96 79 50 28 22 
121 121 127 87 59 86 102 105 100 83 81 69 69 69 80 80 73 73 73 69 65 65 57 56 56 52 46 52 56 56 56 59 60 56 52 56 56 56 56 63 63 63 63 65 65 69 69 65 69 65 60 68 83 94 111 118 112 105 87 88 73 50 33 29 
127 127 126 71 34 73 94 89 84 73 69 69 73 80 80 84 84 84 73 73 65 69 65 56 56 52 46 52 56 56 56 57 60 56 56 57 63 63 63 65 63 63 63 69 65 65 65 63 57 57 57 62 90 99 112 96 97 94 84 91 73 44 43 33 
121 121 126 71 17 56 73 84 84 73 73 80 84 80 80 86 89 89 80 63 63 69 65 56 56 52 46 56 59 59 57 65 68 59 57 65 80 80 73 65 63 63 63 69 69 69 69 63 57 65 63 66 83 90 106 95 83 89 91 90 73 49 33 33 
121 126 119 61 21 51 64 75 83 91 87 89 86 89 86 94 86 73 63 56 65 73 65 56 56 56 56 56 56 59 63 69 67 59 57 73 94 89 80 65 63 63 65 65 65 69 65 65 65 65 65 67 71 82 107 102 94 89 91 75 72 55 43 39 
119 121 111 53 27 53 73 84 92 99 93 92 94 94 94 98 80 63 56 46 65 84 63 57 57 56 57 57 57 56 63 73 57 52 57 80 94 98 80 63 63 63 69 69 65 65 65 69 69 67 60 72 63 76 100 96 87 89 83 67 62 50 39 36 
88 97 66 36 37 63 75 79 83 96 96 89 89 84 69 84 80 57 57 57 73 80 65 63 63 57 65 63 56 56 65 80 63 52 56 80 94 94 84 69 69 69 73 69 69 65 65 65 69 68 68 68 60 63 75 77 73 81 79 66 62 39 33 54 
48 48 31 26 56 77 91 90 84 87 86 80 65 57 50 52 63 69 73 73 80 73 69 73 69 65 69 65 63 63 65 80 65 56 57 80 86 73 69 65 69 73 84 84 69 65 69 65 69 68 72 77 76 72 72 69 65 71 67 62 53 43 37 74 
19 19 17 50 73 84 81 83 76 73 80 65 63 60 60 46 52 69 80 89 84 69 73 80 73 73 73 69 65 65 69 73 73 65 69 63 52 39 39 39 46 57 69 84 80 69 73 69 69 68 72 76 79 79 72 72 68 71 66 62 53 39 50 91 
15 15 31 57 73 72 73 71 68 84 84 84 77 77 68 43 43 63 80 94 94 80 73 84 80 73 73 65 63 63 65 80 84 63 46 43 34 29 34 39 39 46 56 63 73 73 73 73 69 72 72 67 67 75 89 76 76 76 73 73 62 42 58 108 
13 13 34 63 69 71 66 66 77 86 89 89 84 77 67 29 43 69 86 94 94 84 80 84 84 80 69 63 57 63 69 86 86 46 17 39 52 43 43 43 46 52 46 52 65 84 77 77 77 81 75 66 67 79 81 79 76 83 85 75 67 58 83 124 
13 17 34 63 69 71 73 73 81 98 94 86 84 77 64 38 56 84 86 94 94 84 80 84 80 80 73 63 57 57 73 89 73 43 29 52 52 29 27 43 56 63 63 63 65 67 71 73 72 72 64 63 63 67 73 71 71 71 75 79 66 62 97 126 
21 21 39 57 65 71 79 82 88 96 101 89 77 77 93 106 103 96 98 94 89 86 80 80 80 80 73 69 65 65 84 94 63 43 52 69 56 13 17 43 65 80 80 84 73 60 64 63 63 56 54 53 62 63 59 59 60 60 73 79 67 76 117 128 
35 37 47 57 57 71 79 82 73 90 99 92 87 84 124 180 152 117 110 104 84 84 84 73 84 84 80 73 73 73 86 84 46 46 69 80 57 39 43 57 80 80 89 102 87 72 77 60 54 53 59 53 56 60 59 52 56 64 64 63 73 101 130 132 
53 53 54 56 57 67 76 79 76 79 79 90 90 90 123 181 153 119 132 131 101 87 84 80 80 86 80 65 63 63 63 57 46 46 56 65 80 73 69 73 84 103 135 145 108 79 73 63 68 70 70 62 56 60 59 52 52 54 62 56 67 103 142 143 
62 62 62 59 57 63 77 81 73 73 72 73 82 88 117 167 160 118 134 159 149 120 77 80 80 84 73 57 46 46 46 46 56 46 39 57 84 86 105 117 112 135 174 175 128 75 68 54 56 62 62 53 54 56 56 57 52 56 56 60 67 99 146 142 
65 65 71 63 60 67 77 81 81 64 67 57 71 81 97 120 124 128 144 165 168 139 88 73 84 80 69 56 46 46 43 43 56 65 69 80 89 116 157 169 156 135 153 170 124 65 54 56 62 56 50 50 46 46 56 57 56 56 62 66 64 100 148 154 
54 54 56 67 64 68 84 94 96 75 57 57 56 60 67 71 80 96 112 131 126 117 104 73 80 69 57 52 46 46 43 39 56 73 80 73 76 128 176 172 147 128 138 122 85 70 56 60 66 64 56 52 46 46 52 52 56 54 54 56 66 91 138 154 
50 50 56 73 75 90 93 96 105 88 68 63 56 57 57 65 63 56 62 76 87 88 85 69 63 56 46 43 46 46 46 46 56 57 57 56 66 92 131 159 148 144 122 76 70 75 62 63 71 71 56 52 46 46 46 46 54 51 53 53 62 96 135 154 
56 56 63 76 83 94 100 94 93 91 84 69 69 63 57 73 73 63 59 60 67 72 65 63 56 43 39 46 52 52 56 57 57 57 57 57 62 62 82 111 106 115 99 75 73 67 64 60 71 60 56 52 46 39 43 46 51 49 49 53 66 114 163 171 
57 63 65 77 88 99 99 94 93 91 80 80 80 63 63 80 80 65 57 56 67 72 68 63 56 43 39 52 57 57 63 63 57 57 63 60 60 62 68 63 60 71 73 73 68 69 72 73 64 67 56 56 46 43 43 51 58 53 44 53 75 124 180 189 
63 63 65 73 84 94 102 102 105 96 86 80 73 65 63 84 80 65 63 56 60 68 63 57 56 46 46 57 69 69 73 69 57 52 52 56 63 71 62 60 67 67 63 63 63 71 73 73 67 63 57 57 56 46 47 53 69 68 55 62 81 135 177 184 
63 63 65 73 80 80 88 96 103 99 96 89 86 84 73 86 94 84 65 52 56 57 56 46 46 43 57 84 86 86 84 69 57 46 43 52 72 72 56 56 63 65 65 68 81 84 75 72 69 63 63 57 57 56 47 62 82 85 76 68 95 142 171 176 
73 73 73 84 84 84 87 87 89 102 104 105 94 89 89 98 113 113 89 68 71 63 50 39 52 65 86 94 94 94 84 73 69 57 56 60 73 72 65 65 69 69 69 68 85 88 76 72 68 71 60 56 52 46 54 70 99 99 84 80 112 166 171 177 
80 80 80 80 80 84 86 84 86 94 98 101 101 94 98 113 124 133 134 129 99 71 66 63 84 110 110 102 98 98 86 80 80 73 69 77 96 88 90 77 73 73 65 68 73 73 67 60 64 64 59 56 52 50 72 84 106 115 92 92 132 176 184 177 
80 80 80 73 73 73 73 69 73 86 89 94 102 110 120 129 138 144 144 138 105 71 73 92 98 110 110 98 98 94 89 80 73 84 80 96 103 99 97 99 88 76 72 79 73 59 59 63 59 63 63 63 59 66 80 87 106 115 107 115 148 176 184 184 
65 65 69 73 80 80 80 80 84 89 98 98 110 106 126 134 134 129 134 129 102 64 72 89 98 110 102 102 102 102 98 89 86 86 93 102 100 104 103 96 99 89 79 83 71 60 60 60 63 66 72 62 68 76 82 89 99 115 128 134 155 178 184 177 
52 52 63 69 80 86 89 89 89 89 92 102 108 105 112 126 120 121 126 117 93 57 65 89 89 98 102 98 102 106 98 98 98 96 99 102 94 100 94 87 84 91 89 73 63 56 59 59 63 72 62 68 68 80 82 99 103 112 132 152 162 184 184 177 
46 52 65 80 73 89 89 86 86 89 89 104 104 102 105 105 112 114 108 103 76 52 56 63 77 99 114 110 110 110 102 94 92 93 93 100 100 105 103 88 84 80 69 65 60 63 60 67 72 67 66 75 75 80 87 107 115 127 144 162 168 177 184 176 
56 56 65 84 80 73 80 73 86 89 86 86 86 89 99 104 96 94 89 89 76 65 68 67 72 89 99 103 105 108 96 92 89 87 73 84 94 102 100 100 96 80 68 64 73 72 66 79 75 71 79 84 92 86 95 95 111 138 162 165 171 171 184 176 
57 63 65 73 69 69 73 84 86 86 84 84 84 88 102 108 90 84 97 90 93 86 87 90 83 81 84 90 91 94 96 96 93 84 73 77 94 103 99 105 110 89 77 73 72 66 62 63 64 79 92 117 108 102 107 106 124 152 168 170 170 178 184 176 
63 63 65 69 73 73 69 80 84 88 77 84 88 77 87 102 103 104 103 99 92 92 87 94 103 99 79 72 72 85 99 96 84 80 80 84 96 104 103 94 96 88 77 81 64 63 63 63 64 79 101 111 114 107 116 128 144 155 165 170 170 171 178 176 
56 52 57 63 69 73 72 79 68 72 72 72 76 76 73 84 102 114 108 112 101 102 92 96 99 96 93 80 76 79 85 81 77 73 84 80 88 89 83 89 96 76 81 88 77 77 76 71 59 66 85 107 128 126 127 134 152 159 165 170 171 171 177 170 
52 52 56 60 72 72 72 72 72 67 67 57 71 64 63 65 87 89 104 110 101 98 96 96 102 96 92 86 93 96 94 84 73 73 69 73 72 79 75 73 75 65 72 73 72 88 73 73 68 64 76 116 153 155 152 155 155 168 170 170 177 176 167 167 
46 52 56 60 67 63 57 63 57 57 59 56 57 60 57 57 63 69 80 86 89 98 98 102 98 102 96 89 91 100 90 81 72 67 63 63 63 68 73 64 59 60 65 59 54 50 56 63 73 79 86 127 159 165 167 167 165 170 170 170 167 164 160 155 
43 43 52 57 57 57 56 56 56 56 52 56 57 57 57 56 57 63 65 73 86 92 98 98 98 92 93 91 88 88 81 72 67 56 57 57 63 67 71 71 57 57 65 56 34 34 33 42 72 93 106 138 159 165 161 167 173 173 170 173 158 160 154 148 
46 46 56 57 56 56 52 52 52 52 56 52 52 56 52 52 52 56 57 65 69 84 89 92 89 89 87 81 76 69 72 71 60 56 56 57 57 63 67 56 56 56 57 63 52 39 39 43 62 92 115 138 159 165 167 167 173 170 176 167 164 155 142 138 
56 52 56 52 52 52 52 46 46 52 46 46 43 43 46 52 52 52 56 56 56 57 65 69 72 72 67 71 71 67 60 60 57 57 56 56 57 57 57 56 52 52 56 57 57 59 56 56 56 76 115 144 159 159 167 167 167 167 167 167 160 142 138 128 
56 56 52 46 52 52 52 52 52 46 46 46 46 46 52 52 46 46 46 50 50 56 52 52 56 59 59 59 71 60 63 63 63 57 57 57 63 57 57 63 63 57 57 56 46 52 56 63 73 95 127 148 159 165 167 167 167 167 161 158 149 148 132 127 
