P2 64 64 255
193 193 188 189 189 182 177 189 189 189 191 189 193 193 193 193 193 193 193 193 188 188 193 193 193 193 188 188 193 193 190 190 190 190 193 190 189 189 189 189 189 189 189 189 189 189 189 189 189 189 189 189 189 189 189 189 189 189 189 189 189 189 189 189 
193 193 188 189 191 180 179 189 189 189 191 191 193 193 193 193 193 193 193 193 188 188 193 193 193 193 188 185 193 193 190 190 190 190 193 190 189 189 189 189 189 189 189 189 189 189 189 189 189 189 189 189 189 189 189 189 189 189 189 189 189 189 189 189 
193 193 189 191 185 139 110 136 168 180 189 189 189 193 188 193 188 188 193 193 188 188 188 193 193 193 188 188 190 190 190 190 190 190 190 190 189 189 189 189 189 189 189 189 184 189 189 189 189 189 189 189 189 189 189 189 189 189 189 189 189 189 189 189 
188 188 191 192 140 70 44 65 94 136 180 193 189 189 189 193 188 188 188 188 188 188 193 188 188 193 188 185 190 190 190 190 190 190 189 189 189 189 189 189 189 189 184 189 184 184 189 189 189 189 189 189 189 189 189 189 189 184 189 189 189 189 189 189 
185 188 196 157 80 50 50 56 51 76 136 180 189 188 189 189 189 188 188 188 188 188 193 188 188 188 190 185 190 193 190 190 190 190 190 190 189 189 189 189 189 189 184 189 184 184 189 189 189 189 189 189 189 190 193 193 193 189 188 190 189 189 189 184 
185 185 202 132 49 56 57 56 59 45 59 126 167 193 189 189 189 189 188 193 188 193 193 188 193 188 190 185 193 193 190 190 190 190 190 190 190 185 184 189 189 189 189 189 184 189 189 189 189 189 184 189 189 189 194 200 201 196 194 179 175 172 172 184 
185 185 199 125 49 61 70 70 59 47 41 57 115 177 189 189 188 189 188 188 188 188 188 193 188 193 193 185 193 190 190 190 185 185 190 190 190 185 184 189 189 184 189 189 189 189 189 189 189 189 184 185 189 197 204 205 205 205 172 119 90 79 93 141 
184 184 199 125 49 73 82 74 70 57 56 41 64 138 180 188 188 189 188 188 188 188 188 189 188 188 193 193 190 193 190 190 185 188 188 188 190 185 190 190 189 184 189 184 189 189 189 184 184 184 189 196 202 211 217 208 190 149 101 44 21 19 9 97 
175 175 188 118 53 79 99 82 77 61 57 56 49 77 138 177 189 189 188 188 188 188 188 188 188 188 193 193 188 188 193 193 188 188 188 188 185 188 185 190 193 185 184 184 189 189 184 184 184 191 205 210 214 222 213 165 108 67 49 49 41 26 9 93 
175 175 165 99 57 86 111 101 91 77 61 57 51 50 69 138 180 188 189 189 188 188 188 188 188 188 188 188 188 185 188 188 188 188 185 188 188 188 188 188 185 190 185 184 184 184 184 184 191 208 217 219 222 201 157 87 43 43 47 53 47 38 13 97 
185 185 128 62 70 98 127 122 107 91 73 64 60 51 49 70 133 167 189 189 189 188 188 189 189 188 188 188 188 188 188 188 188 185 188 185 188 193 188 188 188 185 188 185 185 185 185 185 197 214 222 213 191 135 78 43 47 43 53 66 74 49 26 90 
176 185 104 44 78 98 128 140 120 103 82 70 57 51 44 39 59 127 177 189 189 188 188 188 188 188 188 188 188 188 188 188 188 188 185 188 188 188 185 188 188 188 185 185 188 185 188 189 204 217 213 165 100 57 38 43 43 53 62 78 96 65 32 86 
175 175 102 48 79 98 119 153 154 126 116 91 64 51 46 43 33 68 153 180 189 188 188 188 188 188 188 188 188 185 188 188 188 188 185 188 188 185 185 188 188 188 188 185 188 189 180 202 206 210 161 78 42 38 42 43 49 53 64 96 100 79 44 84 
173 173 97 45 80 98 131 163 177 164 126 105 74 60 46 44 43 53 106 172 184 179 188 188 188 179 188 188 188 188 188 188 188 188 188 188 188 188 188 188 188 188 185 189 197 208 199 205 176 131 81 43 42 47 49 43 49 62 83 103 111 81 49 52 
176 176 94 40 89 98 117 165 198 193 168 131 109 79 60 46 46 50 72 108 152 179 176 179 188 188 188 188 188 188 188 188 188 188 188 188 189 188 188 188 188 188 176 197 205 210 201 157 96 53 42 42 42 53 62 62 62 81 94 103 111 84 49 34 
176 185 93 49 89 103 113 149 172 195 195 177 156 118 73 49 46 44 44 57 79 99 101 130 164 167 176 176 167 162 152 136 157 176 176 180 180 188 179 188 188 176 179 195 210 187 132 67 42 42 43 43 49 67 88 96 93 94 94 97 100 70 49 38 
185 185 111 59 86 99 116 133 137 156 162 177 158 118 77 51 46 44 44 43 38 34 21 53 78 97 90 83 90 77 62 62 73 83 101 121 145 176 176 176 162 145 151 158 142 100 53 42 42 43 43 47 57 87 121 145 149 130 106 108 102 70 51 45 
185 185 141 73 78 101 118 135 135 133 154 176 140 93 65 51 46 44 43 42 42 34 25 21 26 20 8 13 13 13 19 22 19 7 19 32 63 112 145 136 97 68 83 91 49 38 42 38 43 42 43 62 79 104 157 181 183 157 118 108 98 60 44 40 
185 185 149 81 64 103 110 138 162 168 177 162 118 73 62 54 44 43 43 38 42 42 33 25 25 23 21 20 20 20 39 51 26 15 13 15 13 37 68 68 28 28 39 41 38 42 38 42 42 38 47 70 94 137 159 179 181 147 118 100 86 45 31 37 
176 176 152 84 85 91 80 114 159 165 159 122 70 60 60 57 44 42 42 38 38 42 34 29 33 33 36 40 43 39 56 61 52 49 40 30 23 21 26 33 35 38 34 34 36 36 38 38 42 49 55 84 111 132 149 155 155 143 121 100 79 53 25 23 
188 179 157 101 88 85 70 99 140 152 122 89 60 60 57 60 44 42 42 38 38 38 36 34 33 35 43 52 53 43 53 44 53 66 54 41 33 36 39 38 38 38 34 30 33 34 34 36 42 55 80 114 119 118 137 130 137 130 124 102 73 43 34 23 
188 185 152 80 70 82 85 111 156 152 107 64 61 61 64 51 44 43 38 38 38 34 33 30 29 33 49 56 52 39 33 33 39 53 53 44 44 43 35 38 36 36 34 30 33 33 33 34 38 43 62 108 121 117 127 132 127 127 114 86 55 43 23 23 
185 185 136 70 45 58 82 111 138 122 104 82 59 59 56 44 49 49 42 38 34 30 29 28 28 28 40 52 43 33 28 25 40 64 44 44 53 41 41 38 30 33 33 30 30 33 33 33 34 41 47 64 97 111 121 125 114 111 100 67 47 40 25 25 
185 185 149 63 30 47 57 85 111 98 81 66 55 49 43 42 47 43 38 36 34 30 29 29 29 29 28 33 35 29 29 35 53 70 49 41 41 41 33 29 30 30 33 33 34 34 34 34 36 41 43 49 67 100 121 101 81 70 87 78 57 47 32 23 
185 188 159 80 32 47 56 74 101 111 81 47 36 42 42 42 38 42 36 36 34 33 29 29 29 29 28 28 29 29 29 41 58 61 49 39 35 33 29 29 30 33 33 33 36 36 38 34 36 36 38 41 58 85 106 93 70 58 79 87 58 50 22 31 
179 179 179 118 47 49 61 82 89 100 83 41 34 36 42 38 42 38 36 34 34 30 29 29 29 28 25 28 29 29 29 35 43 40 36 33 29 29 29 30 34 33 33 34 36 42 38 36 38 38 35 52 67 82 100 101 96 68 59 66 57 43 31 22 
176 176 185 121 47 44 60 70 67 53 49 36 36 36 42 42 38 38 38 36 34 34 30 29 29 28 25 28 29 29 29 35 39 33 28 29 29 29 29 33 33 33 33 34 34 36 36 34 36 34 35 52 79 99 112 116 97 73 49 53 48 43 34 32 
185 185 179 97 19 38 49 46 43 38 36 36 38 42 42 43 43 43 38 38 34 36 34 29 29 28 25 28 29 29 29 30 35 29 29 30 33 33 33 34 33 33 33 36 34 34 34 33 30 30 30 43 90 110 117 88 79 58 47 55 48 34 39 34 
176 176 179 97 10 29 38 43 43 38 38 42 43 42 42 44 46 46 42 33 33 36 34 29 29 28 25 29 35 35 30 34 39 35 30 34 42 42 38 34 33 33 33 36 36 36 36 33 30 34 33 44 79 93 105 79 53 50 55 57 54 36 28 34 
176 179 173 87 15 34 41 49 53 55 49 50 44 46 44 49 44 38 33 29 34 38 34 29 29 29 29 29 29 35 33 36 38 35 30 38 49 46 42 34 33 33 34 34 34 36 34 34 34 34 34 38 56 82 98 81 58 50 55 49 53 45 39 37 
173 176 157 74 25 38 54 62 67 70 56 51 49 49 49 50 42 33 29 25 34 43 33 30 30 29 30 30 30 29 33 38 30 28 30 42 49 50 42 33 33 33 36 36 34 34 34 36 36 38 35 41 41 70 88 66 49 50 53 45 43 43 37 39 
128 136 94 43 30 41 49 51 53 59 57 46 46 43 36 43 42 30 30 30 38 42 34 33 33 30 34 33 29 29 34 42 33 28 29 42 49 49 43 36 36 36 38 36 36 34 34 34 36 39 39 39 35 41 49 43 38 49 51 44 49 31 34 65 
62 62 36 18 33 43 55 57 47 49 44 42 34 30 30 28 33 36 38 38 42 38 36 38 36 34 36 34 33 33 34 42 34 29 30 42 44 38 36 34 36 38 43 43 36 34 36 34 36 39 41 43 47 45 41 36 34 44 45 43 38 39 44 101 
19 19 13 30 38 47 49 53 47 38 42 34 33 35 35 25 28 36 42 46 43 36 38 42 38 38 38 36 34 34 36 38 38 34 36 33 28 21 21 21 25 30 36 43 42 36 38 36 36 39 41 47 51 51 45 41 39 44 44 43 38 37 63 127 
13 13 20 30 38 41 48 44 39 43 43 43 43 43 39 23 23 33 42 49 49 42 38 43 42 38 38 34 33 33 34 42 43 33 25 23 19 16 19 21 21 25 29 33 38 38 38 38 36 41 45 45 45 49 62 47 47 47 48 48 43 41 77 152 
8 8 19 33 36 44 44 44 43 44 46 50 47 43 38 16 23 36 44 49 49 43 42 43 43 42 36 33 30 33 36 44 44 25 10 21 28 23 23 23 25 28 25 28 34 47 43 43 43 49 49 44 45 57 58 51 47 53 60 49 45 59 115 176 
8 10 19 33 36 44 54 54 49 54 49 44 47 43 41 24 29 43 44 49 49 43 42 43 42 42 38 33 30 30 38 46 38 23 16 28 28 16 15 23 29 33 33 33 34 38 44 48 45 45 41 41 41 45 48 44 44 44 49 51 44 71 136 179 
15 15 21 30 34 44 57 62 64 57 56 50 43 43 78 105 83 59 54 49 46 44 42 42 42 42 38 36 34 34 43 49 33 23 28 36 29 8 10 23 34 42 42 43 38 35 41 41 41 33 36 38 43 41 35 35 35 35 48 51 45 86 159 180 
26 27 28 30 30 44 57 62 54 57 61 51 49 47 114 191 149 103 93 78 47 43 43 38 43 43 42 38 38 38 44 43 25 25 36 42 30 21 23 30 42 42 50 60 49 41 43 35 36 38 47 38 40 39 35 28 29 41 41 41 48 107 170 182 
38 38 36 29 30 38 47 57 58 57 51 57 57 57 102 184 157 124 143 143 89 49 43 42 42 44 42 34 33 33 33 30 25 25 29 34 42 38 36 38 47 72 116 134 94 57 48 41 52 61 61 49 40 39 35 28 28 36 43 40 45 103 176 194 
49 49 49 35 30 33 43 58 54 54 45 48 62 64 89 154 161 123 151 193 161 98 43 42 42 43 38 30 25 25 25 25 29 25 21 30 43 44 73 96 97 116 168 196 141 67 52 36 40 49 49 38 36 33 29 30 28 33 40 39 45 97 174 187 
53 53 56 41 35 38 43 49 58 41 38 30 44 58 74 98 123 141 166 196 188 126 53 38 43 42 36 29 25 25 23 23 29 34 36 42 50 89 152 172 155 124 157 193 135 53 36 40 43 33 30 30 25 25 29 30 29 33 43 44 41 95 167 193 
36 36 40 45 41 39 47 58 66 49 30 30 29 35 45 44 65 93 117 143 127 103 78 38 42 36 30 28 25 25 23 21 29 38 42 38 47 121 193 190 157 137 156 138 83 61 40 39 44 41 29 28 25 25 28 28 33 36 36 40 44 86 163 193 
30 30 33 48 49 57 56 59 70 53 39 33 29 30 30 34 33 29 43 70 69 64 60 36 33 29 25 23 25 25 25 25 29 30 30 29 44 84 143 184 167 166 138 70 61 67 49 41 44 44 29 28 25 25 25 25 36 34 38 38 43 93 161 193 
29 29 33 47 53 58 67 58 56 55 47 36 36 33 30 38 38 33 35 39 38 41 34 33 29 23 21 25 28 28 29 30 30 30 30 30 43 43 73 112 105 119 95 58 54 45 41 35 44 35 29 28 25 21 23 25 34 36 36 38 44 109 182 202 
30 33 34 43 53 70 70 58 56 55 42 42 42 33 33 42 42 34 30 29 38 41 39 33 29 23 21 28 30 30 33 33 30 30 33 35 39 43 52 41 35 44 48 48 39 36 41 48 41 38 29 29 25 23 23 34 50 47 34 38 58 123 198 217 
33 33 34 38 47 58 68 68 73 59 44 42 38 34 33 43 42 34 33 29 35 39 33 30 29 25 25 30 36 36 38 36 30 28 28 29 41 56 43 35 38 38 33 33 33 44 48 48 38 33 30 30 29 25 28 38 66 64 45 49 70 140 203 214 
33 33 34 38 42 42 53 66 72 61 57 50 44 43 38 44 49 43 34 28 29 30 29 25 25 23 30 43 44 44 43 36 30 25 23 28 53 53 29 29 33 34 34 39 58 62 49 45 36 33 33 30 30 29 28 52 82 83 64 52 88 158 202 210 
38 38 38 43 43 43 49 49 50 60 64 62 49 46 46 50 62 62 46 39 44 41 30 21 28 34 44 49 49 49 43 38 36 30 29 35 48 45 34 34 36 36 36 39 60 64 47 41 39 44 35 29 28 25 36 61 97 97 72 65 112 188 202 211 
42 42 42 42 42 43 44 43 44 49 54 56 56 49 50 62 74 87 92 85 70 56 44 33 43 56 56 53 50 50 44 42 42 38 36 43 66 64 57 43 38 38 34 39 48 48 38 35 41 41 35 33 28 30 53 72 105 119 84 84 143 202 214 211 
42 42 42 38 38 38 38 36 38 44 46 49 53 64 71 85 95 104 104 95 73 56 48 51 50 56 56 50 50 49 46 42 38 43 42 59 72 81 74 70 64 47 45 57 54 35 35 41 35 41 41 41 35 44 65 75 105 121 110 119 167 202 214 214 
34 34 36 38 42 42 42 42 43 46 50 50 56 58 80 92 92 85 92 85 68 41 41 46 50 56 53 53 53 53 50 46 44 44 56 68 67 78 72 66 70 62 51 53 44 35 35 35 41 44 53 43 52 64 73 82 97 121 141 151 179 205 214 211 
28 28 33 36 42 44 46 46 46 46 51 60 65 62 68 80 71 81 89 79 56 30 34 50 46 50 53 50 53 58 50 50 54 57 61 68 58 67 58 49 47 55 50 38 33 29 35 35 41 53 43 52 52 65 73 97 103 117 153 177 189 214 214 211 
25 28 34 42 38 46 46 44 44 46 50 64 64 60 62 62 68 74 74 72 47 28 29 33 43 61 74 73 73 73 60 49 51 56 56 67 67 73 72 53 47 42 36 34 35 41 39 45 45 45 44 58 58 65 75 98 119 137 166 189 198 211 214 210 
29 29 34 43 42 38 42 38 44 46 44 44 44 50 61 64 59 58 62 62 47 34 39 38 41 62 70 72 73 74 57 51 50 49 38 47 58 68 67 67 57 42 39 41 54 53 44 57 49 44 57 62 76 74 88 88 112 152 189 196 202 202 214 210 
30 33 34 38 36 36 38 43 44 44 43 47 47 53 68 74 57 62 74 57 56 44 49 57 53 58 62 57 55 58 59 59 56 43 38 43 58 72 70 70 64 46 43 48 53 44 43 41 41 57 67 96 94 99 110 114 135 174 198 201 201 205 214 210 
33 33 34 36 38 38 36 42 43 53 43 47 53 43 49 68 72 78 72 61 51 51 49 58 72 70 51 41 41 60 70 66 47 42 42 47 66 78 72 58 59 53 43 49 41 41 41 41 41 57 89 104 109 106 119 141 166 182 196 201 201 202 205 210 
29 28 30 33 36 38 41 51 39 45 41 41 47 47 38 47 68 74 65 68 56 60 51 57 61 59 56 42 47 51 60 49 43 38 43 42 53 62 53 62 66 47 49 53 43 43 47 44 35 44 73 106 137 133 137 151 177 187 196 201 202 202 211 201 
28 28 29 35 41 41 41 45 45 38 38 30 44 41 33 34 49 50 64 64 56 54 57 57 60 57 51 44 56 59 58 47 38 38 36 38 41 51 49 48 49 34 45 48 45 53 38 38 39 41 58 119 175 179 177 182 182 198 201 201 211 210 199 205 
25 28 33 35 38 33 30 33 30 30 35 29 30 35 30 30 33 36 42 44 46 54 54 60 54 60 57 50 55 67 57 49 41 38 33 33 33 39 48 41 35 35 34 35 36 30 33 41 48 57 74 137 184 196 199 199 196 201 201 201 199 204 202 199 
23 23 28 30 30 30 29 29 29 29 28 29 30 30 30 29 30 33 34 38 44 51 54 54 54 51 56 55 53 53 49 45 38 29 30 30 33 38 44 44 30 30 34 29 19 19 21 30 53 78 105 152 187 196 196 199 208 208 201 208 195 202 193 196 
25 25 29 30 29 29 28 28 28 28 29 28 28 29 28 28 28 29 30 34 36 43 50 51 50 50 49 49 47 36 41 44 35 29 29 30 30 33 38 29 29 29 30 33 28 21 21 26 49 84 119 156 193 196 199 199 208 201 210 199 204 199 187 191 
29 28 29 28 28 28 28 25 25 28 25 25 23 23 25 28 28 28 29 29 29 30 34 36 41 41 38 44 44 38 35 35 30 30 29 29 30 30 30 29 28 28 29 30 30 35 33 33 40 70 119 166 187 193 199 199 199 199 199 205 202 187 191 180 
29 29 28 25 28 28 28 28 28 25 25 25 25 25 28 28 25 25 25 30 30 33 28 28 33 35 35 35 44 35 33 33 33 30 30 30 33 30 30 33 33 30 30 29 25 28 33 41 54 88 137 167 184 196 199 199 199 199 196 195 190 196 182 185 
