P2 64 64 255
250 250 244 244 244 232 228 244 244 244 244 244 250 250 250 250 250 250 250 250 244 244 250 250 250 250 244 244 250 250 250 250 250 250 250 250 250 250 250 250 250 250 250 250 250 250 250 250 250 250 250 250 250 250 250 250 250 250 250 250 250 250 250 250 
250 250 244 244 244 232 228 244 244 244 244 244 250 250 250 250 250 250 250 250 244 244 250 250 250 250 244 244 250 250 250 250 250 250 250 250 250 250 250 250 250 250 250 250 250 250 250 250 250 250 250 250 250 250 250 250 250 250 250 250 250 250 250 250 
250 250 244 244 228 167 128 167 216 232 244 244 244 250 244 250 244 244 250 250 244 244 244 250 250 250 244 244 250 250 250 250 250 250 250 250 250 250 250 250 250 250 250 250 244 250 250 250 250 250 250 250 250 250 250 250 250 250 250 250 250 250 250 250 
244 244 244 228 146 51 18 51 104 174 232 250 244 244 244 250 244 244 244 244 244 244 250 244 244 250 244 244 250 250 250 250 250 250 250 250 250 250 250 250 250 250 244 250 244 244 250 250 250 250 250 250 250 250 250 250 250 244 250 250 250 250 250 250 
244 244 244 167 51 10 10 18 23 76 167 232 244 244 244 244 244 244 244 244 244 244 250 244 244 244 250 244 250 250 250 250 250 250 250 250 250 250 250 250 250 250 244 250 244 244 250 250 250 250 250 250 250 250 250 250 250 244 244 250 250 250 250 244 
244 244 244 128 10 18 18 18 23 23 60 154 216 250 244 244 244 244 244 250 244 250 250 244 250 244 250 244 250 250 250 250 250 250 250 250 250 244 244 250 250 250 250 250 244 250 250 250 250 250 244 250 250 244 244 250 250 244 244 232 232 228 228 244 
244 244 244 122 10 23 35 35 23 18 18 51 146 228 244 244 244 244 244 244 244 244 244 250 244 250 250 244 250 250 250 250 244 244 250 250 250 244 244 250 250 244 250 250 250 250 250 250 250 250 244 244 244 244 244 244 244 244 202 141 113 104 122 187 
244 244 244 122 10 41 51 41 35 18 18 10 51 162 232 244 244 244 244 244 244 244 244 244 244 244 250 250 250 250 250 250 244 244 244 244 250 244 250 250 250 244 250 244 250 250 250 244 244 244 244 244 244 244 244 232 209 154 90 23 10 18 10 128 
232 232 232 113 18 51 76 51 41 23 18 18 10 60 162 228 244 244 244 244 244 244 244 244 244 244 250 250 244 244 250 250 244 244 244 244 244 244 244 250 250 244 244 244 250 250 244 244 244 244 244 244 244 244 232 167 96 41 18 18 18 18 10 122 
232 232 202 90 23 60 90 76 60 41 23 18 10 10 51 162 232 244 244 244 244 244 244 244 244 244 244 244 244 244 244 244 244 244 244 244 244 244 244 244 244 250 244 244 244 244 244 244 244 244 244 244 244 216 162 63 10 10 10 18 18 23 10 122 
244 244 154 41 41 76 113 104 81 60 35 23 18 10 10 63 167 216 244 244 244 244 244 244 244 244 244 244 244 244 244 244 244 244 244 244 244 250 244 244 244 244 244 244 244 244 244 244 244 244 244 232 202 128 51 10 10 10 18 35 51 35 18 113 
232 244 122 18 51 76 113 128 96 76 51 35 18 10 3 10 60 162 228 244 244 244 244 244 244 244 244 244 244 244 244 244 244 244 244 244 244 244 244 244 244 244 244 244 244 244 244 244 244 244 232 167 81 23 3 10 10 18 35 51 76 51 18 104 
232 232 122 23 51 76 104 146 141 104 90 60 23 10 3 3 3 63 187 232 244 244 244 244 244 244 244 244 244 244 244 244 244 244 244 244 244 244 244 244 244 244 244 244 244 244 232 244 232 228 162 51 3 3 3 10 18 23 41 76 81 60 18 90 
228 228 122 23 51 76 122 162 174 154 104 76 35 18 3 3 3 18 104 202 228 232 244 244 244 232 244 244 244 244 244 244 244 244 244 244 244 244 244 244 244 244 244 244 244 244 232 232 187 122 60 3 3 10 18 10 18 35 63 90 96 60 18 41 
232 232 122 23 60 76 104 167 209 196 162 113 81 41 18 3 3 10 41 96 167 228 228 232 244 244 244 244 244 244 244 244 244 244 244 244 244 244 244 244 244 244 232 244 232 232 216 162 76 18 3 3 3 18 35 35 35 60 81 90 96 60 18 18 
232 244 122 35 60 81 96 146 174 202 202 174 146 96 35 3 3 3 3 18 63 113 128 167 216 216 228 228 216 209 196 174 202 228 228 232 232 244 232 244 244 232 232 232 232 202 128 41 3 3 3 3 10 35 63 76 76 81 81 81 81 41 18 23 
244 244 146 51 60 76 96 122 128 146 154 174 146 96 41 10 3 3 3 3 3 18 18 60 96 122 113 104 113 96 76 76 90 104 128 154 187 228 228 228 209 187 187 174 141 81 23 3 3 3 3 10 23 63 113 146 154 128 96 96 81 41 23 35 
244 244 187 76 51 76 96 122 122 113 141 167 122 60 23 10 3 3 3 3 3 3 3 3 10 10 3 10 10 10 18 23 18 3 18 35 76 141 187 174 122 76 81 76 18 3 3 3 3 3 10 35 60 96 167 196 202 167 113 96 76 35 23 35 
244 244 196 90 41 81 90 122 154 162 174 154 96 35 18 10 3 3 3 3 3 3 3 3 3 3 10 10 10 10 35 51 18 3 3 3 3 35 76 76 23 10 10 10 3 3 3 3 3 3 18 51 81 141 167 196 196 154 113 81 60 23 23 35 
232 232 196 104 76 63 51 96 154 162 154 104 35 18 18 18 3 3 3 3 3 3 3 3 10 10 18 23 23 18 41 51 35 35 23 10 3 3 10 10 10 10 3 3 3 3 3 3 3 10 18 60 96 128 154 162 162 146 113 81 51 35 23 23 
244 232 202 128 81 51 35 76 128 141 104 60 18 18 18 18 3 3 3 3 3 3 3 3 3 10 23 35 35 23 35 23 35 51 35 18 10 18 18 10 3 3 3 3 3 3 3 3 3 18 51 96 104 113 141 128 141 128 113 81 41 23 35 23 
244 244 196 104 63 51 51 90 146 141 81 23 23 23 23 10 3 3 3 3 3 3 3 3 3 10 35 41 35 18 10 10 18 35 35 23 23 23 10 10 3 3 3 3 3 3 3 3 3 10 35 96 113 104 122 128 122 122 104 60 18 23 23 23 
244 244 174 90 35 23 51 90 122 104 81 51 23 23 18 3 10 10 3 3 3 3 3 3 3 3 23 35 23 10 3 3 23 51 23 23 35 18 18 10 3 3 3 3 3 3 3 3 3 10 18 41 81 96 113 122 104 96 81 35 10 23 23 23 
244 244 196 81 18 10 18 51 90 76 60 35 18 10 3 3 10 10 3 3 3 3 3 3 3 3 3 10 10 3 3 10 35 60 35 18 18 18 10 3 3 3 3 3 3 3 3 3 3 10 10 18 41 81 113 90 60 41 63 51 23 35 35 23 
244 244 209 104 18 10 18 41 76 96 60 18 3 3 3 3 3 3 3 3 3 3 3 3 3 3 3 3 3 3 3 18 41 51 35 18 10 10 3 3 3 3 3 3 3 3 3 3 3 3 10 18 41 76 96 76 41 23 51 63 35 41 23 35 
232 232 232 154 35 10 23 51 63 81 63 10 3 3 3 3 3 3 3 3 3 3 3 3 3 3 3 3 3 3 3 10 23 23 18 10 3 3 3 3 3 3 3 3 3 3 3 3 3 3 10 35 60 81 96 90 76 35 23 35 35 35 35 23 
232 232 244 154 35 3 18 35 35 23 18 3 3 3 3 3 3 3 3 3 3 3 3 3 3 3 3 3 3 3 3 10 18 10 3 3 3 3 3 3 3 3 3 3 3 3 3 3 3 3 10 35 76 104 113 113 81 41 10 18 23 35 35 35 
244 244 232 122 3 3 3 3 3 3 3 3 3 3 3 3 3 3 3 3 3 3 3 3 3 3 3 3 3 3 3 3 10 3 3 3 3 3 3 3 3 3 3 3 3 3 3 3 3 3 3 23 90 122 122 81 60 23 10 18 23 23 35 35 
232 232 232 122 3 3 3 3 3 3 3 3 3 3 3 3 3 3 3 3 3 3 3 3 3 3 3 3 10 10 3 3 10 10 3 3 3 3 3 3 3 3 3 3 3 3 3 3 3 3 3 23 76 96 104 63 23 10 18 23 35 23 23 35 
232 232 228 113 10 18 18 23 23 18 10 10 3 3 3 3 3 3 3 3 3 3 3 3 3 3 3 3 3 10 3 3 10 10 3 3 3 3 3 3 3 3 3 3 3 3 3 3 3 3 3 10 41 81 90 60 23 10 18 23 35 35 35 35 
228 232 202 96 23 23 35 41 41 41 18 10 3 3 3 3 3 3 3 3 3 3 3 3 3 3 3 3 3 3 3 3 3 3 3 3 3 3 3 3 3 3 3 3 3 3 3 3 3 10 10 10 18 63 76 35 10 10 23 23 23 35 35 41 
167 174 122 51 23 18 23 23 23 23 18 3 3 3 3 3 3 3 3 3 3 3 3 3 3 3 3 3 3 3 3 3 3 3 3 3 3 3 3 3 3 3 3 3 3 3 3 3 3 10 10 10 10 18 23 10 3 18 23 23 35 23 35 76 
76 76 41 10 10 10 18 23 10 10 3 3 3 3 10 3 3 3 3 3 3 3 3 3 3 3 3 3 3 3 3 3 3 3 3 3 3 3 3 3 3 3 3 3 3 3 3 3 3 10 10 10 18 18 10 3 3 18 23 23 23 35 51 128 
18 18 10 10 3 10 18 23 18 3 3 3 3 10 10 3 3 3 3 3 3 3 3 3 3 3 3 3 3 3 3 3 3 3 3 3 3 3 3 3 3 3 3 3 3 3 3 3 3 10 10 18 23 23 18 10 10 18 23 23 23 35 76 162 
10 10 10 3 3 10 23 18 10 3 3 3 10 10 10 3 3 3 3 3 3 3 3 3 3 3 3 3 3 3 3 3 3 3 3 3 3 3 3 3 3 3 3 3 3 3 3 3 3 10 18 23 23 23 35 18 18 18 23 23 23 41 96 196 
3 3 3 3 3 18 23 23 10 3 3 10 10 10 10 3 3 3 3 3 3 3 3 3 3 3 3 3 3 3 3 3 3 3 3 3 3 3 3 3 3 3 3 3 3 10 10 10 10 18 23 23 23 35 35 23 18 23 35 23 23 60 146 228 
3 3 3 3 3 18 35 35 18 10 3 3 10 10 18 10 3 3 3 3 3 3 3 3 3 3 3 3 3 3 3 3 3 3 3 3 3 3 3 3 3 3 3 3 3 10 18 23 18 18 18 18 18 23 23 18 18 18 23 23 23 81 174 232 
10 10 3 3 3 18 35 41 41 18 10 10 10 10 63 104 63 23 10 3 3 3 3 3 3 3 3 3 3 3 3 3 3 3 3 3 3 3 3 3 3 3 3 3 3 10 18 18 18 10 18 23 23 18 10 10 10 10 23 23 23 96 202 232 
18 18 10 3 3 18 35 41 35 23 23 10 10 10 104 202 146 90 76 51 10 3 3 3 3 3 3 3 3 3 3 3 3 3 3 3 3 3 3 3 3 3 10 18 10 10 10 10 18 23 35 23 23 18 10 3 3 18 18 18 23 113 209 232 
23 23 18 3 3 10 18 35 41 35 23 23 23 23 81 187 162 128 154 154 76 10 3 3 3 3 3 3 3 3 3 3 3 3 3 3 3 3 3 3 10 41 96 122 81 35 23 18 35 51 51 35 23 18 10 3 3 18 23 23 23 104 209 244 
35 35 35 10 3 3 10 35 35 35 18 23 41 41 60 141 162 128 167 228 174 76 10 3 3 3 3 3 3 3 3 3 3 3 3 3 3 3 41 76 81 96 162 216 154 60 35 18 23 35 35 23 18 10 3 3 3 10 23 18 23 96 202 232 
41 41 41 18 10 10 10 18 35 18 10 3 18 35 51 76 122 154 187 228 209 113 18 3 3 3 3 3 3 3 3 3 3 3 3 3 10 63 146 174 154 113 162 216 146 41 18 23 23 10 10 10 3 3 3 3 3 10 23 23 18 90 187 232 
18 18 23 23 18 10 10 23 35 23 3 3 3 10 23 18 51 90 122 154 128 90 51 3 3 3 3 3 3 3 3 3 3 3 3 3 18 113 209 209 167 146 174 154 81 51 23 18 23 18 3 3 3 3 3 3 10 18 18 23 23 81 187 232 
10 10 10 23 23 23 18 23 35 18 10 3 3 3 3 3 3 3 23 63 51 41 35 3 3 3 3 3 3 3 3 3 3 3 3 3 23 76 154 209 187 187 154 63 51 60 35 18 18 18 3 3 3 3 3 3 18 18 23 23 23 90 187 232 
3 3 3 18 23 23 35 23 18 18 10 3 3 3 3 3 3 3 10 18 10 10 3 3 3 3 3 3 3 3 3 3 3 3 3 3 23 23 63 113 104 122 90 41 35 23 18 10 18 10 3 3 3 3 3 3 18 23 23 23 23 104 202 232 
3 3 3 10 18 41 41 23 18 18 3 3 3 3 3 3 3 3 3 3 10 10 10 3 3 3 3 3 3 3 3 3 3 3 3 10 18 23 35 18 10 18 23 23 10 3 10 23 18 10 3 3 3 3 3 18 41 41 23 23 41 122 216 244 
3 3 3 3 10 23 35 35 41 23 3 3 3 3 3 3 3 3 3 3 10 10 3 3 3 3 3 3 3 3 3 3 3 3 3 3 18 41 23 10 10 10 3 3 3 18 23 23 10 3 3 3 3 3 10 23 63 60 35 35 60 146 228 244 
3 3 3 3 3 3 18 35 41 23 18 10 3 3 3 3 3 3 3 3 3 3 3 3 3 3 3 3 3 3 3 3 3 3 3 3 35 35 3 3 3 3 3 10 35 41 23 18 3 3 3 3 3 3 10 41 81 81 51 35 81 174 232 244 
3 3 3 3 3 3 10 10 10 18 23 18 3 3 3 3 10 10 3 10 18 18 10 3 3 3 3 3 3 3 3 3 3 3 3 10 23 18 3 3 3 3 3 10 35 41 18 10 10 18 10 3 3 3 18 51 96 96 60 51 113 209 232 244 
3 3 3 3 3 3 3 3 3 3 10 10 10 3 3 10 23 41 51 41 41 41 23 3 3 3 3 3 3 3 3 3 3 3 3 10 35 41 23 10 3 3 3 10 23 23 10 10 18 18 10 10 3 10 35 60 104 122 76 76 154 228 244 244 
3 3 3 3 3 3 3 3 3 3 3 3 3 18 23 41 51 63 63 51 41 41 23 10 3 3 3 3 3 3 3 3 3 3 3 23 41 63 51 41 41 18 18 35 35 10 10 18 10 18 18 18 10 23 51 63 104 128 113 122 187 228 244 244 
3 3 3 3 3 3 3 3 3 3 3 3 3 10 35 51 51 41 51 41 35 18 10 3 3 3 3 3 3 3 3 3 3 3 18 35 35 51 41 35 41 35 23 23 18 10 10 10 18 23 35 23 35 51 63 76 96 128 154 167 202 232 244 244 
3 3 3 3 3 3 3 3 3 3 10 18 23 18 23 35 23 41 51 41 18 3 3 10 3 3 3 3 3 10 3 3 10 18 23 35 23 35 23 10 10 18 10 3 3 3 10 10 18 35 23 35 35 51 63 96 104 122 174 202 216 244 244 244 
3 3 3 3 3 3 3 3 3 3 10 23 23 18 18 18 23 35 41 41 18 3 3 3 10 23 35 35 35 35 18 3 10 18 18 35 35 41 41 18 10 3 3 3 10 18 18 23 18 23 23 41 41 51 63 90 122 146 187 216 228 244 244 244 
3 3 3 3 3 3 3 3 3 3 3 3 3 10 23 23 23 23 35 35 18 3 10 10 10 35 41 41 41 41 18 10 10 10 3 10 23 35 35 35 18 3 10 18 35 35 23 35 23 18 35 41 60 63 81 81 113 167 216 228 232 232 244 244 
3 3 3 3 3 3 3 3 3 3 3 10 10 18 35 41 23 41 51 23 18 3 10 23 23 35 41 23 18 23 23 23 18 3 3 10 23 41 41 35 18 3 10 23 35 23 23 18 18 35 41 76 81 96 113 122 146 196 228 232 232 232 244 244 
3 3 3 3 3 3 3 3 3 18 10 10 18 10 10 35 41 51 41 23 10 10 10 23 41 41 23 10 10 35 41 35 10 3 3 10 35 51 41 23 23 18 10 18 18 18 18 18 18 35 76 96 104 104 122 154 187 209 228 232 232 232 232 244 
3 3 3 3 3 3 10 23 10 18 10 10 18 18 3 10 35 35 23 23 10 18 10 18 23 23 18 3 18 23 35 18 10 3 3 3 18 35 23 35 35 18 18 18 10 10 18 18 10 23 60 104 146 141 146 167 202 216 228 232 232 232 244 232 
3 3 3 10 10 10 10 18 18 10 10 3 18 18 3 3 10 10 23 18 10 10 18 18 18 18 10 3 18 23 23 10 3 3 3 3 10 23 23 23 23 3 18 23 18 18 3 3 10 18 41 122 196 202 202 209 209 228 232 232 244 244 232 244 
3 3 10 10 10 3 3 3 3 3 10 3 3 10 3 3 3 3 3 3 3 10 10 18 10 18 18 10 18 35 23 18 10 10 3 3 3 10 23 18 10 10 3 10 18 10 10 18 23 35 63 146 209 228 232 232 228 232 232 232 232 244 244 244 
3 3 3 3 3 3 3 3 3 3 3 3 3 3 3 3 3 3 3 3 3 10 10 10 10 10 18 18 18 18 18 18 10 3 3 3 3 10 18 18 3 3 3 3 3 3 10 18 35 63 104 167 216 228 232 232 244 244 232 244 232 244 232 244 
3 3 3 3 3 3 3 3 3 3 3 3 3 3 3 3 3 3 3 3 3 3 10 10 10 10 10 18 18 3 10 18 10 3 3 3 3 3 10 3 3 3 3 3 3 3 3 10 35 76 122 174 228 228 232 232 244 232 244 232 244 244 232 244 
3 3 3 3 3 3 3 3 3 3 3 3 3 3 3 3 3 3 3 3 3 3 3 3 10 10 10 18 18 10 10 10 3 3 3 3 3 3 3 3 3 3 3 3 3 10 10 10 23 63 122 187 216 228 232 232 232 232 232 244 244 232 244 232 
3 3 3 3 3 3 3 3 3 3 3 3 3 3 3 3 3 3 3 10 10 10 3 3 10 10 10 10 18 10 3 3 3 3 3 3 3 3 3 3 3 3 3 3 3 3 10 18 35 81 146 187 209 228 232 232 232 232 232 232 232 244 232 244 
