P2
64 64
255
173 173 173 173 173 173 158 158 175 173 175 200 185 185 175 175 200 200 200 
200 185 200 200 200 175 173 173 173 185 200 200 200 185 200 200 185 173 158 
140 133 124 140 149 153 158 175 175 175 200 185 175 175 173 158 158 175 175 
173 173 158 158 175 158 153 173 173 173 173 173 173 158 173 173 173 175 185 
200 175 175 175 200 200 200 185 200 200 206 200 175 173 173 173 185 200 200 
185 200 200 200 185 173 158 149 124 133 133 149 153 158 175 175 175 200 185 
175 175 173 158 173 173 173 173 173 158 173 173 158 153 173 173 173 158 158 
149 149 149 149 153 173 185 200 175 175 175 200 200 200 200 175 200 200 185 
185 175 175 185 185 200 200 185 185 200 200 185 158 153 140 133 133 140 149 
153 173 175 185 185 175 185 175 173 173 173 158 173 158 158 158 158 153 153 
153 153 173 173 173 153 140 113 113 113 113 124 149 175 185 175 175 185 200 
200 200 185 175 185 185 175 200 185 185 200 175 185 175 175 175 185 200 173 
158 149 133 133 133 140 149 158 175 175 185 185 175 173 173 173 173 158 175 
173 153 140 133 133 113 124 133 149 158 158 173 153 124 113 124 113 100 110 
124 140 158 158 173 173 175 185 185 185 175 175 175 175 175 175 175 175 175 
175 173 173 158 173 173 153 153 149 133 124 124 140 149 153 173 173 173 173 
173 173 173 173 158 158 158 158 149 133 113 100 110 100 113 133 158 158 158 
153 133 133 140 140 124 110 98 100 124 133 149 158 158 158 158 158 158 153 149 
149 140 149 140 149 149 140 140 133 133 124 133 133 133 133 124 113 113 113 
113 133 149 158 158 158 158 158 158 158 158 149 140 133 133 133 133 124 133 
133 124 124 158 158 173 158 153 149 149 158 158 140 100 98 98 100 113 124 124 
124 113 110 100 98 86 86 77 77 64 86 77 64 77 64 64 64 64 64 77 86 98 77 64 64 
64 77 110 113 133 124 124 124 124 113 124 124 113 110 110 124 140 153 158 158 
149 140 158 173 153 158 175 173 158 175 175 153 124 100 98 98 100 86 77 64 48 
45 45 34 29 21 29 21 21 21 29 29 29 21 21 21 21 21 21 29 34 29 21 21 21 29 45 
64 64 64 64 48 64 77 98 100 100 100 110 124 149 173 173 175 173 149 153 149 
153 153 173 175 200 185 185 173 133 110 100 100 100 98 64 45 21 21 21 21 21 21 
5 21 5 21 21 29 21 21 21 5 5 21 21 21 21 5 5 5 5 21 21 29 34 29 21 29 45 77 98 
110 110 110 113 153 175 185 173 175 173 124 149 149 153 153 158 185 200 200 
200 185 153 113 113 113 113 100 98 64 29 5 21 21 21 21 21 5 5 21 21 29 29 21 
5 5 21 21 21 21 5 5 5 21 21 29 29 29 21 21 21 48 86 98 100 113 124 113 140 175 
200 200 173 173 153 98 153 153 153 158 158 185 200 200 200 200 175 140 113 113 
113 100 86 64 48 34 21 21 21 21 21 5 5 21 34 21 21 5 5 5 5 21 29 21 5 5 5 21 
29 29 29 21 21 21 48 98 100 98 100 113 124 133 153 185 200 200 185 175 149 64 
153 153 153 158 158 185 200 200 206 206 185 153 124 110 100 100 77 64 64 64 34 
21 29 29 21 21 21 29 34 21 5 5 5 5 5 21 21 29 21 5 5 21 29 29 21 21 29 48 86 
86 98 110 124 113 124 149 175 200 206 200 206 200 133 48 153 158 153 149 158 
185 200 220 220 220 200 175 158 124 100 98 64 64 64 64 64 34 34 34 34 29 21 21 
29 21 5 5 5 5 5 5 21 29 21 5 5 21 29 29 29 29 64 86 86 77 100 133 133 133 133 
153 200 206 206 220 206 173 100 34 153 153 149 149 153 175 200 200 220 220 206 
200 158 133 100 86 86 86 64 77 64 64 45 48 64 34 21 21 21 21 5 5 5 5 5 21 21 
21 5 21 21 29 29 34 34 48 77 64 64 86 110 113 133 149 158 173 200 206 220 206 
206 153 64 21 149 149 149 149 153 173 200 200 206 220 220 200 158 133 110 100 
100 110 110 98 77 64 64 64 64 29 5 5 21 5 5 5 5 5 5 21 21 21 5 29 34 34 34 45 
64 86 64 48 64 86 100 110 113 149 175 200 200 220 220 220 200 140 45 5 149 149 
153 153 153 158 185 200 220 220 206 200 185 153 149 140 124 113 110 77 64 34 
64 64 45 21 5 21 21 21 5 5 5 5 5 21 21 5 21 34 48 34 45 48 77 98 86 77 77 98 
110 113 113 133 175 220 220 237 220 220 200 110 29 5 153 153 153 153 153 153 
175 200 220 220 220 200 185 173 173 173 149 110 77 64 48 45 48 64 45 21 21 21 
34 21 21 5 5 21 21 21 21 5 21 34 45 34 45 48 64 86 110 110 113 124 124 133 124 
140 175 220 237 220 237 220 175 77 21 5 153 153 153 153 153 153 158 175 200 
220 200 200 175 173 173 173 140 110 64 64 77 77 86 86 64 29 21 34 45 29 21 5 21 
21 34 29 21 21 21 34 34 45 64 64 45 64 86 110 133 149 158 158 149 149 175 200 
206 220 220 206 149 64 5 5 153 153 153 153 153 153 158 158 200 200 206 200 200 
185 173 140 113 110 86 77 98 110 110 110 77 34 29 45 48 29 21 21 21 34 45 34 
21 21 34 64 64 64 98 77 45 48 64 86 98 124 173 175 173 153 185 200 200 220 220 
185 113 34 21 5 149 149 149 153 153 158 173 153 158 185 200 206 200 175 153 
124 100 113 110 86 100 110 113 110 77 45 21 48 86 34 21 21 21 34 48 34 29 29 
45 77 100 110 110 98 64 64 64 64 86 98 113 158 175 175 185 200 200 200 206 173 
98 21 5 5 149 149 149 153 153 153 149 133 140 158 185 185 173 153 133 113 113 
113 113 100 100 110 98 64 64 45 21 45 64 48 29 29 21 34 64 45 29 34 48 98 110 
113 110 98 77 77 86 98 100 100 100 140 158 175 185 185 175 185 175 158 98 21 
5 5 149 149 149 149 149 140 113 100 149 175 175 158 153 140 133 124 113 100 
98 77 98 98 77 64 48 45 34 29 45 34 34 34 21 29 64 64 34 64 64 77 110 110 98 
77 77 64 86 110 133 124 113 133 153 173 185 200 173 158 140 113 77 29 5 5 149 
140 149 149 149 124 98 77 140 175 158 149 140 140 133 113 100 86 64 64 77 98 
86 64 48 64 45 29 21 34 45 45 29 34 77 64 45 77 77 64 77 77 64 64 64 64 64 98 
124 113 110 113 133 149 173 200 185 173 124 77 48 29 5 5 140 140 140 140 140 
113 77 77 113 149 133 133 124 113 110 86 64 64 64 64 100 124 110 64 48 77 86 
45 29 48 64 45 29 48 77 48 45 86 86 64 64 77 86 98 77 48 48 64 98 86 86 113 
124 133 149 173 200 173 124 64 34 29 21 5 140 140 140 140 140 113 77 77 124 
140 124 124 113 110 98 64 64 64 64 64 100 140 140 98 48 77 100 64 34 86 86 45 
29 64 77 45 48 100 98 48 64 110 124 110 77 64 77 86 64 64 86 124 133 133 133 
140 158 158 113 64 34 29 21 5 140 140 140 140 140 110 77 77 110 133 124 124 
133 124 110 100 100 98 77 64 86 113 149 113 64 64 98 77 48 86 110 64 45 77 64 
64 86 110 77 45 98 133 124 86 64 77 100 110 98 86 86 100 124 140 124 133 140 
124 98 48 45 45 21 5 140 140 140 140 113 98 77 98 113 133 133 124 133 124 113 
113 113 100 77 77 86 100 140 140 77 45 86 100 64 64 86 64 64 77 64 86 140 133 
64 64 113 149 110 64 77 98 110 110 100 100 86 86 110 133 133 140 133 113 100 
77 48 48 29 21 140 140 149 140 100 64 77 113 140 140 133 124 133 124 124 124 
113 98 98 100 100 124 153 153 100 48 77 110 77 45 48 48 64 64 64 100 149 124 
77 110 153 149 100 98 98 100 98 100 110 110 98 77 86 98 113 140 133 140 140 
98 64 64 34 21 140 133 140 124 98 64 77 124 140 140 133 124 133 149 149 140 
124 113 124 133 133 153 158 173 140 64 64 113 98 45 45 77 64 45 64 113 140 98 
77 149 185 153 124 110 113 113 110 110 124 133 113 100 86 77 98 113 133 149 
140 98 64 48 45 21 133 133 133 110 77 48 77 113 140 140 133 133 149 158 153 
153 149 124 124 113 113 133 153 175 175 110 77 113 110 64 64 86 77 64 98 113 
110 64 98 173 200 158 133 113 140 133 124 140 158 158 153 133 110 98 77 100 
149 153 124 86 64 64 48 29 140 133 113 98 64 64 77 100 140 149 133 124 140 158 
158 158 140 100 77 64 48 77 113 175 200 153 100 110 113 98 77 86 86 98 110 113 
98 64 113 175 200 149 110 98 98 98 124 153 158 175 173 149 124 100 98 110 153 
153 113 86 64 64 64 45 124 124 113 86 77 77 86 100 124 113 86 77 100 133 153 
140 100 64 45 34 34 45 86 133 185 173 124 113 124 113 100 77 86 113 140 133 
100 98 153 200 158 124 77 45 29 48 77 100 124 158 173 140 113 100 98 124 158 
158 124 86 77 64 77 64 110 110 100 86 98 98 86 98 86 64 34 34 64 113 158 149 
86 64 77 48 45 64 98 113 149 173 173 149 133 124 100 86 98 133 153 158 133 133 
173 173 133 110 86 34 29 34 48 64 98 133 149 110 77 64 64 100 153 173 149 110 
98 86 77 64 100 100 98 86 98 98 86 77 64 34 21 29 64 133 173 158 98 86 98 48 
48 86 110 124 140 173 185 173 149 124 98 86 110 140 153 173 153 153 173 140 
110 113 86 48 34 45 64 64 98 113 124 86 45 34 34 77 140 175 153 113 100 100 
86 64 100 100 98 98 98 86 86 64 48 29 29 48 100 153 200 175 113 98 86 48 48 86 
100 124 140 158 200 185 153 124 98 98 113 149 153 175 175 175 158 124 113 124 
98 64 45 34 64 100 113 140 140 100 48 34 29 48 113 158 153 124 110 100 86 64 
86 86 86 86 86 86 77 45 29 34 64 100 149 185 220 200 133 110 86 48 45 64 100 
133 124 113 158 200 158 124 100 100 133 140 153 185 220 200 140 98 113 124 98 
86 48 45 86 133 153 185 185 149 100 48 29 29 77 133 140 124 110 100 86 77 64 
77 77 77 86 86 64 29 34 64 100 140 173 200 220 200 133 110 98 64 48 64 113 149 
113 64 100 158 173 124 110 110 113 124 133 185 206 158 98 64 100 113 98 64 64 
64 100 133 173 206 220 185 149 100 64 29 64 110 124 110 100 100 86 64 48 64 64 
77 86 77 45 29 48 110 133 153 185 200 220 206 149 100 100 100 86 100 133 140 
98 45 64 140 153 133 124 124 124 113 133 175 175 124 48 45 77 110 86 64 48 86 
110 140 185 220 206 175 158 140 98 45 34 86 113 110 98 98 86 77 34 34 45 64 98 
77 45 29 64 110 133 149 173 200 206 220 173 110 98 98 86 100 113 110 77 48 77 
133 153 140 149 149 140 140 140 173 149 77 48 64 86 100 98 64 64 98 113 149 
200 200 185 153 140 140 110 64 29 48 100 100 86 98 98 86 29 21 34 64 77 77 48 
34 64 100 110 133 149 158 175 200 200 153 110 98 98 100 113 124 113 110 98 110 
140 158 158 149 153 158 158 153 100 64 98 110 124 133 110 98 86 98 133 173 175 
175 158 140 140 133 110 77 48 34 64 98 98 86 98 77 21 21 21 48 64 48 45 45 77 
100 98 110 124 133 133 149 185 200 173 133 124 124 140 173 175 153 98 77 124 
158 158 149 158 185 175 149 98 64 110 149 153 173 149 133 140 153 158 173 158 
149 140 149 149 140 124 113 77 34 45 77 98 86 86 64 5 5 21 45 48 34 29 48 98 
100 98 100 110 100 110 110 140 173 175 158 140 124 140 173 175 140 64 64 124 
149 149 149 153 173 173 133 64 48 98 133 140 149 175 175 185 175 173 149 140 
124 113 133 149 149 140 124 98 48 34 77 98 98 64 64 5 5 21 29 34 29 34 77 100 
110 110 110 100 100 113 133 124 140 158 158 140 124 113 110 100 98 64 86 124 
140 149 149 140 140 140 113 64 45 64 98 100 113 158 185 175 149 140 140 140 
133 113 124 149 149 133 113 98 48 34 48 77 64 64 64 5 5 21 21 29 34 64 113 140 
124 133 133 133 124 149 158 149 140 149 149 149 149 100 64 64 98 124 124 113 
113 124 124 110 100 100 110 110 77 48 64 77 98 133 158 158 133 113 149 158 153 
124 124 149 140 124 124 110 64 34 29 34 45 48 64 5 5 21 21 34 48 110 158 175 
140 133 153 153 153 173 175 173 149 124 133 140 140 110 64 98 149 185 158 113 
77 77 77 77 64 64 113 153 149 86 48 77 110 133 140 140 113 113 140 158 153 133 
133 140 133 124 133 140 110 64 34 21 21 45 48 21 5 21 21 45 64 124 185 185 153 
140 153 153 153 158 173 149 124 113 133 149 140 113 113 140 185 220 200 140 
86 48 48 48 64 110 153 200 185 124 86 110 140 149 124 124 113 110 113 140 140 
149 153 149 133 124 149 173 153 110 64 29 21 34 48 45 45 45 34 45 77 113 173 
185 173 140 133 133 149 149 140 113 113 133 153 173 153 140 153 173 200 220 
220 206 173 100 64 64 124 175 220 220 206 158 124 124 140 153 153 149 113 100 
110 124 149 175 175 149 124 133 173 200 185 133 86 45 29 34 45 124 124 113 86 
64 64 98 133 158 173 124 100 113 133 149 149 133 133 153 175 200 175 158 158 
185 206 237 246 246 220 173 100 113 185 237 246 237 206 200 158 140 149 173 
175 173 133 110 100 113 149 175 158 124 100 133 185 220 200 140 86 45 34 34 34 
200 200 175 153 110 64 64 98 133 133 113 100 110 124 153 158 153 173 175 200 
200 200 185 158 175 200 220 246 246 246 200 140 173 220 246 237 237 206 200 
185 173 175 173 175 175 158 133 124 133 140 158 153 113 98 124 175 200 173 124 
77 48 45 45 34 220 220 220 185 140 98 64 64 100 98 86 98 100 113 153 175 185 
200 200 200 206 206 200 173 173 200 237 246 246 246 200 140 173 220 246 237 
237 220 206 185 175 175 175 173 173 173 158 173 173 158 158 153 124 98 110 133 
133 110 77 64 45 45 45 34 220 237 220 200 153 100 64 64 64 64 77 98 110 133 
149 175 200 185 185 206 206 200 200 185 200 220 246 246 246 220 158 113 133 
200 220 246 237 237 206 200 173 158 175 173 153 158 200 206 206 200 175 173 
140 100 86 77 77 64 45 45 45 45 45 29 220 220 220 200 158 113 77 64 64 77 100 
124 153 173 158 173 175 175 175 206 220 220 200 206 220 246 246 237 237 200 
158 124 133 175 220 237 237 220 206 200 175 173 185 175 153 173 200 220 220 
200 200 200 173 140 110 98 64 48 48 48 48 48 34 29 237 220 220 220 175 124 77 
77 98 98 124 149 173 175 185 200 200 200 200 220 237 220 220 220 220 246 237 
237 220 220 200 200 200 200 220 237 237 220 220 200 185 185 200 200 158 175 
200 206 206 220 220 220 206 200 173 140 100 64 77 64 64 45 29 29 220 220 220 
206 175 113 86 77 100 113 133 140 153 173 185 200 206 220 220 237 237 237 220 
220 220 237 220 237 237 237 246 237 246 237 237 237 237 220 220 220 200 200 
220 200 173 185 200 185 200 200 220 220 220 200 185 149 110 86 77 64 48 34 29 
29 220 220 220 206 173 113 77 86 124 140 140 140 158 173 158 173 200 206 237 
237 237 237 220 220 220 220 220 237 246 237 246 246 237 246 246 237 237 237 
220 220 220 220 220 220 185 185 200 200 185 175 200 200 185 185 153 133 100 
98 64 64 45 34 29 45 206 206 206 185 158 140 98 98 124 133 124 140 158 158 153 
173 200 200 200 206 220 220 220 220 220 220 220 246 246 246 246 246 246 246 
246 246 237 220 237 220 220 220 220 206 220 220 220 220 206 185 185 175 185 
158 149 113 98 77 64 64 34 29 34 64 206 206 200 173 153 133 86 64 64 77 98 110 
140 158 185 200 200 185 158 158 200 206 220 206 220 220 237 237 246 246 246 
246 246 246 246 246 246 237 237 246 237 220 220 200 200 220 246 237 220 206 
200 200 185 173 149 124 98 77 64 48 45 34 45 64 200 206 200 158 140 86 45 29 
29 34 77 100 140 185 220 220 220 185 153 153 175 200 200 206 220 220 237 246 
246 246 246 246 246 246 237 246 237 246 237 237 220 220 206 200 200 206 220 
237 220 220 206 206 200 173 153 133 98 64 64 48 45 34 48 48 206 206 200 158 
110 64 29 29 29 34 64 113 149 173 200 220 220 200 175 175 185 200 206 220 237 
237 237 237 237 246 246 246 246 246 246 237 246 237 237 220 237 220 220 206 
200 206 220 220 220 237 206 200 175 153 133 113 98 64 64 48 45 48 64 48 185 
200 158 133 77 45 34 29 34 45 64 110 113 124 153 185 206 200 185 200 200 206 
220 246 237 237 237 237 237 237 237 237 237 237 237 246 237 237 237 237 237 
237 237 220 200 200 200 220 220 206 200 158 149 124 100 98 110 98 48 45 64 77 
77 77 149 149 133 86 64 45 34 34 45 48 64 64 64 86 124 153 173 175 175 185 175 
200 206 237 237 237 237 237 237 237 237 220 220 237 237 237 237 237 237 237 
237 220 237 206 185 173 200 206 200 185 175 158 124 98 64 98 110 113 86 48 64 
77 86 98 140 133 110 64 64 45 34 48 64 64 45 34 45 77 133 153 149 158 175 173 
153 153 185 206 206 220 220 237 237 237 237 237 237 237 237 237 246 237 237 
237 220 206 206 200 158 153 153 173 173 158 158 153 124 64 64 77 98 100 110 
98 64 64 64 64 140 149 113 86 77 48 48 64 64 64 34 34 34 64 113 133 133 153 
158 158 153 149 158 200 200 200 206 220 237 220 237 237 237 246 237 237 237 
237 237 220 200 200 185 173 158 149 124 124 140 140 124 124 133 98 45 45 64 86 
110 113 100 64 64 45 175 175 158 124 77 48 48 64 48 45 34 29 29 45 64 86 98 113 
140 149 153 153 158 175 200 200 206 206 220 220 237 220 237 220 220 220 220 
220 220 206 206 200 200 185 175 149 124 113 113 113 98 86 100 86 48 34 34 64 
86 110 113 100 64 45 
