P2
64 64
255
55 55 55 55 55 55 55 55 55 55 55 55 55 55 55 55 55 55 55 55 55 55 55 55 55 55 
52 52 52 52 52 52 52 52 52 52 52 52 52 52 52 52 52 52 52 52 52 52 52 52 52 52 
52 45 52 52 52 45 45 37 45 45 45 45 55 55 55 55 55 55 55 55 55 55 55 55 55 55 
55 55 64 55 64 55 55 55 55 55 55 55 52 52 52 52 52 52 52 52 52 45 52 52 52 52 
52 52 52 52 52 52 52 52 52 52 45 52 45 52 45 52 52 45 45 37 37 45 45 45 55 55 
55 55 64 55 55 55 55 55 55 55 55 55 55 64 55 64 55 55 55 55 55 55 52 52 52 52 
52 52 52 52 52 52 52 52 52 52 52 52 52 52 52 52 52 45 52 52 52 45 52 45 52 45 
52 52 45 45 45 45 37 45 45 45 55 55 64 55 55 55 52 52 52 52 52 55 55 55 55 55 
55 55 55 55 55 55 55 55 52 52 55 52 52 52 52 52 52 52 52 52 52 52 52 52 52 52 
52 52 52 52 52 52 45 45 45 52 52 52 45 45 45 45 45 45 45 37 45 45 55 64 55 55 
52 45 45 45 45 52 52 55 55 55 55 64 55 55 55 55 55 55 55 55 52 52 55 52 52 52 
52 52 52 52 52 52 52 52 52 52 52 52 52 52 52 52 52 45 45 45 52 52 52 52 45 45 
45 45 45 45 37 37 45 45 55 55 55 52 45 45 45 45 45 52 55 55 55 55 55 55 64 55 
55 55 55 55 55 55 52 52 52 52 52 52 52 52 52 52 52 55 55 55 52 52 52 52 52 52 
52 52 45 52 45 45 45 52 52 52 45 37 37 52 52 45 37 37 37 45 55 55 52 52 45 37 
45 45 52 52 55 55 64 64 64 64 55 64 55 55 52 55 55 52 52 52 52 52 52 52 52 52 
52 52 52 52 52 52 52 52 52 52 52 52 52 45 52 52 52 45 45 37 37 37 37 37 45 52 
52 45 37 37 37 45 55 55 52 52 45 45 45 45 45 52 55 55 64 55 64 70 64 55 55 52 
45 45 52 52 52 52 52 52 52 52 52 52 52 45 52 45 52 52 45 45 45 45 45 52 45 45 
52 45 45 37 37 27 27 27 37 45 45 52 52 45 45 37 45 45 55 55 52 52 45 45 37 45 
45 52 55 64 55 64 64 70 64 55 52 52 52 45 45 45 45 52 45 45 45 45 37 37 37 37 
37 37 37 37 37 37 37 37 37 37 37 45 45 37 27 27 27 37 37 37 45 52 52 52 52 45 
37 37 45 52 55 55 55 52 45 37 37 37 45 52 64 70 70 70 70 82 82 70 52 37 37 37 
37 27 37 37 37 37 37 27 27 27 27 21 27 27 21 21 27 27 27 27 27 27 21 27 27 27 
21 21 37 52 52 52 52 55 52 52 45 37 37 45 52 52 55 64 55 52 45 37 27 27 37 52 
55 64 70 70 82 70 82 82 64 37 21 21 21 21 21 21 21 27 21 21 21 13 21 13 21 21 
21 21 13 21 21 21 21 21 21 21 21 13 21 37 55 64 55 52 52 52 52 45 37 37 37 45 
52 52 64 64 55 52 52 45 27 27 27 37 45 52 55 55 70 70 70 82 88 70 45 21 21 13 
21 13 21 21 21 13 13 13 13 21 13 21 13 21 13 21 13 21 21 21 21 21 13 21 37 45 
64 64 52 52 45 45 37 37 37 37 37 45 52 52 55 64 55 52 52 45 37 27 27 27 37 45 
52 55 55 64 64 64 88 103 70 45 21 21 13 21 13 21 13 21 21 21 21 21 21 21 21 21 
21 13 21 21 21 21 21 21 21 37 45 52 52 55 55 52 52 45 37 27 37 37 37 45 52 45 
55 55 55 55 52 52 45 37 27 21 27 37 45 45 45 52 52 55 70 70 64 52 27 21 13 21 
21 13 21 21 21 21 21 21 21 21 21 13 21 21 21 21 21 13 21 13 27 45 52 45 45 55 
64 55 52 45 37 37 37 45 37 52 52 45 55 55 55 55 55 52 52 52 45 27 27 27 27 37 
37 45 45 55 64 52 37 45 27 21 21 21 21 21 21 13 21 21 21 21 21 13 13 21 21 21 
21 13 13 21 21 27 37 37 45 37 45 55 64 64 52 37 37 37 45 45 45 52 45 52 55 55 
55 64 55 55 64 64 55 45 27 27 27 27 27 27 45 64 82 52 37 45 37 27 21 27 21 21 
21 13 21 21 21 21 21 21 21 21 21 21 21 21 21 27 37 45 45 45 27 37 45 55 64 55 
45 27 37 37 45 52 52 52 45 52 55 55 55 55 55 55 64 70 64 45 37 27 27 21 27 27 
37 70 82 55 45 52 45 27 27 27 21 27 27 21 21 21 21 21 21 21 21 21 27 27 21 21 
27 37 45 52 55 45 37 27 45 52 55 52 37 27 27 37 52 55 52 52 52 52 55 55 64 55 
55 55 64 70 64 45 37 27 27 21 27 27 37 70 82 55 45 52 45 27 27 27 21 27 27 21 
13 21 21 21 21 21 21 21 27 27 21 21 27 37 45 52 55 45 27 37 45 52 55 52 37 27 
27 37 52 55 52 52 45 52 55 55 55 55 55 52 55 64 64 45 37 27 21 21 27 37 45 70 
82 55 55 64 55 45 27 27 21 21 21 21 21 13 21 21 21 13 21 21 27 27 21 21 27 37 
45 52 55 55 45 37 45 45 52 45 37 21 21 37 45 52 55 55 52 52 55 64 55 55 45 45 
55 64 55 45 27 21 21 21 21 37 45 55 64 64 70 82 64 55 37 37 27 21 21 21 21 21 
21 21 13 21 13 21 27 27 21 21 27 37 37 52 64 55 52 52 45 45 45 37 27 27 21 27 
37 45 55 70 64 52 55 64 55 55 45 45 52 64 55 45 21 21 21 21 21 27 45 52 52 64 
70 64 52 37 37 27 27 21 21 27 27 21 13 21 13 13 21 21 21 27 21 21 21 27 27 37 
52 52 52 52 45 45 52 45 45 37 27 27 27 45 64 82 70 45 64 55 64 55 52 45 45 55 
52 37 21 21 21 21 27 27 45 52 45 55 64 52 27 27 21 21 21 21 21 27 27 21 21 21 
21 21 21 21 21 27 27 21 21 21 27 27 37 37 45 45 52 55 55 55 52 37 37 27 27 45 
64 88 64 52 64 64 64 55 55 45 37 52 45 27 21 27 27 27 27 45 45 52 52 55 55 45 
27 27 21 21 21 13 21 27 27 21 21 21 21 27 21 21 27 37 27 21 21 21 21 27 37 27 
27 45 52 55 64 64 52 45 37 27 27 45 64 82 64 45 55 55 64 64 55 45 45 45 45 27 
21 27 27 27 45 52 52 52 45 52 52 37 27 27 27 21 21 21 21 27 27 21 21 21 21 27 
21 21 27 37 27 27 21 21 27 37 27 37 27 37 45 55 64 55 55 45 37 37 27 45 64 70 
55 45 55 55 55 64 55 52 45 52 37 21 21 27 37 37 52 52 45 45 37 37 37 21 21 27 
27 27 27 21 21 27 21 21 21 21 21 21 21 21 27 27 27 27 27 27 37 45 45 37 37 37 
37 45 52 52 52 52 45 37 37 37 52 52 52 45 55 55 55 55 64 52 52 52 37 27 27 37 
37 37 45 37 37 27 37 27 27 27 27 37 27 27 27 21 21 27 27 27 21 21 13 21 13 21 
27 27 27 27 37 37 45 45 45 37 37 45 37 37 45 45 45 45 45 37 27 27 37 45 45 45 
55 55 64 55 55 52 52 45 37 27 37 37 45 37 37 37 37 27 27 27 27 37 45 37 37 27 
27 37 27 27 27 27 21 21 21 21 21 27 37 27 37 37 37 37 45 52 52 45 37 45 45 45 
37 37 45 45 52 52 37 27 37 37 45 45 55 55 55 55 55 45 37 27 37 37 37 37 37 37 
27 37 37 45 37 27 27 37 37 37 27 27 27 37 37 37 27 27 27 27 21 21 27 37 37 37 
37 45 37 37 37 52 55 45 37 45 52 45 45 37 45 45 52 64 52 37 27 45 45 45 55 55 
55 55 55 45 27 21 27 37 37 37 37 27 37 27 37 45 37 27 27 27 37 37 27 21 21 27 
37 45 37 27 37 37 37 27 37 37 37 45 45 45 27 27 37 55 64 52 27 27 45 45 45 45 
37 37 45 64 64 45 37 45 52 45 55 55 64 55 55 45 21 21 21 21 27 27 27 37 27 45 
45 37 27 21 21 27 45 45 37 21 21 21 45 45 37 37 52 52 55 55 52 45 45 52 55 55 
27 21 37 55 64 45 27 27 37 45 45 45 45 37 45 55 64 55 52 52 52 45 55 64 55 64 
52 37 21 21 21 21 27 27 27 27 37 37 37 27 27 21 21 27 45 52 45 27 21 27 45 55 
52 52 70 99 103 103 88 64 52 55 70 82 37 21 45 64 55 37 27 37 45 52 45 52 52 
45 52 55 64 55 52 45 45 45 55 64 55 55 52 27 21 21 27 27 27 21 21 27 27 37 37 
27 27 37 37 37 45 55 55 45 37 27 52 82 88 99 134 151 151 151 126 88 70 82 88 
88 52 27 52 70 55 37 37 52 55 52 55 55 52 52 52 55 55 55 45 37 45 45 55 55 55 
52 45 27 21 21 21 27 27 21 21 21 27 27 27 37 37 45 45 37 52 64 64 64 52 37 55 
99 126 167 188 203 203 192 167 134 118 103 103 88 55 45 55 70 55 45 45 55 64 
64 64 64 55 55 55 55 55 45 37 37 37 45 55 64 55 52 45 21 21 21 21 21 21 21 21 
21 27 27 37 37 45 52 45 45 45 64 82 82 55 45 55 103 161 192 215 231 224 208 
192 167 134 126 115 88 55 52 64 70 55 45 52 64 70 70 70 70 70 64 64 64 52 45 
37 37 45 45 55 55 55 55 45 27 21 21 21 21 21 21 21 27 27 27 27 45 45 45 45 37 
45 55 70 82 70 55 64 115 167 208 224 238 231 215 203 188 151 126 118 88 64 64 
64 64 52 45 52 55 64 70 82 70 70 64 64 64 52 45 37 37 37 45 64 64 55 55 45 27 
21 21 21 21 27 27 27 27 27 27 37 37 37 37 37 37 37 52 64 70 82 70 70 118 188 
224 238 246 231 224 215 208 167 146 118 88 70 70 70 55 52 45 45 52 55 70 88 82 
70 64 64 64 55 45 37 37 37 45 55 64 55 55 45 27 21 21 21 21 27 27 27 27 27 27 
27 37 27 37 27 37 37 37 45 55 64 70 82 118 188 215 231 231 231 224 215 208 179 
151 126 99 82 82 55 45 45 45 45 45 52 55 70 64 55 55 64 64 55 45 27 37 37 45 
64 55 64 55 52 27 27 21 21 21 27 27 27 21 21 27 27 27 21 21 37 37 37 27 21 27 
45 64 88 118 179 215 224 231 231 224 224 215 192 167 151 118 99 64 45 37 37 37 
45 37 27 45 45 45 37 37 52 55 52 37 27 27 37 45 55 64 64 55 52 27 27 21 21 21 
21 21 21 21 21 21 27 37 21 37 45 37 37 37 37 37 37 55 103 126 161 192 215 224 
224 224 224 224 203 188 179 146 99 52 37 37 37 45 45 45 37 37 37 37 37 27 27 
37 37 27 27 27 37 37 55 64 55 64 52 37 21 21 13 21 21 21 21 21 21 27 45 45 27 
52 52 27 27 45 55 55 45 45 99 126 151 188 208 215 224 231 224 208 203 192 188 
151 88 37 45 27 27 37 45 52 37 45 55 64 55 45 27 21 21 21 27 27 37 37 55 55 64 
55 55 37 21 13 21 13 13 21 13 21 27 45 55 55 37 52 45 21 21 37 52 55 45 37 70 
126 151 167 203 208 215 224 224 208 192 192 179 134 64 37 37 27 21 27 45 45 37 
52 82 82 70 55 45 27 21 21 21 27 37 45 55 52 55 55 55 37 21 21 21 21 13 21 21 
21 27 45 70 64 37 37 45 27 27 27 45 55 37 21 64 126 151 167 192 203 208 224 
215 208 188 188 179 126 55 27 45 37 27 27 45 37 37 55 88 88 64 55 45 37 27 21 
21 21 27 45 52 52 55 55 55 37 21 21 21 21 21 21 21 21 21 37 64 64 45 27 27 27 
37 37 37 37 27 21 52 115 134 167 192 203 208 215 224 203 192 192 179 115 45 27 
37 37 37 37 37 27 45 82 88 82 52 37 27 27 27 21 21 21 37 37 52 52 55 55 55 37 
21 21 21 21 21 21 27 21 21 27 55 64 52 21 13 27 37 45 27 27 21 21 45 99 134 
167 192 203 208 215 215 203 192 203 188 115 37 21 27 37 37 37 37 37 55 82 99 
64 45 27 27 27 27 27 27 27 27 45 45 45 52 55 52 37 21 21 21 21 21 21 21 21 21 
27 52 55 52 37 21 27 27 27 27 27 21 21 37 82 134 167 192 203 208 215 224 203 
192 203 179 99 27 21 27 27 37 45 37 45 55 82 70 64 37 37 21 21 27 27 37 27 37 
45 37 27 37 52 45 37 21 21 21 21 21 21 21 21 27 27 37 37 37 45 37 37 37 52 52 
45 45 21 21 70 134 179 203 208 215 215 215 215 203 203 167 88 27 27 45 55 70 
70 64 64 70 64 55 52 37 27 27 37 37 45 37 45 45 45 21 21 27 37 37 27 21 21 13 
21 13 21 13 21 21 27 27 21 37 45 52 64 88 103 103 99 82 45 37 99 161 188 203 
215 215 224 224 215 215 208 179 103 52 55 99 126 146 134 126 103 82 55 52 45 
37 27 37 52 55 45 45 37 45 45 21 21 21 21 27 27 21 13 21 21 27 21 21 21 21 27 
27 27 37 52 70 103 146 167 167 151 134 88 82 134 179 188 203 215 215 215 224 
231 231 231 208 161 103 115 151 192 203 203 188 161 118 88 64 55 45 37 52 55 
55 45 37 37 45 45 21 21 21 21 21 21 21 21 21 27 27 37 27 27 27 21 21 27 37 52 
88 134 192 215 208 203 179 146 151 167 179 192 203 203 208 215 231 238 238 238 
231 208 179 167 192 215 215 215 215 208 179 118 99 70 55 52 45 45 45 37 37 37 
45 52 21 21 21 21 21 21 21 21 21 21 27 37 37 27 27 21 21 21 27 52 99 161 208 
224 224 215 203 192 192 192 188 188 192 203 208 224 246 246 246 238 238 231 
215 208 215 215 224 231 224 215 192 146 115 103 82 64 45 27 27 27 37 45 45 45 
21 21 21 21 21 21 27 21 21 21 27 27 37 27 27 27 21 21 27 55 103 167 203 215 
224 215 215 208 208 192 179 188 192 208 215 231 238 246 246 238 238 238 231 
224 215 224 231 231 231 215 203 151 126 115 88 70 45 27 27 27 37 45 45 45 21 
21 21 21 21 21 27 27 27 21 27 27 21 21 21 21 27 27 27 55 118 167 203 215 215 
215 215 208 208 192 179 179 188 203 215 231 246 246 231 224 224 238 238 224 
224 224 231 231 224 215 192 167 134 126 115 82 52 37 27 37 45 45 45 45 21 21 
21 21 13 21 27 37 37 37 37 27 27 21 21 21 37 45 45 70 118 179 192 208 215 215 
215 224 215 192 167 161 167 188 192 208 208 215 208 208 208 231 238 238 231 
231 224 224 215 208 188 167 161 151 134 103 64 52 45 45 52 45 45 45 21 21 21 
21 21 21 27 37 45 45 45 37 37 27 27 27 52 55 55 70 126 179 203 208 208 215 224 
224 215 203 179 151 151 167 167 179 179 192 208 208 203 224 238 238 238 231 
224 215 215 203 179 161 161 161 146 115 82 55 55 52 52 52 45 45 21 21 21 21 21 
21 27 37 52 55 64 55 52 52 45 52 64 70 70 99 126 167 188 203 208 215 215 224 
215 192 161 126 134 134 146 146 146 151 167 167 179 208 238 231 231 224 215 
208 208 192 179 161 161 161 146 115 88 70 55 55 55 52 45 45 21 21 21 21 21 13 
21 37 64 88 99 88 88 88 82 88 103 103 103 118 134 151 167 188 203 203 208 208 
215 208 179 134 103 103 103 103 103 115 118 126 161 208 231 231 224 215 203 
203 192 188 167 161 161 151 146 115 99 99 88 82 55 52 45 45 21 21 21 21 21 13 
21 27 55 82 103 115 115 103 115 118 118 126 118 126 134 146 161 179 188 192 
192 203 208 215 203 167 126 115 99 82 88 115 134 151 188 224 231 215 208 203 
203 188 188 167 167 161 161 161 134 126 115 115 115 88 55 52 52 45 21 21 21 13 
21 13 13 21 45 55 88 103 115 115 118 126 134 126 126 126 126 146 151 167 179 
179 188 192 203 192 192 188 161 146 118 88 99 134 179 192 203 215 215 208 192 
192 188 179 179 167 167 167 167 161 151 134 126 118 103 82 52 45 52 45 21 13 
13 21 13 21 21 21 27 37 55 88 99 103 118 126 134 134 134 134 134 146 151 161 
167 167 179 188 188 179 188 179 167 151 134 103 115 151 179 188 192 192 192 
192 188 179 167 167 167 167 167 167 167 167 161 146 134 126 99 64 45 45 45 45 
21 21 21 13 21 21 21 21 21 21 37 55 82 88 103 118 126 126 134 134 146 146 146 
151 151 161 167 179 179 167 161 161 146 134 118 99 103 134 151 151 161 167 179 
179 167 167 161 161 161 161 167 161 161 161 146 134 134 126 99 64 45 45 45 45 
21 21 13 21 21 21 21 21 21 21 21 45 52 64 99 115 126 126 146 146 146 146 146 
146 146 146 151 161 161 151 146 126 126 118 115 99 103 115 118 126 126 134 151 
151 161 161 151 151 161 161 161 151 146 134 134 126 134 118 99 55 52 45 45 45 
21 21 13 21 21 21 21 21 21 21 27 37 45 52 70 103 126 146 146 146 146 146 146 
134 134 134 134 146 146 134 126 118 118 118 115 115 103 115 115 115 115 118 
126 134 151 151 151 151 151 151 151 146 146 134 146 134 126 115 82 55 52 52 45 
37 21 21 13 21 21 21 21 21 21 27 37 45 45 45 70 103 126 146 151 151 151 161 
146 146 134 146 134 134 126 126 126 118 126 126 134 126 126 126 126 118 115 
115 118 134 151 151 161 151 146 151 151 146 146 146 146 146 134 103 64 52 52 
52 52 45 21 21 13 21 21 21 21 21 27 37 37 45 37 45 70 115 134 151 161 167 179 
167 167 151 151 146 146 134 126 126 118 126 134 134 146 134 146 134 126 126 
126 134 146 151 161 161 161 151 151 151 151 151 151 151 146 134 134 103 64 52 
45 52 45 52 
