P2
64 64
255
137 137 137 144 137 124 124 124 124 124 124 124 117 117 100 89 78 74 66 53 53 
41 37 37 41 41 41 41 41 55 55 55 66 74 74 78 78 89 102 100 102 102 117 102 117 
124 124 124 124 126 126 124 124 124 124 124 124 117 117 102 117 117 124 126 
137 137 137 144 137 124 117 124 124 124 124 124 117 102 102 89 78 74 66 53 53 
41 37 37 41 41 41 41 41 55 55 66 66 74 74 78 78 100 100 100 102 117 102 117 
117 124 124 124 124 126 126 124 124 124 124 124 124 117 117 117 102 117 124 
126 137 144 144 137 117 100 100 100 117 124 124 126 124 124 117 100 100 89 78 
66 66 55 53 53 53 53 53 55 55 66 66 74 78 89 89 89 100 100 102 102 117 117 117 
117 124 124 124 124 124 124 124 124 124 124 124 117 100 89 74 78 78 102 124 
126 144 151 144 117 66 53 53 53 66 89 102 102 124 126 126 126 124 117 102 100 
89 89 89 78 78 78 74 74 78 89 89 100 102 102 102 117 117 117 124 117 124 124 
124 124 124 124 124 124 124 124 124 124 102 89 89 78 55 41 41 41 41 66 102 126 
151 151 137 89 41 37 37 41 41 41 55 53 74 117 137 126 126 126 126 124 117 117 
117 102 102 102 117 102 102 117 117 117 124 124 117 124 124 124 124 124 124 
124 124 124 124 126 124 126 126 126 124 102 74 53 53 41 53 53 41 41 37 53 100 
126 151 151 126 78 41 41 53 55 55 53 41 41 41 66 102 137 137 137 126 137 126 
126 126 126 124 124 124 124 117 124 124 124 124 124 124 124 124 124 124 126 
124 124 124 126 126 126 126 126 126 126 117 66 53 53 53 55 74 74 74 55 41 41 
78 126 151 151 126 74 41 53 66 74 74 74 66 66 55 53 55 117 137 137 137 137 137 
137 137 126 126 126 126 126 124 124 124 124 124 126 124 124 124 126 126 126 
126 124 124 126 126 126 126 126 126 117 74 55 74 78 78 100 100 102 100 78 55 
37 66 124 158 158 126 74 53 74 89 89 89 89 78 78 78 66 41 66 124 144 137 144 
137 137 137 137 137 126 126 126 126 126 126 124 126 124 126 126 126 126 126 
126 126 126 126 126 137 126 126 137 117 74 53 66 89 102 100 102 124 124 117 
100 74 41 55 117 151 151 126 74 55 78 100 89 100 89 89 89 89 74 55 53 78 126 
144 144 144 137 137 137 137 126 126 126 126 126 126 126 126 126 126 126 126 
126 126 137 126 126 126 126 126 126 137 126 78 55 55 78 89 102 100 117 124 117 
102 102 78 53 66 124 151 158 144 89 55 78 78 89 89 89 78 89 78 74 55 41 41 100 
144 144 137 137 144 144 137 137 126 126 137 126 126 126 126 126 126 126 126 
126 126 126 126 126 126 137 126 126 126 102 55 53 74 89 89 89 89 100 117 117 
117 117 100 55 78 126 151 158 151 100 55 74 78 89 78 78 78 78 74 66 55 53 37 
66 124 144 144 137 144 137 137 137 137 126 126 126 137 126 126 137 126 137 126 
126 137 126 137 126 126 137 126 126 117 66 41 55 78 100 89 89 89 89 102 117 
124 124 100 55 100 126 151 151 151 102 55 74 89 89 89 89 78 89 78 74 55 53 41 
41 89 137 144 144 137 137 137 137 137 137 137 126 126 137 126 126 137 126 137 
126 126 137 126 137 126 126 137 124 78 53 55 74 89 100 102 117 117 117 117 102 
124 126 102 74 102 137 158 158 158 117 53 78 102 89 89 89 89 89 89 78 74 53 53 
41 41 100 137 144 137 144 144 137 137 137 137 137 137 126 137 126 137 137 126 
126 126 137 126 126 137 137 126 89 53 41 55 78 100 117 124 124 124 124 124 117 
124 126 100 74 117 137 158 158 166 102 53 74 117 100 89 89 89 89 89 89 74 55 
53 41 37 74 126 144 144 144 137 144 137 137 137 137 137 137 126 137 126 126 
137 126 126 137 137 126 137 144 124 66 37 53 66 89 100 102 117 124 124 124 124 
124 126 126 89 78 117 137 158 158 158 124 55 74 102 102 89 89 89 89 100 89 74 
55 41 41 37 55 124 144 144 144 144 144 137 126 137 137 137 137 137 137 126 137 
137 126 137 126 137 137 126 137 102 53 41 55 74 78 89 102 124 124 124 124 124 
124 126 124 78 74 117 137 151 151 158 137 74 66 100 102 100 100 100 100 100 
100 89 66 53 41 41 41 74 117 124 124 126 137 137 126 126 126 126 126 137 137 
126 126 137 126 126 126 124 102 102 89 66 41 53 74 89 100 100 102 124 126 126 
126 126 126 126 102 74 74 124 137 151 158 158 144 89 55 78 117 102 102 117 117 
102 117 89 66 53 41 41 37 37 55 74 78 102 126 124 124 117 117 102 102 102 102 
102 117 117 102 102 89 74 66 55 41 41 41 55 100 117 117 124 126 137 144 144 
144 144 137 126 100 74 89 126 137 151 158 158 151 102 66 78 117 117 117 117 
117 117 102 100 74 55 41 41 37 29 37 37 41 78 117 117 100 102 102 89 78 78 74 
78 89 89 78 66 53 53 37 37 29 29 37 66 117 126 144 151 166 158 158 158 158 158 
151 144 124 89 102 137 137 158 151 158 158 124 89 102 126 126 124 117 117 117 
117 102 78 66 53 41 37 37 29 37 37 66 78 89 100 102 117 102 100 89 100 89 100 
89 78 53 37 37 37 29 37 29 37 66 124 151 158 158 158 166 175 166 166 158 151 
158 137 102 117 137 137 151 158 158 158 137 117 126 151 144 126 124 124 117 
102 100 74 55 53 37 37 29 37 37 41 53 53 66 89 102 117 117 102 102 117 102 117 
102 89 53 37 37 37 37 37 29 29 55 117 126 126 137 151 158 158 158 158 158 166 
166 144 102 124 137 137 158 158 158 158 151 124 124 137 137 124 117 117 102 
89 66 55 41 37 37 37 29 37 37 41 53 41 53 55 74 89 100 89 78 89 89 89 100 89 
53 37 41 53 37 37 37 29 55 78 78 89 124 137 151 151 151 151 158 175 166 137 
117 126 137 137 158 158 158 158 151 124 89 100 102 102 102 102 100 74 53 41 37 
37 37 29 37 37 37 53 53 41 41 53 53 53 66 66 74 66 66 55 74 74 53 41 66 66 53 
41 37 37 55 66 66 74 100 126 144 144 151 151 151 158 151 137 124 126 144 137 
158 166 158 158 158 124 74 66 89 100 100 100 89 74 53 37 37 37 29 37 37 37 41 
66 66 53 53 41 41 41 41 55 55 55 55 53 53 53 53 53 74 78 74 55 53 41 53 74 78 
78 78 102 126 144 144 144 144 151 151 144 126 137 137 137 158 158 158 166 158 
117 55 66 89 100 89 89 78 55 41 37 37 37 37 37 41 41 53 66 74 66 53 41 37 37 
41 41 53 53 41 41 41 41 53 55 66 89 74 74 66 55 53 74 100 89 66 74 100 102 102 
102 126 144 151 151 137 137 137 137 158 158 166 158 151 100 55 66 89 78 74 74 
66 41 37 37 37 37 37 41 55 55 53 53 66 66 55 41 37 37 37 37 41 37 37 37 41 41 
53 55 66 66 74 74 74 74 66 66 66 55 41 41 53 53 55 55 78 117 124 124 126 137 
137 137 158 166 151 158 144 100 55 53 55 55 55 53 53 37 37 37 37 37 41 53 53 
53 53 41 53 53 53 41 37 29 37 29 37 37 37 29 37 41 55 74 55 55 66 66 78 89 78 
55 41 41 37 37 37 41 41 41 55 78 78 100 124 137 137 137 158 158 158 158 151 
117 53 37 41 41 37 37 37 37 37 41 41 41 41 53 53 53 53 41 37 37 37 37 29 37 29 
29 29 37 29 37 37 41 55 74 55 53 55 74 74 89 78 66 53 41 37 37 37 41 53 53 55 
89 78 74 117 144 137 137 158 166 158 158 158 102 53 37 41 41 37 37 37 37 37 37 
41 41 53 53 53 41 53 41 37 37 37 37 29 29 37 29 29 37 29 37 29 41 55 55 55 41 
55 74 66 74 74 66 66 53 41 37 41 53 53 55 66 74 66 74 117 144 137 137 166 166 
166 166 158 102 41 29 37 37 37 37 37 29 37 37 41 41 55 55 55 53 37 37 37 37 37 
29 29 37 29 37 29 29 37 29 37 37 41 53 41 41 53 55 53 53 66 78 78 74 55 55 53 
53 53 53 55 53 41 66 117 144 137 137 158 166 158 166 151 102 41 29 37 37 37 37 
37 29 37 37 41 53 55 66 55 41 37 37 37 37 29 29 29 29 29 29 37 29 29 29 29 37 
37 37 37 37 41 41 41 41 55 74 89 89 78 74 55 53 53 41 41 37 37 66 124 144 137 
137 158 166 166 166 158 102 41 29 37 37 37 37 37 29 37 41 41 53 53 55 53 37 37 
37 29 29 29 29 29 29 29 37 29 37 29 29 29 29 37 37 29 29 37 41 41 41 53 55 78 
100 100 89 78 66 66 55 41 37 41 78 126 144 144 137 166 166 166 166 144 89 41 
29 37 37 29 37 37 37 37 41 53 53 53 53 41 37 20 29 29 29 29 29 29 37 37 29 37 
37 29 29 29 29 37 37 29 37 37 41 41 41 41 53 66 89 102 102 100 89 89 74 53 41 
55 89 126 144 137 137 166 166 166 158 126 66 37 37 37 37 37 37 37 37 41 41 53 
41 41 41 41 29 20 29 29 29 29 29 29 29 37 37 37 37 37 29 37 37 37 29 37 37 37 
37 41 55 55 53 66 74 89 89 100 102 102 100 78 74 74 100 124 144 144 137 166 
166 166 166 124 55 37 29 37 37 37 37 37 41 41 41 53 41 37 41 37 29 29 29 29 29 
37 37 29 37 37 41 41 37 41 37 37 37 37 37 37 29 29 37 53 78 66 53 55 74 78 78 
100 102 117 102 100 89 89 100 124 144 144 144 166 166 166 158 117 53 37 37 37 
37 37 37 37 37 37 37 41 41 53 53 41 53 53 41 29 29 29 29 29 29 37 41 53 41 41 
41 37 37 37 29 41 55 66 74 117 158 126 102 102 89 74 74 89 100 89 102 100 89 
100 102 126 137 144 144 158 166 166 158 102 41 37 37 37 37 37 37 37 37 37 29 
37 74 102 102 78 89 117 89 55 41 37 29 29 37 37 53 55 66 55 41 37 37 55 74 102 
144 124 100 158 248 216 175 126 78 55 55 66 74 74 78 100 100 102 126 137 144 
137 137 166 166 166 144 89 41 37 37 37 41 41 41 41 41 37 37 53 117 158 126 89 
102 144 137 102 78 55 37 37 29 41 55 74 74 66 41 41 53 124 189 199 210 126 55 
124 216 248 175 100 53 53 53 53 55 66 66 78 100 117 124 137 151 144 137 166 
175 166 137 74 37 29 37 37 41 53 53 53 53 53 41 55 126 198 137 78 117 151 158 
137 124 74 37 37 29 37 53 74 78 74 53 53 74 144 216 232 229 144 89 126 210 248 
144 53 41 53 41 53 55 55 66 74 100 102 124 137 144 144 144 166 166 166 137 74 
37 37 37 37 41 41 41 41 53 66 55 55 102 198 189 151 158 189 166 126 78 55 37 
37 29 37 41 66 78 78 66 55 89 144 175 210 232 216 199 210 229 198 100 41 41 41 
41 53 55 66 55 74 89 102 124 137 144 151 144 166 175 166 137 74 37 37 37 41 41 
41 41 41 53 55 74 66 89 189 216 199 198 198 189 102 53 41 37 29 37 37 37 55 78 
78 78 66 100 137 158 198 248 248 248 248 232 158 78 41 37 41 41 55 66 66 66 74 
78 100 124 137 144 144 151 166 166 175 137 66 37 37 37 37 37 41 41 41 53 55 66 
66 74 144 198 175 175 166 144 78 53 37 29 29 29 29 37 53 74 78 78 74 100 126 
151 166 198 210 210 199 189 117 55 41 41 41 53 53 66 66 66 66 78 100 117 126 
144 144 151 166 175 166 126 55 37 37 37 37 37 41 41 41 41 53 53 55 66 78 117 
126 124 100 78 55 41 41 29 29 37 29 37 37 53 55 78 78 89 100 117 117 117 117 
117 117 74 53 41 41 41 41 53 55 66 66 66 66 74 89 117 126 137 126 137 166 166 
158 124 55 37 37 37 37 37 41 41 37 41 41 41 53 53 55 74 74 74 66 55 53 41 37 
37 29 29 37 29 37 41 53 55 74 55 53 55 55 53 41 41 41 37 37 37 37 41 53 53 66 
66 66 74 74 74 89 117 126 124 117 124 151 158 144 100 53 37 37 37 37 37 37 37 
37 41 41 41 41 53 53 55 66 66 66 66 53 41 37 29 29 29 29 37 37 41 41 41 53 41 
37 37 37 37 29 29 29 37 37 37 41 41 53 66 74 74 74 74 78 78 100 117 124 124 
102 117 151 144 124 55 41 37 37 37 37 37 37 37 37 37 41 37 41 41 41 53 41 55 
55 55 53 53 37 29 29 29 37 37 41 53 41 41 41 41 37 37 41 41 37 37 37 37 37 41 
41 53 55 66 74 74 74 74 78 89 100 102 117 117 117 102 144 144 102 53 37 37 29 
29 29 37 37 29 37 37 37 37 37 37 41 37 37 41 41 41 41 41 41 37 29 37 37 41 55 
66 66 55 53 53 41 37 37 41 41 53 41 37 37 37 41 53 53 55 55 66 55 66 74 78 89 
100 102 117 102 102 102 102 78 41 37 37 37 29 37 37 37 37 37 37 29 37 37 29 37 
37 37 29 29 37 41 41 37 37 29 41 55 66 66 78 100 102 74 66 66 53 41 53 66 74 
66 53 37 37 41 41 53 53 53 53 53 53 55 74 74 89 100 102 89 89 55 55 53 37 37 
37 37 37 29 37 29 29 29 37 29 37 29 37 37 29 29 37 37 37 37 37 37 37 29 53 89 
78 78 89 117 126 100 74 74 78 66 74 89 89 78 66 53 41 41 41 41 53 53 53 53 53 
55 66 66 78 78 78 78 78 41 53 41 41 37 37 37 29 37 29 29 29 37 41 37 29 37 29 
29 37 29 37 37 37 37 37 29 29 29 41 74 78 78 78 100 100 74 66 89 100 89 89 100 
89 78 74 55 53 41 41 41 41 53 53 41 53 53 55 66 66 74 66 66 74 53 41 41 41 37 
37 29 37 29 37 29 37 37 41 41 29 29 29 37 29 29 29 37 37 29 37 37 29 29 29 41 
55 55 55 53 41 53 66 89 100 89 78 74 74 66 66 55 53 53 41 41 53 41 53 53 41 41 
55 66 55 66 55 66 66 41 53 41 41 37 37 29 37 29 29 37 37 29 37 37 37 29 29 29 
29 29 29 37 29 37 29 29 37 29 29 37 37 41 53 41 41 55 74 89 89 78 74 66 55 66 
66 55 55 55 55 53 41 41 37 37 41 41 53 55 55 66 66 66 74 41 41 41 37 37 29 37 
37 29 37 37 37 37 29 29 37 29 29 37 29 37 37 29 37 29 37 29 29 37 41 37 41 41 
41 53 55 66 66 66 66 66 66 66 66 55 66 78 78 66 55 41 41 41 37 37 37 41 41 53 
55 66 55 55 74 41 53 37 37 29 37 37 37 37 37 37 37 37 37 29 37 29 29 29 37 37 
37 37 37 37 29 37 37 37 37 41 41 41 41 41 53 66 55 53 41 53 53 55 66 53 66 100 
89 66 53 41 41 41 53 41 41 41 41 53 55 66 55 55 74 41 37 37 37 37 29 37 37 29 
37 37 37 29 29 29 29 29 29 37 37 37 37 37 37 37 29 29 29 29 37 41 41 41 41 41 
53 55 55 55 55 53 53 55 55 55 78 102 89 66 41 37 37 41 41 41 41 41 41 53 55 66 
66 66 74 37 37 37 37 37 37 37 29 37 29 29 29 29 29 29 29 29 29 29 29 29 37 29 
29 37 37 29 29 29 37 41 53 41 41 37 41 55 66 55 55 55 55 55 66 66 89 89 74 66 
53 53 41 37 41 41 37 41 53 53 55 66 74 74 74 37 37 37 37 37 37 29 29 29 29 29 
29 29 29 29 29 29 29 29 37 29 29 37 29 37 37 37 37 29 37 41 41 41 41 37 41 53 
55 55 55 53 53 66 66 74 78 74 55 41 53 55 55 53 53 41 41 41 53 53 55 55 74 78 
89 37 37 41 37 37 37 37 29 29 29 29 29 29 29 29 29 29 29 29 29 37 29 29 29 29 
29 37 29 37 29 37 37 37 37 37 37 41 53 41 53 41 53 55 74 74 74 55 53 41 41 41 
53 55 55 66 55 53 53 55 55 66 74 78 89 41 41 41 37 37 37 37 37 37 37 37 37 29 
29 29 29 29 29 29 29 29 29 29 29 29 29 29 29 29 29 29 29 29 29 29 29 37 37 41 
41 53 55 66 66 66 66 53 41 53 41 41 37 41 55 53 55 55 66 66 66 66 66 74 78 37 
37 37 37 29 37 41 37 37 37 37 37 29 29 29 29 29 29 29 37 29 29 37 29 29 29 29 
29 29 37 29 37 37 37 37 37 37 37 41 41 53 53 66 66 55 53 53 41 41 55 53 41 41 
41 53 53 55 66 78 74 66 66 74 78 29 29 37 37 37 41 41 37 37 37 29 37 37 29 29 
37 29 29 29 29 29 37 29 29 29 37 29 29 37 37 37 41 41 53 53 41 41 41 53 53 53 
53 53 55 53 37 41 41 41 41 55 55 55 53 53 41 41 55 74 74 74 66 74 78 37 37 37 
37 37 37 37 37 37 37 41 37 37 37 29 29 29 29 29 29 29 29 29 29 29 29 37 29 29 
37 37 41 41 53 53 53 53 53 41 41 41 41 41 41 37 37 37 41 37 37 41 55 55 55 55 
53 41 41 55 74 74 74 78 100 41 41 37 37 37 37 37 37 37 37 41 41 37 29 29 29 29 
29 29 29 29 29 20 20 29 37 29 29 29 37 37 37 37 41 41 53 53 41 37 29 29 29 29 
29 29 29 29 37 41 41 41 41 55 53 53 53 41 41 55 66 66 78 100 102 37 37 37 29 
37 29 29 37 37 37 37 37 37 29 29 37 29 29 29 29 29 29 29 29 29 29 29 29 29 29 
29 29 37 37 37 37 41 41 29 29 29 29 29 29 29 29 37 37 41 53 41 41 53 53 53 53 
53 53 53 55 74 78 100 124 37 37 37 37 37 29 37 29 37 37 37 37 37 29 29 37 29 
29 29 29 29 29 37 29 29 20 29 29 29 29 29 29 29 37 29 29 29 37 29 29 29 29 29 
29 29 29 37 37 37 41 53 41 53 53 53 55 66 66 53 55 74 78 102 124 
