P2
64 64
255
59 100 157 133 100 59 59 59 68 68 68 88 88 68 68 59 59 88 88 88 88 88 88 100 
88 88 88 88 88 100 121 100 88 88 100 88 100 88 100 68 68 88 100 100 100 100 
121 157 157 133 100 100 100 157 100 100 133 157 157 157 157 157 121 100 59 88 
133 133 100 68 68 59 68 68 68 88 88 68 68 59 68 68 88 100 88 88 88 88 88 88 88 
88 88 100 100 100 88 88 100 88 88 88 88 68 59 68 88 88 100 100 100 133 133 133 
100 100 121 133 100 121 133 157 157 157 157 157 121 100 59 88 121 100 88 88 88 
59 59 59 68 88 100 88 68 68 68 68 88 88 88 68 68 68 68 88 88 88 88 88 88 88 88 
88 88 88 88 88 68 68 59 59 68 100 88 88 88 100 100 100 121 100 133 100 100 133 
100 133 157 157 157 133 121 100 59 68 121 88 88 100 88 68 59 24 88 59 88 100 
100 68 68 100 88 100 88 68 88 68 59 59 59 68 59 68 59 68 68 88 68 88 59 59 88 
68 59 59 68 100 88 59 59 88 88 100 133 100 100 100 100 100 100 157 157 157 133 
133 100 121 24 68 100 121 121 100 88 59 59 24 68 68 88 100 100 100 100 133 100 
100 88 88 68 68 24 59 24 59 24 68 59 24 68 68 59 59 59 68 59 59 59 59 59 68 68 
68 59 59 68 88 100 121 100 100 100 100 100 133 157 157 133 133 121 100 59 88 
121 100 121 100 88 24 59 68 68 100 100 100 121 100 133 121 121 100 100 100 100 
68 59 24 68 59 24 59 59 59 59 59 59 59 59 59 59 59 59 59 59 59 88 88 68 68 68 
88 121 133 100 100 100 100 100 100 133 157 133 100 88 121 59 68 121 121 121 
88 68 68 59 59 100 88 100 133 121 121 100 133 133 121 100 100 68 59 59 59 59 
59 59 59 59 59 68 59 59 59 59 59 59 59 59 59 59 68 88 100 100 100 100 121 133 
100 121 133 121 88 88 100 133 121 88 88 88 68 24 59 100 88 88 100 88 59 24 68 
88 100 157 100 121 100 100 100 100 100 100 88 59 59 59 59 59 59 59 59 59 88 100 
59 59 59 59 59 59 59 59 59 59 68 88 100 121 157 157 133 121 157 157 100 157 
88 88 100 100 100 88 68 59 59 59 68 100 88 68 59 68 68 100 100 100 121 88 133 
121 133 133 100 100 68 59 59 59 59 59 59 59 59 59 59 59 59 100 100 100 68 59 
59 59 59 59 59 59 59 68 88 121 157 157 177 133 100 157 157 100 157 100 100 88 
88 68 59 59 24 59 68 100 88 59 59 59 68 100 88 121 157 121 121 100 121 100 100 
68 68 88 88 88 100 100 100 68 59 68 88 59 100 100 59 100 59 88 59 59 59 59 59 
59 68 88 88 88 121 157 157 157 157 121 100 157 88 100 100 100 88 68 59 59 59 
59 68 88 88 59 59 59 68 100 88 121 157 121 121 100 121 100 100 68 68 88 100 
88 100 121 100 88 59 68 88 59 100 100 59 88 68 68 68 59 59 59 59 59 68 88 88 
88 121 157 157 157 133 121 100 157 88 100 100 100 88 68 59 59 59 24 59 88 68 
59 68 59 68 68 100 121 157 100 88 88 100 100 100 100 88 100 100 121 133 133 
88 88 88 88 68 88 100 100 88 100 68 68 59 68 88 68 88 88 68 68 88 88 100 157 
157 157 121 88 88 100 100 100 88 100 100 68 59 59 59 59 68 88 59 59 59 68 59 
68 100 100 133 100 88 100 100 88 100 100 100 100 100 121 133 121 88 88 88 88 
88 100 100 100 68 88 59 68 88 68 88 100 88 100 100 88 88 88 88 121 157 133 100 
88 88 88 88 88 88 88 100 88 88 68 88 24 59 68 59 59 24 68 88 88 88 133 121 100 
88 100 100 100 68 88 88 88 121 133 100 100 88 68 100 100 100 121 100 121 88 88 
88 68 88 88 88 100 121 121 133 121 88 88 68 100 121 157 88 88 68 88 88 88 88 
88 100 100 121 100 100 59 59 88 59 59 59 88 100 133 121 157 121 133 100 121 
100 88 59 88 88 88 100 121 100 100 100 88 100 100 133 133 133 121 100 100 88 
59 88 88 133 133 133 157 133 133 100 88 68 68 100 133 100 88 59 68 88 88 88 88 
100 121 121 121 133 24 59 68 59 24 68 100 100 121 100 121 133 121 100 100 100 
68 59 59 88 121 133 121 100 88 100 100 100 133 157 177 157 133 133 133 100 88 
100 133 133 157 157 133 133 133 133 121 88 68 88 121 100 88 24 59 68 88 88 100 
100 121 133 133 133 59 59 59 68 59 68 100 100 100 100 100 133 100 100 100 88 
59 24 88 100 133 133 121 88 68 88 100 121 157 157 157 157 157 157 157 121 121 
133 157 157 157 133 133 133 133 133 121 88 68 68 100 100 88 59 59 59 88 100 
121 121 133 133 133 121 59 59 68 88 68 100 121 88 68 88 100 133 100 100 100 
68 68 59 88 100 133 121 100 88 59 68 100 133 157 157 177 157 157 157 157 133 
133 157 157 157 157 133 133 121 121 121 100 88 68 59 88 100 88 59 59 59 88 88 
121 121 133 133 121 121 59 68 68 88 88 100 121 88 59 68 100 157 100 100 100 
100 68 59 88 121 133 121 88 68 59 68 100 133 157 177 177 157 177 157 177 157 
133 133 157 157 133 157 121 100 100 100 100 100 68 68 88 100 100 59 59 59 88 
100 121 100 133 133 121 121 68 88 100 100 88 88 100 88 59 59 121 157 100 88 88 
100 68 59 88 133 121 100 88 59 59 68 88 121 157 200 157 157 157 157 177 157 
157 157 157 157 121 133 121 100 100 100 100 100 88 59 59 100 100 59 59 59 88 
100 121 121 121 121 121 100 68 88 100 88 88 100 88 88 59 59 100 133 100 88 88 
100 68 59 88 121 121 88 68 59 59 68 88 121 157 177 157 133 133 157 177 157 157 
157 157 157 121 121 133 100 100 100 100 100 88 68 68 100 88 68 59 59 88 100 
121 121 121 121 100 100 88 100 100 88 100 121 88 88 59 59 68 100 88 100 100 
100 68 24 88 100 88 88 68 68 68 88 121 133 157 133 133 100 100 133 157 157 157 
157 157 157 121 100 121 133 100 100 100 121 133 100 88 88 88 88 59 59 100 121 
100 121 100 100 68 59 121 121 100 100 100 121 88 59 68 68 88 59 59 88 121 88 
68 59 88 100 88 68 68 88 100 121 121 121 121 100 121 100 100 100 157 157 157 
157 157 157 157 121 100 100 100 100 100 121 121 121 88 59 68 59 59 59 88 100 
133 121 100 88 68 68 100 100 100 88 100 88 88 88 68 88 59 59 59 59 88 100 68 
59 88 100 68 59 88 100 121 157 157 133 100 100 133 100 157 100 157 157 157 157 
157 157 121 133 121 100 88 100 121 100 88 100 100 88 59 59 88 88 100 133 121 
121 100 88 68 59 88 88 88 59 68 88 68 100 88 59 59 59 59 59 88 100 68 59 88 88 
68 68 88 121 157 157 157 121 100 157 88 100 100 100 133 157 157 157 157 157 
157 121 100 100 88 68 100 88 59 68 100 88 59 88 88 59 100 133 121 121 100 68 
59 68 100 88 59 59 59 59 59 59 68 88 100 100 100 100 68 88 68 68 68 59 59 68 
121 133 133 133 133 133 133 100 100 100 157 100 100 157 157 133 121 133 157 
157 121 88 68 68 100 88 59 24 100 59 59 59 88 100 100 100 100 121 100 68 68 68 
88 68 59 59 59 59 59 59 59 68 121 121 121 100 100 100 88 68 59 59 59 88 100 
133 121 100 68 133 157 121 88 100 100 157 100 133 157 121 133 157 157 121 100 
88 59 59 24 59 59 59 88 59 59 88 88 88 100 100 100 100 100 88 88 88 100 88 59 
59 68 68 59 59 59 59 100 121 133 121 100 100 68 59 68 68 59 88 121 133 100 88 
68 100 121 100 88 100 133 121 100 157 157 133 121 100 133 157 133 100 59 59 59 
24 68 88 121 68 59 88 59 88 100 100 88 100 100 88 88 100 100 68 59 68 68 68 59 
59 59 59 100 133 157 121 100 100 68 88 88 68 59 68 121 100 88 88 59 68 68 68 
68 88 121 100 133 157 121 133 100 133 157 157 133 100 68 59 59 59 88 133 121 
68 68 68 68 88 100 100 100 100 100 100 100 100 100 88 59 68 68 59 59 59 59 59 
100 157 157 121 100 100 68 88 88 68 59 88 100 121 88 68 59 59 68 59 59 88 100 
100 133 157 121 121 100 133 157 157 121 100 68 59 59 68 100 133 121 59 88 59 
88 88 100 100 100 100 100 100 100 100 88 68 59 59 68 59 59 59 59 59 88 133 133 
133 121 100 88 68 88 68 59 68 121 121 100 100 68 59 59 59 24 88 88 100 157 121 
133 100 100 133 133 133 133 100 88 59 59 68 133 157 133 68 68 68 88 88 100 100 
100 100 100 121 100 100 88 68 59 59 59 59 59 59 59 59 68 121 133 133 88 100 
100 88 88 68 68 88 100 133 133 133 133 68 59 59 24 68 88 133 121 133 121 100 
100 121 100 121 121 100 88 100 100 133 157 157 133 88 59 88 88 100 121 100 88 
68 121 121 100 121 100 88 59 59 59 59 59 59 59 59 68 100 133 100 88 100 121 
100 100 88 88 68 100 133 157 157 157 133 88 59 68 59 88 121 100 121 100 100 
100 100 100 100 100 100 121 121 133 133 177 133 121 100 59 68 100 100 121 100 
88 68 121 121 121 100 100 68 59 24 59 59 59 68 59 68 68 100 100 100 100 100 
121 100 100 68 88 88 100 133 133 157 177 157 121 88 68 68 100 100 121 100 100 
100 88 88 88 100 100 100 100 121 133 133 177 133 121 88 59 59 100 121 121 100 
68 68 100 121 121 100 100 88 59 59 59 59 59 68 68 68 88 100 121 100 100 100 
121 100 88 88 88 88 121 133 133 133 133 177 157 133 88 100 121 121 133 100 100 
88 88 88 88 88 100 100 121 121 133 133 133 121 121 88 59 59 100 121 121 88 88 
68 100 133 121 121 100 68 59 59 59 59 59 59 88 68 59 88 121 100 100 121 133 
121 88 88 88 88 100 133 133 133 133 177 177 133 121 121 100 100 100 100 88 88 
88 68 68 88 88 100 121 100 121 121 133 121 121 68 59 68 100 133 121 100 68 68 
100 133 133 121 100 88 59 59 59 59 59 59 88 88 59 68 100 133 121 100 100 133 
121 100 88 88 88 121 121 121 133 133 177 133 133 121 121 121 121 100 100 68 68 
88 68 88 100 100 121 121 121 100 100 100 100 59 59 88 121 100 100 88 68 59 100 
121 133 121 88 88 68 59 59 59 59 68 88 68 59 100 100 121 100 100 133 121 100 
88 88 88 88 121 133 121 133 133 121 157 157 100 121 121 100 100 100 100 88 100 
100 100 100 121 100 121 121 100 100 100 88 59 59 88 88 121 100 88 88 59 88 100 
133 133 59 59 68 68 59 59 59 88 59 100 59 100 100 121 100 100 100 121 100 68 
68 68 68 100 121 133 133 121 133 157 133 100 100 121 157 100 121 100 100 100 
100 100 121 121 121 121 133 100 100 100 88 59 59 59 100 100 100 88 59 59 88 121 
121 121 59 59 68 88 59 59 59 88 59 100 59 100 100 121 100 100 100 121 100 88 
68 68 88 100 121 133 121 121 121 157 157 100 100 121 133 121 121 100 100 100 
100 100 100 121 100 121 133 100 100 88 88 59 59 59 100 100 100 88 59 59 88 100 
121 121 59 68 88 88 88 88 59 59 100 100 88 100 100 121 100 100 100 100 100 88 
88 88 88 88 100 100 100 100 100 100 157 121 121 100 100 133 121 100 121 121 
121 121 121 133 133 121 121 100 100 88 59 59 24 100 100 100 100 68 59 59 88 121 
121 121 88 88 88 88 88 68 59 59 59 59 100 121 100 100 100 100 100 100 121 100 
88 68 68 88 100 100 100 88 100 121 100 100 100 121 157 133 133 133 133 157 133 
133 157 133 133 133 121 121 88 88 59 59 59 88 100 88 100 88 59 88 133 177 200 
217 59 68 100 100 100 88 68 88 88 59 100 121 100 100 100 121 100 100 100 121 
68 59 68 88 88 100 88 88 88 121 121 121 100 100 121 133 157 133 133 133 133 
133 133 133 157 157 133 121 100 88 59 59 59 100 100 100 100 68 68 88 133 177 
177 200 59 68 100 100 100 88 68 68 68 59 100 100 121 100 100 100 68 68 100 100 
100 68 59 68 88 88 88 88 88 100 100 100 100 133 157 157 133 133 133 133 121 
100 100 133 133 157 157 133 88 68 59 59 59 100 100 100 88 68 88 68 121 100 121 
121 88 88 100 100 100 88 88 59 59 59 68 100 100 100 121 100 68 59 88 121 100 
68 59 59 68 88 68 88 100 100 121 100 100 133 157 157 133 133 121 100 100 88 88 
100 121 133 133 133 100 59 59 59 88 100 68 88 68 59 68 88 88 68 59 59 68 68 88 
100 100 100 100 88 88 68 59 68 100 100 100 68 68 59 88 121 121 88 68 59 59 59 
59 68 88 100 100 88 100 133 157 133 100 88 59 59 59 59 59 59 68 88 121 121 100 
68 59 88 88 100 59 68 59 68 68 68 68 59 59 59 59 68 88 68 88 88 88 68 88 88 59 
59 68 68 68 68 59 59 88 133 133 121 68 59 59 59 59 59 68 100 88 68 100 157 157 
100 68 59 24 59 59 59 59 59 59 24 88 100 100 88 68 121 121 100 88 68 68 68 88 
68 68 59 59 59 68 88 88 88 88 88 68 68 88 68 59 59 59 59 59 59 59 59 88 133 
157 121 68 59 59 59 59 59 59 88 88 59 88 157 157 88 59 59 24 59 59 88 68 59 24 
59 59 88 100 68 59 121 100 100 68 100 59 59 68 88 68 68 68 59 88 88 88 88 88 
88 59 59 88 59 59 59 59 59 59 59 24 59 88 133 157 133 88 59 59 59 24 59 59 88 
88 59 88 133 157 68 59 24 24 59 68 88 88 24 59 24 59 88 88 59 68 121 100 100 
59 100 59 59 59 88 68 88 88 68 68 68 88 88 88 88 68 59 68 59 59 59 59 59 59 59 
24 59 88 133 157 133 88 59 59 59 24 59 59 68 68 59 88 157 157 59 59 24 24 59 
68 88 88 59 24 59 24 88 88 68 88 121 100 100 68 100 59 59 68 88 68 88 88 68 59 
68 88 88 88 100 88 68 68 68 59 59 59 59 59 59 59 59 68 121 133 157 121 68 59 
59 59 24 59 59 59 59 88 133 177 59 24 24 24 24 59 68 68 59 24 24 59 68 100 88 
100 133 100 100 100 100 68 68 88 68 68 68 68 68 59 88 100 100 100 100 100 100 
88 88 68 59 59 59 24 59 59 68 68 88 121 133 133 100 68 59 59 24 59 59 59 68 100 
133 133 68 59 24 24 24 24 24 24 24 24 24 24 100 121 100 100 133 100 100 100 
100 100 100 88 68 68 68 68 68 59 100 133 100 121 100 100 88 68 88 88 59 24 59 
59 59 59 88 88 68 88 121 133 100 88 68 68 59 59 24 59 88 100 133 157 100 24 24 
24 24 24 24 24 24 24 24 59 100 121 121 100 133 121 100 100 121 88 100 100 88 
68 88 88 68 59 88 121 121 100 100 100 100 100 100 59 88 59 59 59 59 88 121 100 
88 88 88 100 121 133 121 100 88 59 59 59 88 121 133 157 121 88 24 24 24 24 24 
24 24 59 59 88 121 133 121 100 133 121 100 88 88 100 121 88 88 68 88 88 88 59 
68 100 121 100 121 121 121 121 100 88 59 88 59 59 59 88 133 121 88 68 68 88 121 
133 157 133 100 88 59 59 100 121 157 177 100 100 68 59 24 24 24 24 24 24 59 100 
157 133 133 121 100 121 100 68 100 88 88 88 88 88 68 68 68 59 68 88 100 100 
121 121 121 121 100 100 100 88 88 88 59 88 100 121 100 100 68 59 68 88 100 157 
133 133 88 59 100 121 157 177 200 157 100 68 24 24 24 24 24 88 100 133 157 157 
121 121 100 100 100 100 100 68 88 100 100 88 68 100 88 59 59 68 88 88 100 100 
100 100 100 100 100 100 88 88 68 59 59 88 121 100 68 59 59 59 68 100 157 121 
88 59 88 100 177 177 157 157 133 100 68 24 59 24 59 68 100 100 157 157 121 121 
157 121 100 100 100 68 88 88 88 88 88 68 88 59 59 59 68 88 88 100 121 100 157 
100 100 100 100 88 88 59 59 88 88 100 100 68 59 59 59 68 121 133 121 88 68 121 
157 200 157 133 121 88 68 59 24 59 24 68 68 121 157 133 121 100 157 121 100 
100 100 100 68 88 68 68 88 100 88 59 59 59 68 88 88 100 121 100 157 100 100 
100 100 88 88 68 59 88 88 88 100 88 59 59 59 68 121 133 121 100 68 121 157 177 
177 133 121 88 59 24 59 59 24 68 68 121 157 157 121 100 157 121 100 100 100 
100 68 100 68 88 88 100 88 59 59 59 59 59 68 100 100 121 121 121 100 121 100 
88 88 59 59 68 100 100 121 68 59 59 59 68 121 133 121 88 88 121 133 177 177 
157 100 68 59 59 59 59 59 59 68 100 157 133 133 133 157 121 100 100 100 100 
100 68 88 68 68 68 68 59 59 59 59 68 88 100 100 121 133 157 100 100 100 100 
88 68 59 68 68 88 100 100 59 59 59 68 100 121 133 100 68 100 121 177 157 157 
100 88 59 59 68 68 68 59 68 121 157 133 133 157 177 133 100 100 100 88 68 88 
88 68 68 68 100 59 59 59 59 68 88 100 133 121 133 157 133 121 88 100 100 68 59 
59 59 68 100 68 59 59 59 68 88 133 133 121 88 121 133 157 157 133 100 68 88 100 
121 133 121 88 88 88 121 133 133 157 177 157 121 121 100 100 100 100 88 68 68 
59 59 59 59 59 59 59 88 121 157 133 133 157 157 121 100 100 100 88 68 68 59 68 
68 68 59 59 59 68 88 133 177 133 100 121 133 157 133 88 88 100 121 121 121 121 
121 88 88 68 100 133 133 157 177 157 133 121 100 121 121 100 100 59 59 59 59 
59 59 59 59 59 88 100 133 133 121 157 157 121 133 100 121 100 100 68 59 59 59 
59 59 59 59 59 88 121 157 157 100 121 121 133 121 88 68 100 100 100 100 100 
88 88 88 88 88 100 121 157 177 177 157 133 121 121 121 121 121 59 59 59 59 
