P2
64 64
255
126 125 125 107 94 94 107 94 93 94 94 93 93 107 125 116 125 116 94 93 82 107 
125 126 125 107 76 49 37 54 68 82 93 93 94 93 68 39 39 37 76 93 76 82 82 82 93 
116 136 143 143 151 151 159 159 167 159 136 125 116 116 125 126 126 125 125 
116 107 94 107 107 94 94 94 94 82 93 94 116 125 125 116 107 94 94 107 126 126 
126 107 82 68 54 68 82 93 94 107 107 107 82 68 54 68 93 93 82 93 93 93 107 125 
136 143 136 143 151 159 167 159 159 126 116 107 107 125 125 126 125 116 116 
116 116 107 107 94 94 93 93 76 82 93 107 116 116 116 116 116 116 125 126 126 
126 116 93 82 94 107 107 116 125 126 136 126 116 116 107 94 116 116 107 107 
107 107 125 126 143 143 126 136 143 159 167 167 151 125 94 94 94 116 125 125 
107 107 116 116 125 116 107 107 94 94 94 82 82 93 94 94 94 116 125 126 126 143 
143 136 126 116 107 107 125 126 136 126 136 151 151 143 126 126 126 126 136 
136 126 126 126 136 143 151 159 159 143 143 159 167 167 159 151 116 116 107 
94 94 116 125 94 94 107 116 125 107 116 125 116 107 94 93 82 107 107 94 107 
116 126 136 151 159 167 159 151 126 126 126 136 143 136 143 151 159 159 143 
143 143 143 151 151 151 151 151 159 151 177 187 193 193 187 167 177 177 167 
159 143 116 94 94 94 94 107 116 93 93 107 116 107 107 125 125 126 125 116 82 
94 125 116 107 125 136 159 177 187 193 193 177 167 151 143 151 143 143 143 136 
151 167 159 151 143 151 151 159 167 159 167 167 167 177 187 203 206 206 203 
203 193 193 167 159 151 126 116 93 93 94 107 107 93 94 94 94 107 107 125 116 
126 126 125 76 94 125 125 125 136 167 193 203 203 203 203 187 177 151 151 151 
143 126 126 143 151 167 159 159 151 151 159 159 167 177 177 177 177 177 193 
203 206 216 206 206 203 193 187 167 167 159 143 126 116 94 107 107 93 93 93 94 
107 94 107 116 107 107 107 93 126 151 159 177 187 193 206 206 203 203 193 177 
177 167 177 177 167 167 167 177 177 177 167 159 167 167 167 167 193 203 203 
203 193 193 193 203 203 203 206 206 206 203 187 159 151 151 151 143 126 107 
94 116 94 94 93 82 93 93 93 94 116 94 107 93 125 136 159 167 187 203 206 206 
206 193 177 167 167 177 177 187 193 187 187 193 203 203 193 187 177 187 177 
187 193 216 206 206 203 203 203 203 203 203 206 216 206 203 187 177 143 143 
143 143 126 107 94 107 107 94 93 82 93 93 93 93 116 107 107 94 125 126 151 177 
187 193 206 206 206 203 177 167 159 167 177 193 193 203 203 203 206 206 206 
203 193 193 193 203 206 216 216 216 206 206 206 203 203 203 206 216 216 203 
193 177 151 126 126 136 126 116 94 94 94 107 94 93 94 94 94 94 107 94 107 107 
126 136 151 167 187 203 206 206 203 193 167 159 159 167 177 203 203 206 206 
206 206 222 216 206 203 203 203 206 216 216 216 216 222 216 206 203 193 193 
203 206 206 206 203 187 159 126 125 126 125 107 94 94 93 93 93 93 107 107 107 
107 107 94 93 107 126 136 151 167 187 203 206 206 203 187 159 159 151 167 177 
203 206 206 206 216 216 216 216 216 203 203 203 216 216 216 222 222 216 216 
206 203 203 193 193 216 206 206 203 193 187 143 126 126 125 107 107 94 82 82 
82 93 94 116 107 107 94 93 76 107 126 143 159 177 193 203 203 203 193 177 159 
151 159 159 187 203 206 206 216 216 216 222 222 216 203 203 206 222 222 222 
216 222 222 216 206 206 203 193 193 206 206 206 206 193 187 167 143 126 125 
107 93 94 93 82 82 93 94 116 107 107 93 68 68 116 136 143 159 177 193 203 203 
193 177 167 151 159 159 177 193 203 206 206 216 222 222 216 222 216 216 206 
216 222 216 222 222 216 216 216 206 206 203 193 193 206 206 206 203 203 187 
177 159 136 125 107 93 94 94 94 93 93 107 94 94 94 82 76 68 116 126 143 159 
187 193 193 193 187 167 167 151 159 159 187 193 203 206 216 216 216 222 222 
216 216 216 216 222 222 216 222 216 216 206 203 203 203 203 203 193 203 203 
203 203 193 187 167 167 143 126 107 94 94 107 107 107 107 107 107 94 82 76 76 
76 107 126 143 159 177 187 187 187 167 167 159 159 167 167 187 187 193 203 206 
216 216 222 222 222 222 222 222 216 216 216 216 216 203 193 187 193 203 203 
203 193 203 203 203 203 193 187 167 167 159 136 125 94 94 94 116 125 126 126 
116 93 76 68 68 76 107 126 151 159 177 177 177 167 167 167 159 167 167 177 177 
177 187 193 203 206 216 216 216 222 216 222 222 222 216 206 206 206 187 177 
177 187 203 203 203 203 193 203 193 193 193 187 159 159 159 151 125 94 94 94 
107 107 116 116 94 82 76 68 54 76 107 126 143 159 177 177 167 167 159 167 167 
177 177 187 177 177 167 177 193 203 206 206 216 216 222 216 222 216 222 206 
206 203 187 177 187 193 193 203 203 193 193 193 187 193 193 177 159 159 151 
143 136 116 107 82 82 82 93 93 82 82 82 76 82 82 93 125 143 159 167 167 159 
167 167 167 167 177 177 167 167 151 159 159 177 193 203 203 206 216 216 216 
216 222 216 203 203 203 187 177 177 177 187 187 193 193 193 193 187 187 187 
187 151 151 143 125 125 116 107 68 76 82 76 76 82 76 94 93 94 82 93 125 143 
167 167 159 167 167 167 159 167 177 177 159 126 126 126 151 159 177 187 203 
203 206 216 216 216 216 216 203 203 203 193 177 159 143 151 177 187 193 193 
193 187 187 187 187 167 159 151 126 125 116 107 93 82 93 82 76 76 76 94 93 94 
82 93 125 143 159 159 159 159 159 159 167 167 177 159 143 82 76 82 126 151 159 
193 203 203 203 203 206 206 206 206 206 203 203 177 151 126 116 93 116 151 187 
187 187 177 177 177 187 167 151 143 126 126 107 107 93 93 93 82 76 76 76 94 107 
94 82 82 125 151 159 159 159 159 159 159 167 167 159 136 107 39 37 49 107 126 
159 187 193 193 193 203 203 203 206 206 203 203 203 167 125 94 93 54 49 93 143 
177 187 177 159 177 187 167 159 143 136 125 107 94 93 93 82 82 76 76 82 116 
116 107 82 82 126 143 159 159 151 159 159 159 159 167 143 107 76 13 24 24 76 
107 136 167 187 187 193 203 203 203 203 203 203 203 203 159 116 82 49 24 37 49 
107 177 177 177 159 167 187 177 167 159 143 126 116 94 107 94 93 76 76 68 76 
125 116 94 94 93 125 143 151 151 151 151 159 159 167 167 126 93 54 6 13 13 39 
68 107 143 167 177 193 193 203 193 203 203 203 203 203 167 125 93 37 13 24 54 
116 159 187 167 159 167 187 167 159 159 143 136 125 107 107 94 82 82 82 76 76 
107 107 116 107 93 107 136 151 159 143 151 159 159 177 177 143 136 107 37 21 
21 21 39 82 116 143 177 177 187 193 187 187 177 187 193 203 193 159 126 82 68 
76 93 126 177 187 187 167 167 187 159 151 143 143 143 126 107 94 94 93 93 93 
76 82 94 94 94 94 93 107 136 159 151 151 151 167 177 177 177 159 159 143 93 68 
49 49 54 82 116 151 167 177 187 177 167 167 159 177 187 193 203 193 167 126 
125 125 126 159 187 193 193 167 167 193 159 151 143 151 143 126 116 94 94 93 
94 94 82 82 93 94 93 82 93 116 136 159 159 151 159 167 177 193 187 167 159 167 
126 116 94 93 94 116 136 167 177 177 167 167 159 151 151 159 187 193 203 203 
187 159 159 159 167 167 187 203 193 177 167 187 159 143 143 151 151 143 125 
94 94 82 93 94 82 82 82 93 94 93 93 116 143 167 159 151 159 167 187 193 193 
159 159 167 159 143 126 126 136 143 159 167 177 167 167 143 143 136 136 159 
177 193 203 203 203 187 187 193 187 187 193 203 203 177 167 177 151 151 151 
151 159 151 136 93 82 82 82 94 82 82 76 82 93 82 93 116 151 159 159 159 167 
167 187 203 193 167 151 159 167 167 159 151 151 151 159 167 167 167 151 143 
126 136 125 151 177 187 203 203 203 193 193 193 193 193 203 216 206 177 167 
177 151 143 151 159 159 151 143 82 93 82 93 94 93 76 76 76 76 76 93 125 151 
167 159 167 167 177 187 203 193 187 159 159 177 177 177 167 159 159 159 159 
159 159 159 143 143 136 107 136 167 177 193 193 193 193 203 193 193 203 206 
216 216 177 167 167 143 151 151 159 159 151 136 82 93 93 93 94 94 82 76 76 76 
76 93 125 151 167 159 159 167 187 193 203 203 187 177 167 159 167 177 167 159 
159 159 159 167 159 159 159 151 143 126 136 151 177 177 193 193 193 203 193 
193 203 216 216 206 187 167 167 143 143 159 159 159 143 126 76 76 93 93 93 93 
93 82 82 76 82 116 126 151 151 159 159 177 187 193 203 203 193 187 177 159 159 
177 167 167 159 151 151 159 159 151 159 143 143 136 143 159 167 187 187 187 
193 203 203 203 206 216 216 206 187 159 167 143 143 159 167 159 136 125 94 116 
107 93 82 94 82 93 94 82 82 125 136 151 151 159 167 177 193 203 203 203 203 
187 177 159 159 159 167 159 159 151 143 151 159 159 151 151 151 151 159 159 
159 187 193 193 203 203 203 203 203 206 222 206 193 159 167 136 143 159 167 
159 126 107 125 116 107 94 94 94 93 94 107 107 125 126 143 151 159 167 167 177 
193 203 203 203 193 187 177 159 151 151 159 159 151 143 151 151 167 167 151 
143 126 136 143 136 125 151 177 187 203 203 203 203 203 206 206 206 193 136 
136 151 143 151 159 143 107 93 125 116 107 107 94 93 82 116 125 125 126 136 
143 151 159 159 159 177 193 203 203 193 187 177 177 151 151 151 167 159 159 
143 151 159 167 159 136 125 107 82 82 68 54 94 136 167 193 203 203 193 203 203 
206 206 177 136 125 151 151 143 151 143 125 93 125 116 107 94 93 93 93 107 125 
125 126 136 151 151 151 151 159 177 187 193 193 193 177 177 167 159 151 151 
159 167 151 151 159 167 167 143 116 82 68 37 24 21 24 49 93 125 177 203 206 
203 203 203 203 203 167 126 116 151 159 143 151 143 126 94 125 116 107 94 93 
93 94 116 126 126 125 136 151 143 143 151 151 167 177 187 187 177 167 167 167 
159 159 159 167 159 151 151 167 167 159 125 68 39 24 13 21 21 21 37 49 82 159 
203 206 203 203 193 193 193 167 126 94 126 159 151 151 143 126 107 125 125 107 
94 94 94 107 107 126 126 125 136 143 143 143 143 143 151 167 167 167 167 151 
159 159 159 167 159 159 151 159 159 159 167 143 93 21 13 6 21 39 49 39 49 39 
54 126 193 203 203 203 193 193 187 159 136 94 125 143 151 151 143 126 107 125 
125 125 107 94 116 94 116 125 125 116 136 136 136 136 143 143 143 159 159 159 
159 159 159 159 167 159 159 151 151 143 151 167 159 125 54 6 6 6 24 76 68 68 
68 54 54 94 159 193 193 193 193 193 187 159 136 116 125 143 151 151 136 125 
107 126 136 126 116 93 107 94 107 107 107 107 126 136 125 126 136 136 136 151 
159 159 159 159 159 159 159 167 159 159 143 143 151 159 151 94 37 6 6 13 37 54 
68 68 54 68 54 76 136 187 193 193 203 187 187 151 143 126 125 126 143 136 126 
116 107 143 143 136 116 82 93 93 116 94 107 107 116 116 107 125 136 126 126 
143 151 159 167 159 159 159 159 159 159 151 143 136 151 167 143 82 21 6 6 13 
21 37 49 49 37 39 39 76 126 177 193 193 193 187 177 143 151 143 126 126 125 
116 116 94 93 151 151 143 125 93 82 107 126 125 116 107 94 93 94 116 126 126 
136 151 167 159 159 159 151 159 151 159 151 159 151 151 159 167 143 82 21 6 13 
6 6 21 21 21 13 24 39 82 136 187 193 187 177 177 177 143 143 151 143 126 116 
94 94 93 76 159 151 151 136 116 107 125 143 136 125 94 93 82 94 116 125 125 
143 177 177 159 143 151 136 136 151 151 151 151 159 159 167 167 143 107 54 13 
13 6 6 13 6 13 13 37 54 107 159 193 193 159 143 167 159 143 143 159 143 125 
107 107 93 82 76 151 151 136 126 125 116 125 136 126 125 125 116 125 125 125 
126 126 151 167 177 167 151 136 125 116 151 151 151 151 167 177 177 177 151 
126 94 37 24 24 6 24 6 6 24 49 82 126 177 193 193 167 143 159 159 136 143 159 
136 125 94 107 93 82 82 159 151 136 126 125 125 125 126 136 125 107 125 126 
125 126 136 136 143 167 177 167 159 143 136 125 151 151 151 159 177 177 177 
167 159 136 116 76 49 21 6 13 6 6 24 54 107 151 177 193 193 177 167 167 159 
151 143 151 126 125 94 107 93 94 93 151 151 143 136 125 125 125 126 136 136 
126 116 125 126 136 143 136 143 159 187 187 177 159 159 136 151 151 159 159 
177 177 167 167 151 136 116 107 76 21 6 6 6 13 24 76 125 159 187 193 203 193 
177 177 159 151 143 143 143 116 107 116 116 107 116 159 151 151 143 126 125 
125 125 126 143 143 116 107 125 126 126 126 126 143 159 177 167 167 167 151 
126 151 151 159 177 187 177 167 151 136 125 116 94 68 21 13 13 21 54 107 136 
167 187 193 203 187 177 167 159 151 143 143 136 125 125 126 125 125 125 159 
159 151 143 126 125 116 116 126 143 143 126 116 116 125 126 126 126 126 136 
143 151 177 167 151 125 136 143 167 187 187 177 167 159 143 126 116 94 82 68 
49 49 49 94 126 151 167 193 193 203 187 167 167 159 151 143 136 136 125 125 
125 116 125 126 151 151 151 151 126 125 116 116 126 143 143 126 116 116 125 
116 116 125 125 126 136 143 177 177 159 116 125 136 159 177 177 167 167 167 
151 136 116 107 93 82 76 82 76 107 126 151 177 193 193 193 177 167 167 159 136 
136 136 116 116 116 116 125 125 116 151 151 143 143 136 126 126 125 126 151 
143 116 116 116 125 116 116 125 125 126 136 143 167 167 159 125 116 126 159 
167 177 177 177 159 159 143 125 107 94 94 94 94 93 116 136 159 177 187 193 187 
177 167 167 151 126 136 126 125 116 107 107 116 94 94 151 151 151 143 143 143 
143 136 136 151 151 126 125 136 126 126 116 107 94 116 136 143 159 159 159 136 
116 125 151 167 167 167 167 159 151 143 125 116 107 107 49 49 68 116 136 151 
167 177 177 177 177 167 167 151 126 126 126 125 107 94 94 82 76 68 159 151 151 
151 151 151 143 151 143 151 143 136 126 143 143 136 116 93 93 107 126 151 151 
151 151 151 126 125 143 159 159 167 151 143 143 126 126 116 94 93 37 37 49 107 
136 151 159 159 167 177 167 177 167 151 126 136 136 126 107 93 76 54 39 39 151 
159 151 151 151 151 151 151 143 143 136 136 136 136 151 136 116 93 93 107 143 
151 151 151 151 159 143 126 136 143 143 143 143 126 125 125 125 116 93 82 68 
68 76 107 125 143 136 143 167 177 177 167 167 159 136 136 136 126 116 82 68 37 
24 21 159 151 151 151 151 159 159 159 143 143 136 136 136 136 136 136 125 94 
93 94 136 159 159 151 151 151 151 136 116 116 116 125 107 107 107 125 126 125 
116 94 125 116 94 116 126 143 125 126 167 177 177 167 167 167 151 143 143 126 
107 82 49 37 13 13 151 159 151 159 151 159 167 151 151 143 143 136 136 136 136 
136 125 107 93 93 116 159 159 159 143 143 151 136 68 54 76 76 76 82 94 116 136 
136 143 143 136 136 136 116 136 143 116 126 167 177 187 167 167 167 159 143 
143 125 107 76 39 39 24 6 159 151 151 151 151 159 167 151 151 143 143 136 143 
151 136 126 126 125 107 94 116 143 167 159 151 143 136 125 68 24 24 21 37 54 
76 93 143 151 143 151 151 143 143 125 136 136 116 136 167 177 177 159 159 167 
167 151 143 116 94 82 54 68 39 13 159 151 151 143 159 167 159 159 151 143 143 
143 143 151 143 136 136 126 136 125 125 136 177 159 159 143 136 125 82 49 24 
6 13 37 37 76 136 159 143 143 151 143 143 136 136 125 93 126 159 167 177 167 
151 143 167 159 143 125 107 93 68 68 49 21 159 159 143 151 159 167 159 159 151 
151 143 151 143 151 151 136 136 136 143 126 125 136 177 167 159 151 143 143 
93 54 37 21 6 13 24 54 116 136 143 151 143 151 143 143 126 94 93 126 167 167 
177 177 143 126 143 143 136 125 94 76 39 54 49 24 151 151 143 143 151 159 167 
159 159 151 151 143 151 151 151 151 143 143 159 143 136 136 159 177 167 159 
159 151 94 68 39 13 6 13 24 39 76 94 116 116 125 143 136 136 107 76 93 136 167 
167 177 177 143 125 126 143 136 107 107 82 49 54 68 54 143 151 151 151 159 167 
167 167 167 151 151 159 159 159 159 151 159 167 177 177 151 143 151 159 167 
167 167 177 151 125 93 68 39 24 24 24 24 39 68 76 68 82 107 94 82 76 125 159 
167 177 167 159 151 136 126 126 126 136 136 126 125 93 76 76 151 151 151 159 
159 167 177 177 167 151 151 167 167 167 151 151 159 167 177 177 167 151 136 
151 159 167 167 177 151 143 126 107 76 49 39 39 37 24 37 37 49 49 82 82 76 82 
126 159 167 177 167 159 151 143 126 126 143 143 143 143 126 94 82 76 151 159 
151 151 167 177 177 177 159 151 159 167 177 159 151 159 159 167 177 167 167 
151 136 136 151 159 167 177 159 159 151 136 94 68 54 68 54 49 49 39 39 49 54 
76 82 107 143 167 167 167 167 159 151 136 125 126 136 143 151 151 136 94 93 76 
159 151 151 159 159 177 187 167 151 159 167 177 177 177 167 159 159 167 167 
177 167 159 136 126 136 151 167 177 167 159 159 151 125 82 82 82 82 76 82 68 
54 68 76 82 116 126 151 167 167 167 177 159 143 126 125 126 136 136 126 125 
116 94 93 82 151 159 151 151 167 187 187 159 151 167 177 177 177 187 177 167 
167 159 167 167 167 159 136 116 125 151 159 167 167 167 167 159 136 107 94 94 
94 116 94 76 93 107 94 116 126 143 159 167 167 177 167 159 136 126 125 126 136 
136 107 94 93 93 93 93 
