P2
64 64
255
224 224 224 218 213 213 213 204 224 213 193 204 204 193 204 204 204 213 213 
204 213 213 213 213 213 204 182 167 170 167 167 178 167 167 167 167 167 167 
178 182 193 213 204 193 170 154 182 193 204 204 204 213 218 213 204 204 204 
213 213 204 204 213 193 193 224 224 224 218 218 213 213 213 218 204 193 204 
204 204 204 193 213 204 204 204 213 204 193 193 182 182 178 154 167 154 148 
154 148 148 154 148 154 154 167 170 178 193 204 182 170 167 193 182 204 204 
204 213 213 213 204 213 204 213 204 213 204 213 193 193 224 224 224 224 213 
213 204 213 204 193 193 193 204 193 193 204 193 193 193 193 178 170 170 154 
154 154 148 148 148 148 134 130 123 130 123 130 134 134 134 148 154 170 182 
182 167 178 193 193 193 204 204 204 213 204 204 213 213 204 204 218 213 204 
204 193 218 218 218 218 213 218 204 204 204 193 182 182 193 193 193 193 193 
193 182 148 85 123 148 134 134 134 148 148 154 154 148 148 123 123 130 130 130 
148 148 148 134 134 134 178 178 178 182 193 182 182 193 193 204 213 204 204 
213 204 204 213 204 204 213 204 224 218 213 218 204 213 204 204 204 204 182 
167 167 182 182 182 178 170 167 134 77 123 134 148 148 148 148 148 154 154 148 
134 123 134 134 134 154 154 148 154 154 154 134 134 167 170 178 178 170 170 
178 182 193 204 213 204 204 204 204 218 213 213 204 204 213 218 224 218 218 
204 213 204 204 178 167 134 148 167 178 193 170 154 154 148 106 148 148 148 
154 154 148 130 134 134 134 123 123 130 148 154 154 154 167 154 148 154 154 
154 154 148 134 134 130 134 154 154 170 178 182 213 213 213 213 204 213 213 
204 213 193 204 218 213 204 204 204 193 193 178 170 154 170 167 167 167 148 
123 123 148 148 148 148 154 148 154 154 154 148 134 154 123 123 148 148 154 
154 154 154 154 148 134 148 148 123 123 85 77 88 113 130 130 130 148 167 170 
204 204 213 204 204 204 213 213 193 204 204 204 204 193 193 204 182 170 167 
154 154 167 154 134 134 123 123 148 154 134 148 148 154 154 154 148 148 148 
134 134 134 154 154 154 154 154 154 148 148 148 134 134 123 123 85 68 68 88 113 
113 113 113 123 154 193 204 204 204 213 204 204 204 182 193 193 193 193 204 
204 193 182 178 167 167 154 148 134 130 113 106 123 148 148 134 148 154 154 
154 154 148 148 148 148 134 154 154 154 154 154 154 154 148 134 148 134 134 
123 113 88 85 68 88 100 100 106 106 113 148 178 193 193 204 204 213 204 204 
182 182 193 193 204 204 193 193 182 170 154 148 148 134 130 106 100 100 123 
134 134 134 148 154 154 154 154 154 154 148 148 134 154 154 154 154 154 148 
148 134 134 134 134 130 113 113 106 85 68 85 88 100 88 100 100 123 154 182 182 
204 204 204 213 213 193 193 204 204 193 204 193 193 182 148 123 123 123 123 
106 88 88 106 106 130 123 130 130 148 154 154 154 154 154 154 148 134 154 148 
148 148 134 134 134 134 130 130 123 123 113 113 100 85 77 77 77 85 85 85 77 100 
148 178 182 204 204 204 204 204 213 213 204 204 193 193 182 193 170 113 100 
100 100 100 100 88 100 100 106 123 123 123 123 134 148 148 154 148 154 154 148 
134 148 130 130 130 123 113 123 123 123 113 113 113 123 123 88 85 68 60 60 68 
77 77 77 85 148 178 193 193 204 204 193 193 204 204 204 182 182 193 193 170 
130 88 85 85 88 100 100 85 85 88 113 123 113 123 123 130 130 130 130 148 154 
148 134 134 134 123 123 106 113 106 106 123 123 123 113 106 123 123 106 68 60 
45 48 48 60 77 77 88 130 170 178 204 204 204 204 213 213 213 204 182 170 193 
178 130 88 60 68 88 100 100 88 77 77 88 123 100 113 123 100 113 130 123 123 
130 134 148 148 123 123 100 113 106 100 88 85 100 123 123 123 113 123 113 106 
60 45 45 45 48 60 68 77 85 85 148 178 193 193 204 204 204 213 213 193 182 182 
170 130 77 60 68 88 100 106 100 77 60 77 100 100 123 123 106 77 85 100 113 113 
113 134 134 134 123 123 113 123 113 100 88 88 100 106 123 123 123 100 123 100 
68 45 34 45 45 60 77 77 85 68 100 130 170 204 204 204 204 213 213 204 193 170 
148 106 77 60 85 100 113 106 88 68 48 88 100 88 123 106 77 60 77 85 100 113 
123 123 130 134 123 123 123 123 113 106 88 88 100 100 106 123 123 106 106 123 
85 34 34 45 45 60 68 77 77 68 88 106 148 182 213 204 204 204 213 204 182 154 
123 88 68 60 88 100 88 88 77 48 60 85 100 100 106 88 48 34 48 77 106 123 123 
123 130 123 123 123 106 130 123 88 68 48 45 34 48 77 100 100 113 106 88 45 34 
28 34 68 68 48 60 68 77 85 123 167 193 204 213 213 204 204 170 123 100 85 68 
60 85 88 85 77 60 45 60 88 106 88 77 48 19 11 28 45 85 106 113 123 123 123 106 
130 123 130 113 77 45 28 11 11 19 28 68 106 106 100 85 48 34 19 34 48 68 60 34 
60 68 85 88 123 178 204 204 213 213 182 148 100 100 77 60 77 85 85 77 60 45 45 
48 85 88 77 34 19 11 8 19 28 48 88 106 123 123 123 113 130 123 123 106 60 34 
19 11 8 11 11 34 100 100 100 85 48 34 28 34 48 68 77 45 45 60 77 85 106 170 
204 204 204 204 170 113 88 88 68 48 77 85 85 68 48 45 34 45 68 77 60 28 11 11 
8 11 19 45 77 106 130 123 113 113 123 106 113 100 48 34 19 11 8 11 19 28 85 88 
100 77 48 34 28 34 45 60 77 60 34 48 68 77 88 167 193 204 204 193 154 77 77 77 
60 48 85 85 85 68 48 34 28 28 48 60 68 48 19 11 8 11 28 48 85 106 130 123 106 
106 123 106 106 100 68 45 11 11 11 11 19 28 85 85 77 48 45 28 28 34 48 60 68 
68 34 48 60 68 85 148 182 204 204 204 148 48 60 48 45 48 88 85 77 77 48 28 19 
28 48 68 77 68 45 11 11 19 45 68 106 123 123 106 113 106 123 123 106 106 88 60 
28 11 11 11 28 34 85 68 60 45 34 28 28 34 45 48 68 68 34 48 48 68 85 134 178 
193 204 193 148 45 48 45 34 60 85 85 85 60 34 19 19 28 60 88 88 100 68 45 28 
48 77 100 113 123 123 113 106 123 106 123 106 113 106 85 48 28 28 34 60 85 85 
85 68 45 34 34 34 45 45 48 60 60 34 45 45 60 77 106 148 178 218 204 134 48 45 
28 34 68 85 85 85 60 45 34 19 28 77 100 100 85 85 85 88 100 100 106 106 106 
123 123 100 106 123 123 100 100 113 113 100 68 68 85 85 100 100 106 100 60 28 
34 48 48 48 48 48 60 48 45 45 48 60 77 106 130 204 182 123 28 28 34 45 60 60 
77 77 68 45 28 19 34 77 100 100 85 85 88 100 113 113 106 100 106 123 106 113 
100 123 100 100 106 100 123 113 100 88 100 100 100 100 113 100 60 34 34 48 48 
48 45 45 48 48 45 45 45 45 68 88 113 193 178 113 19 28 28 48 48 48 68 68 68 45 
19 19 28 68 106 100 77 85 88 113 113 113 106 100 106 123 100 106 100 106 113 
100 100 106 113 123 113 106 100 100 88 100 130 106 85 34 45 60 60 48 45 45 48 
45 45 45 45 34 48 77 100 193 170 88 19 19 28 45 45 48 60 77 77 34 19 19 28 60 
106 106 85 85 88 113 113 106 106 106 106 106 100 106 100 106 100 106 100 100 
106 123 123 106 100 85 88 123 123 106 85 45 45 60 68 60 48 45 45 45 45 34 34 
34 45 77 106 193 167 85 11 19 34 34 34 34 60 68 68 45 19 19 28 60 100 106 88 
85 100 106 106 88 100 100 100 106 88 100 88 106 88 106 88 88 88 113 113 106 
88 85 100 130 113 113 85 45 45 60 68 68 48 45 45 34 34 34 28 28 34 77 123 193 
167 68 11 19 28 34 28 34 45 68 68 45 11 19 34 68 100 100 106 85 100 106 100 
88 88 100 88 88 85 77 85 100 88 100 85 85 85 106 113 106 88 88 106 123 113 113 
85 45 45 60 68 60 60 34 34 34 34 34 19 28 45 68 106 193 148 60 11 19 19 28 19 
34 48 60 68 34 11 19 45 77 88 106 106 85 106 100 88 85 85 88 85 68 68 68 85 88 
100 88 85 85 88 106 106 106 106 100 106 123 113 113 85 34 45 60 68 60 45 34 28 
28 34 28 28 28 45 60 88 193 148 45 11 19 19 19 28 34 48 60 60 34 11 19 48 77 
100 100 100 100 100 100 88 85 85 85 77 68 60 68 85 88 100 85 77 85 88 100 106 
113 106 106 113 113 123 113 85 45 45 68 68 60 45 28 28 19 34 19 19 19 34 68 100 
193 134 45 11 11 19 19 34 45 60 60 60 28 11 28 68 77 85 88 106 106 100 88 85 
85 88 77 68 60 68 68 68 88 85 85 85 85 85 85 88 106 113 113 123 113 130 100 
68 28 48 68 60 48 48 28 19 19 34 19 19 28 45 85 113 193 134 34 11 11 19 28 28 
48 60 77 60 28 11 28 60 77 85 88 113 113 88 88 88 88 85 77 68 60 60 60 77 85 
100 88 88 85 85 85 85 88 123 130 123 130 123 106 60 28 45 60 68 68 45 28 19 19 
34 28 19 28 60 88 100 193 130 28 8 8 11 19 34 45 68 48 34 19 8 28 60 60 85 100 
100 113 88 88 85 85 85 77 60 60 60 60 60 88 88 100 85 85 85 85 85 88 100 130 
113 113 113 88 48 19 34 48 60 48 45 34 19 19 19 28 28 45 100 123 123 193 123 
19 8 11 19 28 34 48 48 48 28 11 11 19 34 48 77 100 113 123 88 85 88 100 88 77 
48 48 60 48 48 88 85 100 100 88 85 85 88 100 106 113 123 113 106 77 34 19 34 
48 45 45 45 34 28 28 19 28 34 60 130 170 170 193 123 11 11 11 19 34 34 60 48 
34 19 11 8 11 28 45 85 106 113 106 85 88 88 88 77 48 48 60 48 48 45 68 77 88 
100 88 88 77 85 88 113 130 123 113 88 68 19 19 34 48 45 34 45 34 28 28 28 34 
60 85 167 193 193 193 123 19 11 11 19 34 45 60 45 19 11 11 8 11 28 45 77 106 
100 88 77 85 85 77 48 60 68 68 68 60 48 45 68 85 88 100 88 85 77 88 106 113 
123 106 88 48 28 19 34 48 34 34 34 45 19 28 45 60 106 134 170 193 204 182 113 
11 11 8 19 34 48 60 34 19 8 11 8 11 28 45 85 88 68 77 77 85 77 60 60 68 85 85 
88 88 85 34 48 68 88 100 88 85 85 88 100 88 88 106 100 48 19 19 34 48 34 34 34 
34 28 45 77 88 154 170 178 182 204 178 106 11 11 11 19 45 48 60 34 19 11 8 8 11 
28 45 88 85 48 48 85 88 68 48 60 85 88 88 100 88 88 60 45 48 88 106 100 85 77 
88 88 68 48 106 100 45 19 19 34 48 34 28 34 34 34 68 113 134 178 182 182 193 
193 170 106 11 8 11 28 45 48 60 28 19 11 11 8 11 28 45 85 88 68 45 88 85 60 48 
48 48 68 68 68 77 60 48 48 48 88 113 123 106 88 88 85 48 45 106 88 48 28 19 34 
45 34 28 34 45 48 100 154 170 178 193 193 193 193 167 100 11 11 19 45 45 48 48 
28 11 11 11 11 11 19 34 88 100 85 48 100 77 60 48 45 34 48 45 34 34 19 48 48 
45 88 123 134 123 106 88 77 34 28 100 85 48 19 19 34 34 28 28 45 48 77 123 148 
167 178 193 193 193 193 154 88 11 11 19 34 45 48 45 28 19 11 11 8 11 19 34 48 
85 77 60 100 77 48 48 28 28 45 48 45 11 19 34 45 34 85 123 130 113 106 100 48 
34 34 88 77 34 28 19 28 28 19 19 34 48 68 134 154 167 182 193 193 193 193 148 
88 11 11 34 45 34 45 34 28 28 11 11 11 19 19 28 45 48 85 60 106 85 45 19 11 11 
19 28 28 11 11 28 19 34 85 113 130 130 113 85 34 19 28 77 48 28 19 19 19 28 28 
28 45 48 77 134 148 167 178 182 182 178 182 130 85 8 11 28 45 45 28 19 28 19 
11 11 8 11 19 28 34 45 68 60 106 85 45 19 19 19 19 28 19 19 19 19 19 45 85 106 
113 113 106 60 19 11 34 45 34 19 19 11 28 28 28 28 34 48 77 130 154 154 170 
170 178 178 193 123 77 11 11 28 34 28 19 19 28 11 8 11 11 19 28 28 28 34 68 68 
100 85 60 34 28 19 19 19 19 28 19 19 19 60 85 100 113 113 88 34 11 19 48 34 19 
19 19 19 19 28 34 28 34 48 60 106 148 148 154 154 170 178 178 106 68 11 19 28 
19 28 19 11 28 11 11 11 11 28 34 28 34 34 60 68 88 88 68 45 28 11 19 11 19 19 
19 28 34 60 85 100 106 100 60 19 19 34 48 28 19 19 28 19 28 34 34 28 28 48 60 
88 123 130 148 134 167 170 178 100 60 11 11 11 28 19 19 19 19 11 11 11 19 28 
34 34 45 48 45 60 85 88 68 48 34 19 11 11 11 11 19 34 45 68 85 88 100 68 34 19 
28 45 34 19 19 28 28 28 45 48 45 34 28 45 48 85 100 113 130 130 148 167 167 
88 60 11 11 11 19 19 19 19 19 19 11 19 19 28 45 45 48 48 48 60 68 85 77 60 34 
28 19 11 11 11 28 45 48 68 85 85 85 48 19 19 19 34 28 28 28 28 34 34 60 68 60 
45 34 45 60 77 88 106 123 130 123 123 148 88 48 11 11 11 19 19 19 28 19 19 19 
19 19 34 34 48 45 48 60 60 48 77 77 60 45 19 19 19 11 19 45 48 48 68 77 68 60 
34 19 19 19 45 28 45 28 34 34 45 60 77 68 45 28 45 48 85 85 88 123 134 113 106 
123 85 48 11 11 8 19 28 19 19 19 11 19 19 19 19 28 34 45 45 48 45 19 48 68 60 
34 28 19 11 19 19 19 48 45 48 68 45 28 19 11 19 19 28 28 34 34 34 34 48 88 106 
106 68 28 45 60 77 88 88 123 148 134 113 100 68 48 28 19 11 19 34 19 19 19 19 
19 19 19 19 19 28 28 34 48 45 19 19 45 45 28 19 19 11 11 8 11 11 19 28 45 28 
11 19 19 19 28 19 34 34 34 34 48 77 113 130 130 85 34 48 60 85 100 88 123 148 
148 134 130 34 28 11 19 19 28 28 19 19 28 19 11 19 19 19 19 19 28 34 45 34 11 
8 28 34 28 8 8 8 11 8 11 19 34 60 48 34 19 11 11 28 45 45 45 34 34 45 60 88 123 
134 123 88 48 48 60 88 100 100 113 134 154 148 106 45 28 19 19 19 28 34 19 28 
19 19 19 19 19 11 11 19 19 19 34 34 19 19 45 60 45 28 19 11 8 11 19 45 68 68 
68 45 19 19 28 48 45 34 34 48 48 45 48 77 106 123 123 88 45 45 68 100 100 88 
123 134 154 123 100 19 19 11 11 19 19 28 28 19 19 19 19 19 11 11 11 19 19 19 
19 28 34 45 60 77 68 60 45 34 28 34 45 68 88 88 77 34 19 34 60 60 48 48 45 34 
45 45 45 60 88 113 113 88 48 48 77 106 106 106 113 134 130 106 113 19 19 11 11 
19 19 28 28 19 19 19 19 19 19 19 19 19 19 11 11 19 34 68 85 88 88 85 68 68 48 
68 68 85 100 100 77 34 28 45 60 48 48 45 45 45 34 45 45 60 77 85 88 85 60 77 
68 88 100 106 123 134 113 123 134 19 19 19 11 19 19 28 19 19 19 19 19 19 28 19 
19 19 19 19 11 19 45 77 88 100 88 100 88 85 68 77 85 88 100 88 68 45 34 60 60 
48 45 45 45 45 45 45 45 60 68 77 77 77 85 85 68 88 106 113 123 134 113 130 148 
19 19 19 19 19 19 19 28 19 19 19 28 19 28 19 28 28 19 19 19 28 48 68 88 100 
100 100 100 88 77 85 88 100 88 100 60 45 48 60 48 45 45 45 45 34 45 45 48 60 
68 77 68 85 100 88 85 100 106 123 123 130 106 123 113 19 19 19 19 11 19 19 19 
19 19 19 19 28 28 28 28 28 28 19 19 19 45 60 85 100 88 100 88 85 85 85 88 88 
100 88 68 48 48 60 48 34 45 48 45 34 45 45 48 60 77 77 68 85 106 113 106 100 
100 113 123 130 100 100 88 11 11 19 11 11 19 19 19 19 28 19 28 28 28 34 34 34 
28 19 19 19 34 45 60 85 88 100 88 88 88 88 88 88 100 77 60 48 48 48 48 45 45 
60 48 34 45 45 60 68 77 85 77 88 106 113 106 100 88 106 123 123 88 60 48 11 11 
19 19 19 19 19 19 19 19 28 28 28 34 34 34 45 28 19 19 19 28 45 45 45 77 88 100 
88 88 88 88 100 88 48 60 48 45 45 48 48 48 68 60 45 34 48 48 60 68 77 85 100 
106 113 123 113 106 106 113 123 88 60 34 11 11 19 19 19 19 19 19 19 19 19 28 
28 28 34 48 34 19 28 19 19 28 34 48 48 77 88 88 100 88 100 88 100 60 48 68 68 
48 45 45 48 68 68 77 60 45 48 60 60 77 77 88 106 113 123 123 123 106 106 123 
123 106 85 60 11 8 8 11 19 19 11 19 19 19 28 19 28 28 34 45 45 34 28 19 19 34 
34 45 45 60 77 100 100 100 100 100 77 60 77 77 68 60 48 68 68 68 68 68 60 45 
48 60 60 85 88 100 106 123 123 123 123 106 100 106 113 106 106 100 11 8 11 11 
19 19 19 19 19 28 19 28 28 19 28 45 45 45 34 28 19 19 19 28 28 34 60 77 85 88 
88 100 85 85 77 85 77 68 68 68 68 68 68 68 48 60 60 60 77 88 100 106 113 123 
123 130 123 106 100 106 106 106 106 100 19 11 11 19 19 19 19 19 28 28 34 28 28 
28 34 45 45 45 34 28 19 19 19 28 28 34 48 60 68 77 88 85 85 68 85 77 77 68 77 
68 60 68 68 77 48 68 48 68 77 88 100 113 123 123 130 123 113 100 100 100 100 
106 100 100 
