P2
64 64
255
127 136 136 136 136 127 136 127 115 104 76 76 76 76 84 84 76 67 61 37 21 21 37 
45 45 61 50 45 50 61 50 61 61 61 61 61 61 61 61 61 67 76 76 84 89 89 89 89 104 
104 115 115 104 127 104 104 127 76 61 61 61 76 76 67 136 136 136 115 127 115 
115 115 104 84 61 50 50 67 84 76 76 67 61 45 21 23 45 50 50 61 61 50 50 50 50 
61 61 61 61 61 61 50 50 61 67 67 76 84 84 84 84 89 104 104 115 115 104 127 104 
115 115 76 61 61 61 76 76 67 127 127 127 127 127 127 127 115 89 61 50 23 45 67 
76 76 76 67 61 50 45 45 50 50 61 61 61 61 61 50 50 61 61 45 50 61 61 45 50 61 
61 61 67 67 67 76 84 89 104 104 115 115 127 127 127 104 115 76 61 61 61 67 67 
67 136 136 144 136 144 144 161 156 104 50 61 50 76 84 84 89 84 76 67 67 61 45 
45 50 50 61 61 61 61 67 67 61 61 50 50 50 50 50 61 61 61 61 61 61 67 76 84 89 
89 104 104 104 104 115 104 104 104 76 50 61 61 67 76 67 195 195 182 161 144 
156 156 136 104 23 37 45 84 84 89 104 104 89 84 84 76 67 67 61 61 61 61 67 67 
67 84 67 61 61 61 61 45 50 61 61 61 61 61 67 67 76 84 89 104 104 89 104 104 
115 104 89 89 76 67 61 61 67 67 67 161 161 156 144 136 136 127 104 76 50 45 61 
76 84 89 104 115 104 89 89 89 89 84 67 61 61 61 67 67 84 84 76 61 61 67 61 61 
61 61 61 61 67 76 84 84 84 89 104 104 104 89 104 104 115 104 104 89 76 61 61 
61 61 61 61 136 136 127 127 127 115 127 89 67 45 45 50 76 84 104 104 115 115 
104 104 115 104 104 76 67 61 67 67 76 84 76 76 76 67 76 67 61 67 67 76 67 76 
89 89 89 89 104 104 115 115 104 104 115 89 89 89 89 76 61 61 61 61 61 67 136 
136 115 127 115 127 104 76 37 21 37 45 67 76 84 89 104 104 104 115 127 104 104 
84 67 67 76 76 89 84 67 84 89 84 76 67 67 76 84 84 89 104 104 104 104 104 115 
104 104 104 104 104 104 84 89 89 89 67 61 61 61 67 67 67 127 127 127 127 115 
104 76 45 21 21 50 67 84 84 84 89 89 89 104 104 115 115 104 84 76 84 84 89 104 
89 84 84 89 89 76 67 84 76 84 89 104 104 127 127 115 115 104 104 104 104 89 89 
89 84 84 84 84 67 50 61 61 61 61 61 127 127 115 115 104 67 37 21 21 50 76 84 
89 84 89 89 84 84 89 104 115 115 104 89 84 89 89 104 104 104 84 89 89 89 76 84 
84 84 84 84 104 104 127 127 115 104 104 89 104 104 104 89 89 84 76 76 76 67 61 
50 61 61 61 61 127 115 104 84 61 45 21 37 37 76 84 84 89 104 84 84 67 76 89 104 
115 115 104 104 89 104 104 104 104 104 89 89 89 84 84 84 89 84 84 84 104 104 
127 104 104 104 89 89 104 104 104 104 89 89 84 84 84 67 61 61 61 61 61 61 115 
104 84 50 23 23 45 50 61 76 84 84 89 104 89 76 67 84 89 115 115 115 104 104 
104 89 104 104 115 104 104 104 89 84 84 89 104 89 84 84 89 115 115 104 104 104 
84 84 89 104 115 104 104 89 89 84 84 76 61 61 61 61 50 50 104 84 67 37 37 50 
61 67 67 84 84 84 89 89 89 67 76 76 89 115 115 115 104 89 89 89 104 115 115 
115 104 104 89 104 89 104 104 104 84 84 89 104 115 115 104 84 84 76 89 104 127 
115 104 89 104 84 84 76 67 67 67 50 50 37 84 76 50 45 50 61 67 76 67 89 84 89 
89 89 84 76 67 67 84 115 127 104 104 84 84 84 89 104 127 115 127 115 89 115 
104 104 104 89 89 84 84 104 115 115 104 84 76 67 84 104 115 115 104 89 84 76 
84 84 76 76 61 50 45 37 61 45 37 50 50 67 76 76 76 84 84 84 89 84 89 84 76 76 
89 104 115 104 104 89 89 89 104 115 127 127 127 127 104 127 115 115 115 104 
104 89 89 104 115 104 104 84 67 67 84 89 104 115 104 104 84 76 76 76 67 67 67 
61 50 50 45 37 23 50 67 76 76 67 76 84 76 84 84 84 84 84 76 84 104 104 104 104 
104 89 104 104 115 115 115 127 136 136 136 127 127 115 127 115 115 104 104 104 
104 115 104 84 67 67 76 89 89 104 89 104 84 84 67 67 67 67 67 61 61 61 50 37 
23 61 67 76 67 67 67 67 76 89 84 84 76 67 67 76 89 104 104 104 89 104 115 136 
136 127 127 136 136 156 136 127 127 115 136 127 136 115 115 115 115 115 104 
89 76 67 76 84 84 89 89 84 84 76 67 67 67 67 67 67 67 67 50 45 23 45 61 67 67 
76 67 67 84 84 76 76 76 67 61 76 84 104 104 104 104 104 127 144 156 136 136 
136 136 156 136 136 136 127 136 144 136 136 115 115 127 127 115 104 76 67 84 
84 84 84 84 76 84 67 76 67 67 67 67 76 76 67 45 37 23 45 50 67 67 67 67 67 76 
67 76 61 76 67 61 67 84 104 104 104 89 104 136 136 156 144 144 144 136 156 136 
136 136 144 156 161 156 136 127 115 115 115 104 89 76 67 76 89 76 84 76 76 67 
67 67 67 67 67 76 76 84 76 23 37 37 50 61 61 67 76 67 67 76 67 61 61 67 67 61 
67 76 84 89 89 104 104 136 144 161 161 156 156 144 156 136 144 156 156 161 169 
161 144 127 104 115 104 104 89 76 67 76 76 67 76 67 76 67 67 61 67 67 67 67 76 
84 76 23 37 50 61 67 61 76 76 67 61 61 76 61 61 67 61 61 67 84 84 104 104 115 
127 136 136 161 156 161 161 161 156 156 156 156 156 161 161 144 127 104 104 
115 104 104 84 67 61 61 67 67 67 67 76 67 67 67 67 67 67 67 76 84 67 37 23 45 
61 61 61 76 76 67 61 61 67 61 61 61 61 61 67 84 104 127 136 127 115 115 127 
136 156 156 156 156 161 161 156 156 144 156 144 136 115 127 115 115 104 104 
76 67 61 67 67 67 67 67 67 67 67 67 61 67 67 67 67 76 67 21 21 37 61 61 61 67 
84 76 61 67 67 61 61 67 67 67 67 89 136 156 156 136 115 104 104 136 136 136 
144 156 161 169 136 144 136 144 136 104 104 115 136 136 127 89 84 67 61 67 67 
67 67 76 67 67 67 61 61 67 67 67 67 67 61 21 23 50 61 61 67 67 84 76 61 67 76 
61 61 67 67 67 76 115 156 169 161 144 127 104 104 115 127 136 136 156 161 161 
144 144 136 136 115 104 104 127 144 156 136 115 89 76 61 61 67 67 67 67 67 67 
67 61 61 67 76 61 61 67 61 23 37 50 61 61 67 76 67 84 67 67 76 61 67 67 76 76 
84 136 161 182 161 144 115 104 89 127 127 136 156 156 161 156 136 144 136 127 
115 104 115 136 156 161 156 136 104 76 67 67 67 61 67 67 61 67 67 67 67 67 76 
67 61 67 61 21 45 61 61 61 61 67 67 84 76 67 67 61 76 76 67 76 104 144 161 136 
115 89 84 84 104 115 127 127 156 156 161 161 156 156 127 127 104 104 104 136 
144 161 161 136 104 84 76 76 67 61 67 76 61 67 67 67 67 76 67 61 61 61 61 45 
50 61 61 61 61 67 76 76 84 76 67 61 67 76 84 84 115 144 136 84 45 45 45 45 89 
115 127 136 156 161 169 156 156 156 136 115 104 84 84 104 127 144 161 144 115 
84 76 76 67 61 67 76 67 76 76 76 76 67 61 50 50 61 61 61 61 61 61 61 61 76 67 
84 89 76 67 61 61 76 84 84 115 136 115 50 37 45 45 45 89 127 136 156 156 161 
169 161 156 156 136 127 104 84 76 61 84 115 156 144 115 89 84 76 76 67 76 76 
84 76 76 76 76 61 61 50 50 50 61 61 61 61 61 61 61 76 76 84 89 84 67 61 67 84 
84 84 115 136 89 37 21 23 21 23 67 115 136 161 161 169 182 161 169 169 144 136 
104 76 61 37 37 84 136 144 127 89 84 76 76 67 76 89 89 84 76 76 76 61 50 50 50 
61 61 61 61 61 61 61 61 76 76 84 89 84 61 61 84 84 84 84 104 136 89 45 16 21 
21 21 45 104 144 169 169 169 169 169 169 182 144 127 89 50 23 23 21 45 89 127 
104 89 84 84 76 67 84 89 104 84 84 84 76 67 61 61 61 61 61 61 61 67 67 61 61 
67 76 89 89 76 61 61 89 104 84 76 115 144 136 67 23 16 16 21 45 104 156 169 
169 169 182 169 182 182 156 104 61 23 21 21 16 37 76 104 104 84 76 84 84 76 84 
89 104 104 89 89 76 67 61 61 61 61 61 37 45 50 67 67 61 67 76 89 84 84 67 61 
104 104 84 84 115 156 161 136 76 37 21 37 67 115 161 169 169 161 169 169 169 
182 156 104 37 21 21 21 45 84 127 136 104 84 76 84 84 84 84 89 104 89 89 84 76 
61 61 61 61 61 61 21 23 50 67 67 61 61 76 84 84 84 67 61 104 115 89 89 127 144 
169 169 136 67 23 50 84 136 156 161 161 144 161 161 161 169 161 104 50 23 23 
50 104 156 169 156 115 84 76 89 89 84 84 89 104 84 84 84 67 61 61 61 61 61 61 
21 21 45 67 67 67 67 67 84 89 84 67 61 89 104 89 89 115 136 169 182 161 104 
61 67 104 127 136 144 144 136 144 144 161 161 161 127 84 50 50 104 156 195 182 
156 127 89 84 89 104 76 84 84 104 84 76 76 67 61 61 67 67 67 61 16 21 37 67 67 
67 76 67 76 89 84 61 61 84 104 89 89 104 136 169 182 182 136 104 104 104 115 
127 136 136 136 136 136 144 156 144 144 104 84 89 136 182 195 182 136 127 89 
84 104 104 67 84 84 89 84 76 76 67 61 67 67 67 67 50 21 16 37 50 61 76 76 67 
67 89 84 61 61 89 104 89 104 104 127 156 182 182 156 136 104 115 104 115 127 
136 127 115 127 136 136 136 136 136 104 127 156 169 182 161 136 115 89 84 89 
104 76 76 84 89 84 84 76 67 61 61 67 67 61 50 21 21 21 45 61 67 67 67 76 84 76 
61 67 89 104 89 89 89 115 156 182 195 169 136 104 104 104 127 115 115 115 104 
127 127 136 136 136 115 136 144 169 169 169 144 136 115 104 84 104 104 76 76 
76 89 89 84 76 67 67 67 67 61 61 50 16 16 21 23 67 61 67 67 67 84 76 61 61 89 
104 84 84 89 127 156 182 182 169 127 104 104 127 127 104 104 115 104 115 127 
136 136 136 104 136 161 182 169 161 144 127 115 104 84 89 89 76 76 89 104 84 
84 67 67 67 67 67 61 50 50 21 16 21 37 61 61 67 76 67 84 76 61 61 104 104 84 
89 104 127 156 169 182 136 104 104 104 127 136 104 104 115 104 115 127 144 144 
136 127 127 156 182 182 161 136 127 115 104 84 89 84 76 76 89 104 84 76 67 76 
67 67 67 61 50 61 16 21 21 23 45 61 67 76 67 76 76 61 61 104 104 89 84 104 115 
156 169 161 136 89 104 115 136 136 127 115 115 89 104 127 136 156 136 127 115 
156 169 182 161 136 127 115 104 84 84 76 76 84 89 89 84 76 67 76 67 67 67 61 
61 61 21 21 16 23 45 67 76 76 61 76 67 61 61 84 104 104 84 89 115 136 156 144 
127 89 104 115 136 136 136 136 115 104 127 127 136 156 136 115 115 136 169 169 
156 136 127 115 104 89 104 76 76 89 89 89 84 76 67 76 67 67 61 61 61 61 16 16 
21 16 23 50 61 76 61 67 67 45 50 84 84 84 76 84 104 115 136 136 104 89 104 127 
136 169 156 156 136 136 156 156 156 144 136 115 104 136 161 161 144 127 104 
104 89 89 84 76 76 89 89 89 84 76 76 76 76 67 61 61 61 61 21 21 16 16 23 45 50 
61 67 67 67 61 45 67 76 67 50 67 89 115 136 127 104 104 115 144 169 169 161 
161 156 156 156 156 161 161 136 115 104 127 144 156 144 127 104 89 84 89 104 
76 76 89 84 89 89 76 76 76 76 67 61 61 61 61 16 21 16 16 21 21 23 37 61 61 61 
50 50 67 61 61 50 67 89 115 127 104 89 104 144 169 169 156 144 144 161 144 136 
136 156 161 161 127 89 104 136 144 136 115 89 76 67 89 104 67 76 84 89 84 89 
76 76 76 76 61 61 61 61 61 21 21 16 16 21 21 16 21 45 67 61 61 61 61 45 50 45 
50 84 115 136 104 104 115 156 161 161 156 136 136 144 136 136 136 156 156 161 
136 104 104 136 136 136 115 104 67 67 76 84 67 76 76 84 76 76 76 76 76 67 50 
61 61 67 61 16 21 16 16 21 16 16 21 23 67 61 45 50 61 23 45 45 61 84 115 127 
104 104 136 161 161 169 156 136 136 136 136 156 136 156 156 161 156 104 104 
136 136 127 115 89 67 61 67 76 67 67 76 76 76 76 76 76 76 67 61 61 61 67 67 21 
16 16 16 16 16 16 21 21 50 61 45 50 61 45 50 61 61 76 104 127 104 104 136 161 
161 161 136 104 89 89 84 115 136 156 161 161 156 127 104 127 136 127 104 89 76 
67 67 76 61 61 67 76 76 76 76 76 67 61 61 61 61 61 67 21 21 16 16 21 16 16 16 
21 37 50 50 50 61 50 50 67 67 67 89 104 89 115 156 169 161 136 89 61 37 45 37 
50 84 136 156 161 161 136 104 115 127 127 104 84 76 67 67 67 61 61 67 76 76 76 
76 67 61 50 61 61 61 61 67 21 16 21 16 16 21 16 21 16 21 45 45 50 50 50 50 76 
76 76 84 89 89 136 169 182 144 89 45 23 21 21 21 21 37 104 144 161 169 136 104 
115 115 115 104 84 84 76 61 61 61 61 67 67 76 76 76 67 67 61 61 67 67 67 61 21 
21 16 16 16 21 16 21 16 16 23 45 50 50 50 61 76 89 84 76 84 104 136 182 182 
136 50 21 21 16 16 16 21 21 45 136 169 169 136 115 104 104 104 104 89 104 84 
67 61 61 61 67 61 67 76 76 76 76 67 67 67 67 67 61 21 16 21 16 21 16 21 16 16 
21 21 37 45 45 50 61 84 89 84 67 76 115 156 195 182 115 23 21 16 16 16 21 16 
16 21 136 182 169 144 115 89 104 104 104 115 104 89 67 61 61 61 61 61 67 84 84 
84 84 76 67 67 67 67 67 16 21 16 16 16 21 16 16 21 16 16 21 37 45 50 61 84 89 
84 67 76 127 156 182 182 104 21 16 21 16 16 21 16 16 21 136 169 182 156 115 
104 84 89 104 127 115 104 67 67 61 61 61 61 76 84 89 89 89 76 67 76 67 67 67 
21 21 16 16 21 16 16 21 16 16 21 21 21 45 61 61 84 104 89 67 84 127 161 182 
182 104 21 16 16 21 16 16 21 16 21 136 182 182 169 136 115 89 89 104 127 127 
104 76 61 61 61 61 61 76 89 104 104 104 84 76 76 76 76 76 16 16 21 16 16 21 16 
16 21 16 16 21 21 45 50 61 89 104 89 76 84 136 161 182 169 104 21 21 16 16 21 
16 16 21 16 127 182 182 169 156 136 104 89 104 127 136 104 84 67 61 61 61 67 
76 104 115 104 115 89 76 76 84 84 84 21 21 16 16 21 16 16 21 16 16 21 16 37 45 
50 67 89 104 76 76 89 127 169 195 182 136 45 16 21 16 16 21 21 16 21 136 182 
182 182 169 136 104 89 115 136 136 127 104 61 61 45 61 67 89 127 127 115 115 
104 84 76 84 89 89 21 16 16 16 21 16 16 21 21 16 16 21 45 45 45 67 104 115 89 
84 104 136 182 195 169 144 89 21 16 21 16 16 21 16 61 156 195 195 195 182 156 
127 104 104 127 127 127 104 67 50 23 50 61 115 136 144 136 115 115 104 84 84 
89 104 16 16 21 21 16 21 23 45 61 21 16 16 45 45 50 76 104 104 89 104 115 136 
182 182 169 161 136 50 16 16 21 16 21 21 127 182 204 209 182 169 156 144 104 
104 115 136 127 89 67 61 50 37 67 136 156 136 127 127 104 89 89 84 89 89 21 21 
16 16 23 76 104 89 127 89 21 16 21 21 50 76 104 104 89 104 127 144 182 182 156 
144 136 76 21 16 16 21 16 45 115 136 182 204 182 156 161 156 127 115 115 136 
136 104 67 67 61 61 89 136 161 156 156 136 127 104 89 84 89 104 84 76 67 50 76 
127 136 156 161 115 21 16 16 37 50 84 115 104 104 115 144 161 182 182 161 136 
104 76 16 21 16 16 21 50 89 136 156 195 182 169 169 156 127 104 127 127 127 
115 89 76 67 84 127 156 156 156 144 136 136 115 104 84 89 104 136 127 104 104 
136 156 156 156 161 104 21 16 21 37 67 84 104 115 104 104 136 161 182 182 136 
104 67 45 21 16 16 21 16 50 61 104 144 182 182 182 182 136 115 104 127 115 127 
115 115 104 104 104 127 144 156 144 156 136 136 127 104 89 89 104 156 136 127 
115 127 127 104 104 104 76 21 16 21 45 76 89 115 127 104 115 136 144 182 182 
136 67 50 37 21 16 21 16 21 23 61 84 144 169 169 182 169 144 115 115 127 127 
115 127 115 104 104 115 127 136 144 144 161 156 136 136 115 104 104 104 115 
104 104 104 89 89 76 76 67 50 21 16 21 45 76 104 115 115 127 115 115 136 182 
182 136 76 50 23 21 23 45 21 23 23 37 76 144 182 169 169 156 136 115 115 115 
115 127 115 115 115 115 115 127 136 136 156 156 144 144 136 115 104 104 115 
89 104 89 89 84 84 76 67 67 61 21 16 16 23 76 104 104 115 115 104 104 115 156 
169 136 89 67 50 50 50 61 37 61 37 45 84 156 195 182 156 136 127 104 115 115 
115 127 115 115 115 115 127 115 136 136 144 156 156 136 136 127 104 104 104 
89 89 104 104 89 104 104 76 76 67 21 16 21 23 84 115 115 104 104 104 104 104 
136 136 136 104 104 89 104 76 89 84 89 76 76 104 156 182 161 144 136 104 115 
115 115 115 127 127 127 115 127 127 127 127 136 144 161 161 144 136 115 104 
89 104 
