P2
64 64
255
131 124 131 134 173 242 242 206 96 96 50 134 149 177 242 233 248 204 104 96 131 
206 233 149 81 96 134 124 149 206 248 242 204 131 110 131 134 219 233 219 225 
242 233 233 219 131 219 233 242 242 248 177 110 110 131 96 96 110 110 204 233 
233 204 196 124 124 124 131 173 242 225 182 96 96 54 134 149 173 233 233 248 
219 104 96 131 219 233 157 104 110 149 110 134 204 242 242 219 157 110 131 173 
225 242 225 225 242 233 225 196 157 219 233 233 233 248 196 134 134 149 104 
104 110 110 204 233 225 206 206 104 104 104 110 173 242 204 110 96 104 54 124 
131 157 233 233 242 242 110 96 124 206 225 204 173 173 165 124 110 182 242 248 
248 219 134 134 233 242 242 242 219 225 233 206 149 206 233 225 233 233 242 
242 206 182 182 134 104 110 110 182 219 219 233 233 96 96 104 124 173 248 204 
89 89 96 54 96 104 131 242 242 233 248 134 67 124 219 242 242 242 233 233 233 
233 225 225 248 248 248 225 219 242 242 242 233 204 182 233 233 206 242 233 
233 225 242 242 248 242 242 225 165 104 104 110 134 182 233 248 242 89 96 104 
110 110 149 219 173 96 177 173 157 173 173 233 242 233 248 225 204 219 242 242 
248 248 248 242 225 233 242 225 225 248 242 248 242 242 242 242 242 242 233 
233 242 233 242 225 233 233 225 219 225 225 196 173 182 131 89 104 149 177 177 
219 233 165 165 134 110 96 96 157 157 149 196 206 206 225 219 233 242 242 242 
248 248 248 248 242 242 242 248 242 225 233 242 233 242 242 242 242 248 242 
242 248 242 248 248 242 242 233 242 233 233 233 233 225 225 225 149 124 196 
149 104 104 131 124 110 196 182 206 204 165 124 89 81 96 134 204 204 225 233 
242 242 225 242 242 242 242 248 248 248 242 242 242 248 242 233 233 248 248 
242 242 242 242 242 242 242 242 242 242 242 242 242 233 233 225 233 233 233 
233 233 242 157 134 196 165 131 124 134 110 96 177 177 204 196 173 110 89 81 
104 173 233 233 242 233 233 225 225 233 242 242 248 248 248 248 242 242 242 
248 242 242 248 242 242 242 233 242 242 242 242 242 242 242 242 242 233 233 
225 225 225 242 233 233 233 242 242 219 196 173 173 157 124 177 182 131 173 
225 204 173 124 96 104 157 177 182 233 233 233 242 233 219 204 225 242 242 242 
248 248 242 248 242 248 242 248 242 248 206 206 233 242 242 242 242 242 233 
242 242 242 242 233 233 233 225 219 233 233 233 242 233 233 233 204 173 165 
134 110 196 225 173 196 248 233 177 104 131 196 233 233 225 233 242 233 225 
233 233 225 206 219 242 233 242 242 242 248 242 248 242 242 242 242 233 196 
204 242 242 242 242 242 233 242 248 242 242 233 233 233 233 225 233 233 233 
233 233 233 233 233 219 124 96 96 124 204 233 233 242 204 157 96 124 165 206 
206 219 225 219 206 225 206 219 225 225 219 233 219 233 242 242 242 233 233 
233 233 242 242 242 219 206 219 233 242 233 233 233 242 242 242 242 242 242 
225 233 233 233 233 233 225 233 233 233 242 233 173 104 110 96 124 182 177 131 
149 110 96 104 131 196 204 219 219 204 204 182 177 196 219 233 219 219 206 219 
233 233 233 225 225 225 225 233 242 233 233 206 204 219 242 233 225 233 233 
233 233 242 242 242 225 233 233 233 233 233 225 225 225 233 233 233 219 173 
157 131 96 131 110 96 89 96 96 110 131 204 225 225 206 182 182 149 157 182 225 
225 206 206 206 219 225 219 206 219 233 225 219 233 225 219 225 219 204 219 
233 233 225 225 242 233 233 242 242 242 225 225 225 242 233 242 206 219 219 
225 225 233 233 242 206 204 134 89 81 131 104 96 89 110 196 242 225 204 182 
173 157 149 182 206 225 225 177 196 196 225 204 196 204 204 225 233 233 233 
177 182 233 233 219 219 233 225 233 225 233 242 233 233 242 242 233 219 233 
233 242 242 204 182 206 219 219 225 233 233 225 242 182 96 74 104 110 173 225 
233 233 225 225 206 177 157 157 182 219 204 206 165 124 173 165 206 196 206 
225 233 225 225 233 165 149 206 233 225 225 225 219 206 233 233 233 242 233 
233 242 242 233 225 219 206 242 242 242 219 219 225 233 233 233 233 219 225 
204 177 149 96 110 173 233 233 233 225 225 225 219 196 177 196 196 204 206 165 
149 157 165 182 204 204 225 242 225 225 225 177 196 219 225 233 225 225 219 
219 225 225 233 233 233 233 233 233 242 225 225 219 225 242 242 233 233 233 
233 233 233 233 225 233 219 219 206 173 173 196 225 233 233 219 206 196 173 
165 173 182 196 204 157 134 134 157 157 173 196 196 219 225 225 225 219 196 
204 219 219 219 219 219 225 225 225 225 233 233 242 233 233 233 242 225 204 
204 196 233 225 233 225 219 204 219 233 233 233 219 219 219 225 219 233 225 
225 233 225 206 204 157 110 110 165 177 204 196 104 104 124 149 157 173 182 
196 204 219 225 225 206 204 182 206 206 206 206 219 225 233 225 225 233 233 
242 233 233 233 233 225 182 196 173 225 206 219 219 196 182 206 233 242 233 
219 206 219 225 219 233 233 225 225 225 206 182 173 149 131 204 182 206 173 
124 89 124 131 165 177 177 182 196 206 225 219 219 196 196 204 206 206 206 225 
225 219 225 219 219 233 242 242 233 233 219 219 196 196 173 206 219 206 206 
196 206 206 225 233 233 233 233 225 219 182 233 233 219 219 204 177 134 131 
177 177 173 196 177 157 96 81 104 131 173 177 165 165 173 219 242 225 196 182 
177 182 204 196 204 219 196 182 225 173 104 225 219 248 242 242 206 204 157 
157 134 173 206 182 165 173 177 182 173 173 206 233 242 225 233 242 219 219 
204 196 165 134 157 165 157 173 173 177 96 89 74 50 50 134 149 131 165 182 206 
204 206 219 219 204 204 204 204 196 196 206 196 177 225 196 134 177 196 206 
225 242 206 196 196 124 131 149 225 206 204 157 182 196 204 206 219 225 225 
225 206 219 206 204 182 173 149 131 134 165 157 157 157 134 50 54 54 44 50 134 
134 110 165 204 204 173 173 196 206 204 204 204 204 196 196 196 204 196 206 
204 196 196 204 204 225 242 233 182 173 89 134 96 233 225 219 196 177 196 225 
206 196 206 225 225 225 204 182 182 173 149 124 134 149 157 165 165 157 89 31 
44 31 50 89 134 134 131 173 182 165 149 157 182 206 196 182 196 204 196 182 
196 204 204 196 196 206 219 206 182 219 225 242 206 157 67 110 74 225 233 225 
225 196 206 219 204 182 206 219 219 233 219 177 165 149 110 96 134 157 157 165 
173 173 54 54 44 19 44 134 124 131 157 173 157 131 157 173 182 204 196 177 177 
196 196 196 204 204 196 177 173 177 196 196 157 177 206 242 242 182 67 74 81 
196 242 233 225 233 225 196 196 206 204 196 204 225 233 204 157 89 89 124 134 
134 89 54 131 165 81 81 31 23 44 157 124 134 177 173 157 149 131 134 157 173 
196 182 177 177 182 177 177 196 173 165 131 81 104 110 165 165 177 204 248 233 
31 89 67 96 233 219 233 233 225 204 157 157 196 219 173 182 233 165 131 81 96 
124 96 110 134 131 149 124 50 50 19 23 110 134 149 149 131 96 54 44 31 54 67 
89 110 134 165 182 206 206 206 206 206 173 131 110 67 23 31 31 31 96 177 233 
89 31 89 81 124 219 242 219 206 206 219 204 219 206 165 177 204 165 131 96 124 
110 89 104 134 131 149 96 50 44 6 23 124 124 149 157 104 89 54 19 19 23 44 67 
104 149 173 196 206 219 206 219 206 182 157 131 54 3 6 6 6 54 196 225 96 23 74 
81 96 219 225 225 219 219 225 219 219 225 177 177 196 165 131 110 124 89 81 124 
134 110 149 81 54 44 6 31 124 110 149 149 96 74 44 6 6 19 31 54 110 149 173 
182 206 219 219 219 206 204 173 124 44 3 6 19 6 81 204 219 104 19 67 96 96 204 
204 225 225 206 196 225 219 225 204 177 196 157 131 110 110 67 74 131 134 124 
134 81 67 31 19 50 110 124 131 131 81 50 6 6 6 6 23 67 110 157 177 196 206 225 
219 219 206 196 173 131 31 6 6 6 31 149 204 219 131 23 50 104 89 182 196 196 
225 182 149 182 196 206 196 173 182 157 134 104 81 54 74 124 131 157 124 74 74 
54 6 67 110 131 104 96 44 3 6 6 6 6 6 89 131 157 204 225 225 219 219 225 219 
204 173 157 96 19 6 23 89 219 206 225 204 50 31 89 81 196 196 182 182 165 124 
96 124 149 157 182 177 173 134 104 89 81 89 110 124 131 110 81 74 54 19 89 96 
134 124 110 89 6 3 3 6 3 3 74 173 219 233 233 225 219 219 225 233 233 219 173 
182 157 177 182 225 233 225 219 204 54 19 81 96 149 173 177 157 149 173 149 
165 149 131 165 173 165 157 124 89 74 81 110 104 124 124 67 74 50 19 81 124 
134 131 131 104 81 54 44 44 31 19 131 206 225 233 233 233 225 225 233 233 233 
225 206 219 196 182 196 219 225 219 219 206 74 6 96 104 110 196 157 165 173 
182 124 131 157 149 157 131 157 157 134 89 74 74 110 104 110 131 54 67 44 19 
81 124 134 131 131 124 124 89 74 67 50 23 157 225 233 233 233 233 233 225 225 
233 225 233 225 233 219 173 182 206 225 225 225 206 81 6 96 104 89 204 157 157 
173 196 131 124 157 173 173 149 131 157 149 89 67 81 110 104 131 110 74 67 44 
19 81 124 134 131 131 131 131 104 89 81 50 67 173 225 233 242 242 242 233 219 
225 233 233 233 233 233 225 182 177 196 219 225 225 225 89 6 81 104 89 196 165 
149 157 196 149 124 157 177 206 182 104 134 165 96 54 89 104 96 134 104 81 74 
31 31 74 131 131 131 131 124 124 110 96 89 67 134 206 233 242 233 242 233 233 
233 233 233 225 225 233 225 233 219 196 173 219 225 225 225 96 6 81 96 89 206 
177 134 157 177 134 110 149 196 233 206 124 149 173 134 81 74 74 96 149 104 
81 54 50 23 50 124 131 131 131 124 124 104 89 104 124 165 206 225 225 233 242 
242 242 233 242 233 233 233 233 233 225 233 233 219 182 196 204 182 89 23 96 
96 89 204 177 131 165 131 74 149 225 242 242 225 173 165 165 173 131 67 67 96 
131 104 67 67 50 23 54 104 134 134 124 124 124 89 104 131 131 173 206 233 233 
242 233 233 233 233 233 225 225 233 233 233 225 242 233 242 225 225 206 182 
89 19 74 89 96 206 196 124 131 131 96 149 206 177 134 124 219 204 182 196 165 
74 67 96 131 104 67 54 54 19 50 110 131 131 110 110 110 104 134 131 131 177 
206 219 225 233 233 233 225 219 225 225 233 233 233 242 225 233 233 242 233 
225 206 204 81 19 54 89 89 206 196 110 96 96 110 149 173 134 104 96 242 233 
225 219 196 124 74 110 124 104 81 54 74 6 44 110 124 124 110 104 110 134 157 
124 134 182 206 219 225 219 225 225 204 196 204 204 225 233 233 242 225 233 
225 233 233 233 219 182 67 19 54 89 81 206 182 104 74 74 124 134 149 131 110 
131 248 248 248 248 233 173 96 110 110 110 96 67 67 6 44 96 104 131 110 110 
149 165 165 124 157 182 219 233 225 206 219 204 177 182 196 177 206 225 225 
233 233 225 219 219 242 242 225 124 44 23 67 89 74 225 177 81 67 104 149 131 
131 157 149 182 242 242 242 242 233 196 104 96 81 124 124 74 67 6 44 67 134 
149 104 134 165 157 134 110 165 196 219 182 157 204 248 219 196 206 204 177 
196 204 206 225 242 233 219 204 225 242 233 50 31 19 50 81 74 219 149 74 124 
157 157 134 110 131 206 219 225 242 242 233 233 177 104 89 74 110 124 54 54 31 
31 54 104 131 124 124 157 134 149 204 225 206 177 124 157 204 177 165 173 165 
157 157 165 182 233 225 233 242 219 219 204 225 219 54 31 19 50 74 54 219 157 
74 110 149 110 149 177 196 196 219 225 206 204 219 219 177 110 96 89 96 96 50 
50 50 23 54 104 131 131 149 149 110 96 204 206 204 177 157 157 134 104 110 131 
157 165 165 165 182 233 233 219 233 233 206 196 204 225 44 23 19 50 67 44 182 
173 104 110 96 131 124 182 219 157 134 225 219 204 219 225 204 124 89 89 81 81 
74 50 50 19 50 104 124 134 149 134 131 124 173 173 165 182 134 96 54 50 50 67 
89 96 104 96 104 157 204 206 219 233 225 206 206 225 19 19 23 31 54 44 157 165 
131 165 131 165 157 173 182 131 104 242 233 233 233 233 225 149 74 81 67 74 96 
67 31 6 44 96 110 124 124 131 157 177 157 134 124 173 74 19 6 3 3 3 3 3 3 3 3 
50 173 219 196 219 242 242 242 204 50 23 44 31 54 44 124 149 165 206 206 204 
204 149 149 134 131 225 225 233 233 233 233 177 67 54 74 74 89 89 50 19 44 67 
104 89 149 104 165 149 131 124 81 131 74 19 6 6 6 6 3 6 6 3 3 50 182 219 204 
206 233 225 248 196 173 50 54 44 50 50 149 182 225 196 182 204 149 134 173 177 
124 206 219 225 233 242 233 177 54 67 74 81 96 74 54 19 50 74 96 96 157 104 
177 165 131 131 104 134 89 19 3 3 3 3 3 6 3 6 3 50 173 219 204 219 233 233 242 
206 44 110 96 44 44 44 173 219 225 219 219 219 165 165 165 177 177 204 219 233 
242 233 242 182 81 54 67 89 96 81 74 19 44 74 89 110 134 177 182 165 134 134 
110 134 74 19 3 3 3 3 6 6 3 3 3 44 157 219 206 206 233 242 242 233 96 44 104 
44 44 44 182 242 225 219 219 225 177 204 165 124 173 219 225 233 242 242 233 
196 124 67 67 89 96 74 74 19 44 81 110 134 157 177 165 165 149 124 110 110 81 
23 6 3 3 3 3 6 6 6 3 44 165 206 204 204 225 233 248 225 124 6 124 50 54 54 204 
242 242 233 233 233 219 233 173 89 110 233 233 233 233 233 233 204 157 81 74 
81 81 67 67 23 67 89 134 134 157 134 149 149 131 104 104 89 81 44 6 6 6 3 3 3 
3 6 6 67 157 182 196 182 219 233 233 182 110 23 134 74 67 96 177 219 206 206 
206 204 196 204 157 104 74 233 233 225 233 233 225 219 165 104 67 67 50 67 50 
50 96 110 131 124 110 104 149 124 104 110 110 89 54 23 19 6 6 3 6 3 3 3 23 89 
124 165 196 173 182 225 206 124 96 31 165 104 6 173 124 149 110 110 124 89 81 
89 131 110 96 225 225 233 233 233 233 206 173 104 81 74 50 44 54 67 110 124 
131 124 110 131 110 134 89 196 124 81 50 23 6 6 3 6 3 3 3 6 23 67 110 165 165 
157 182 233 131 131 110 44 131 54 23 165 110 131 104 104 110 89 96 96 124 104 
89 225 233 225 242 233 225 204 173 110 81 54 44 31 31 96 104 124 131 110 131 
96 110 131 89 149 104 89 67 23 6 6 3 3 3 3 3 3 23 74 131 124 131 149 204 206 
173 81 89 50 124 23 31 177 131 124 96 96 110 81 89 89 104 96 81 233 233 233 
233 225 219 196 173 124 104 89 44 44 54 104 104 110 149 131 124 81 110 110 81 
89 89 96 74 31 6 6 3 3 3 3 3 6 6 67 96 81 124 134 173 173 131 67 124 54 124 
104 81 157 124 124 104 89 104 89 96 104 110 96 96 225 233 233 225 219 204 182 
173 134 131 110 67 74 89 96 124 124 131 131 104 89 124 104 67 44 67 67 54 31 
6 6 3 3 3 3 3 6 19 50 74 67 110 110 110 165 104 104 134 74 131 182 149 149 124 
124 110 96 110 96 104 134 165 110 124 225 225 225 225 204 177 173 173 157 149 
124 104 104 89 96 134 131 104 110 96 104 110 110 54 31 19 19 31 31 19 3 3 3 3 
3 3 3 19 50 54 81 89 67 54 177 110 157 124 96 149 204 206 173 157 104 104 110 
149 110 110 182 225 149 110 225 233 233 206 196 173 157 157 165 149 104 81 67 
67 124 110 131 96 104 89 124 89 89 96 67 31 6 6 3 6 6 3 6 3 3 6 6 31 67 44 31 
6 31 50 177 74 54 134 134 177 182 225 206 204 104 54 110 134 110 131 196 182 
124 96 225 219 219 206 182 173 157 157 157 149 110 96 67 74 124 131 124 96 89 
89 110 81 96 104 74 44 19 3 3 3 3 3 3 3 3 6 6 19 23 19 6 19 50 81 157 67 81 104 
165 182 206 182 225 206 110 67 110 149 96 157 196 165 104 96 219 219 204 196 
177 173 165 149 157 149 124 131 96 89 110 124 96 81 89 89 96 104 110 110 104 
54 23 6 3 3 3 6 3 3 3 3 3 6 6 19 19 50 74 96 149 81 89 124 165 219 206 206 219 
134 96 96 104 131 81 110 134 165 149 110 204 204 196 182 173 165 157 134 149 
134 131 134 110 110 104 104 89 81 81 81 104 110 124 104 110 74 31 19 6 6 3 3 3 
3 3 3 3 3 6 6 23 81 89 104 134 110 96 177 177 242 225 225 219 104 89 110 96 104 
81 81 81 110 149 124 196 182 182 177 173 157 149 134 134 134 124 149 104 124 
96 104 81 81 81 74 110 110 110 89 89 74 50 44 23 6 6 6 3 3 3 3 3 3 6 23 44 89 
96 104 124 149 110 219 219 242 242 225 219 124 89 124 89 81 104 54 54 74 89 104 
182 182 177 173 165 157 134 149 134 131 131 131 110 110 96 124 96 74 81 89 110 
110 96 89 67 54 74 74 54 31 19 6 6 3 6 3 6 6 23 50 54 89 96 124 104 157 104 
206 242 242 242 219 233 67 67 124 96 81 96 54 74 67 89 104 173 173 173 165 165 
149 157 149 131 124 110 134 131 124 104 131 96 104 96 81 81 96 96 81 67 54 67 
67 74 54 54 50 23 19 19 19 23 31 50 54 74 89 96 96 96 134 182 225 242 242 242 
242 204 104 104 124 110 89 104 74 50 44 96 124 165 173 173 165 157 134 149 134 
134 124 110 131 110 104 96 124 124 104 89 81 81 81 96 74 67 67 54 50 50 54 67 
54 50 44 44 44 44 50 54 67 67 74 81 89 96 110 177 219 233 242 242 242 196 131 
104 96 89 96 110 124 81 54 104 124 
